<?xml version="1.0" encoding="UTF-8" standalone="no"?>
<!DOCTYPE svg PUBLIC "-//W3C//DTD SVG 1.1//EN" "http://www.w3.org/Graphics/SVG/1.1/DTD/svg11.dtd">
<svg width="100%" height="100%" viewBox="0 0 300 300" version="1.1" xmlns="http://www.w3.org/2000/svg" xmlns:xlink="http://www.w3.org/1999/xlink" xml:space="preserve" xmlns:serif="http://www.serif.com/" style="fill-rule:evenodd;clip-rule:evenodd;stroke-linejoin:round;stroke-miterlimit:2;">
    <g transform="matrix(1,0,0,1,-378.481944,-2103.172646)">
        <g transform="matrix(0.920245,0,0,0.975162,-324.585541,151.873505)">
            <rect x="764" y="2001" width="326" height="307.641" style="fill-opacity:0;"/>
        </g>
        <g transform="matrix(3.425257,0,0,3.425257,357.237785,2093.835869)">
            <path d="M89.456,49.024C88.523,52.751 86.444,55.919 83.448,58.184C82.882,58.614 82.069,58.501 81.64,57.934C81.21,57.368 81.323,56.555 81.89,56.126C87.581,51.817 88.327,44.528 86.546,39.216C84.901,34.321 80.409,29.087 72.737,29.087C72.194,29.087 71.71,28.747 71.526,28.239C67.624,17.559 56.639,11.098 45.409,12.876C34.179,14.653 25.725,24.188 25.307,35.556C25.284,36.251 24.713,36.798 24.018,36.798C17.924,36.798 12.58,41.759 12.58,47.411C12.58,51.235 14.666,54.782 18.025,56.673C18.646,57.024 18.865,57.81 18.517,58.431C18.279,58.853 17.842,59.087 17.392,59.087C17.178,59.087 16.959,59.032 16.76,58.923C12.592,56.575 9.998,52.165 9.998,47.415C9.998,43.927 11.537,40.602 14.326,38.055C16.685,35.903 19.717,34.559 22.795,34.278C23.779,22.212 32.947,12.239 44.998,10.333C57.154,8.411 69.045,15.193 73.627,26.536C80.787,26.88 86.623,31.36 88.986,38.403C90.142,41.845 90.306,45.622 89.451,49.036L89.456,49.024Z" style="fill:rgb(236,15,12);fill-rule:nonzero;stroke:rgb(236,15,12);stroke-width:3.65px;"/>
        </g>
        <g transform="matrix(0.589677,0,0,0.589677,405.591474,2089.462244)">
            <path d="M140.875,343.532C136.533,346.663 133.955,351.7 133.955,357.053C133.955,366.198 141.48,373.722 150.625,373.722C154.124,373.722 157.537,372.62 160.375,370.574C189.076,350.477 227.507,350.477 256.208,370.574C259.047,372.62 262.459,373.722 265.958,373.722C275.103,373.722 282.628,366.198 282.628,357.053C282.628,351.7 280.05,346.663 275.708,343.532C235.361,315.06 181.139,315.06 140.792,343.532" style="fill:rgb(236,15,12);fill-rule:nonzero;"/>
        </g>
        <g transform="matrix(0.589677,0,0,0.589677,405.591474,2014.481818)">
            <path d="M325.583,444.479C328.711,441.354 330.47,437.11 330.47,432.689C330.47,427.682 328.214,422.933 324.333,419.77C257.04,364.953 159.626,364.953 92.333,419.77C88.453,422.933 86.197,427.682 86.197,432.689C86.197,437.11 87.956,441.354 91.083,444.479C97.05,450.443 106.651,450.984 113.25,445.729C168.379,400.675 248.329,400.675 303.458,445.729C310.057,450.984 319.659,450.443 325.625,444.479" style="fill:rgb(236,15,12);fill-rule:nonzero;"/>
        </g>
        <g transform="matrix(-0.544493,0,0,0.544493,652.404662,2251.671579)">
            <ellipse cx="229.166" cy="186.102" rx="34.96" ry="34.961" style="fill:rgb(236,15,12);"/>
        </g>
        <g transform="matrix(0.544493,0,0,0.544493,402.845761,2063.247757)">
            <path d="M229.167,473.858C239.063,473.858 247.233,466.143 247.803,456.263L258.903,264.143C259.522,253.433 250.993,244.4 240.267,244.4L218.05,244.4C207.308,244.4 198.796,253.433 199.414,264.143L210.515,456.263C211.084,466.143 219.255,473.858 229.151,473.858L229.167,473.858Z" style="fill:rgb(236,15,12);fill-rule:nonzero;"/>
        </g>
    </g>
</svg>
