<svg xmlns="http://www.w3.org/2000/svg" version="1.1" viewBox="-5.0 -10.0 110.0 135.0">
 <path d="m75.98 22.383c-1.0078-0.55469-1.375-1.8242-0.81641-2.832 0.55469-1.0078 1.8242-1.3711 2.832-0.8125l2.0977 1.1562c2.0195 1.1172 3.2617 3.25 3.2305 5.5547v0.003906c-0.48438 33.441-10.551 56.555-29.887 69.359l-0.015625 0.007812c-2.0664 1.3516-4.7422 1.3516-6.8164 0.003907l-0.011719-0.007813c-0.79297-0.52734-1.5664-1.0664-2.3281-1.6289-0.92578-0.67578-1.125-1.9805-0.44531-2.9102 0.68359-0.92578 1.9883-1.125 2.9102-0.44141 0.70703 0.51172 1.4219 1.0156 2.1562 1.4961 0.68359 0.44922 1.5703 0.44531 2.2578 0 18.336-12.148 27.555-34.215 28.012-65.938 0.011719-0.76953-0.40234-1.4805-1.0742-1.8516zm-35.367 62.191c0.8125 0.81641 0.80859 2.1328-0.003906 2.9453s-2.1328 0.8125-2.9453-0.003906c-13.504-13.527-20.574-34.215-20.977-62.066-0.027344-2.3008 1.2109-4.4375 3.2305-5.5508 5.7734-3.1914 21.48-11.859 27.074-14.953 1.8828-1.0391 4.1641-1.0391 6.0469 0l17.984 9.9375c1.0039 0.55469 1.3711 1.8242 0.8125 2.832-0.55469 1.0078-1.8203 1.375-2.8281 0.81641l-17.984-9.9414c-0.625-0.34375-1.3906-0.34375-2.0156 0-5.5977 3.0938-21.297 11.762-27.074 14.953-0.67578 0.375-1.0859 1.0859-1.0781 1.8516 0.38281 26.523 6.8984 46.297 19.758 59.18zm-2.5508-65.625c0.98047-0.60156 2.2617-0.28906 2.8594 0.69531 0.60156 0.98438 0.28906 2.2656-0.69141 2.8633l-10.047 6.125c-0.62891 0.38281-1.0117 1.0742-0.99609 1.8125 0.39062 24.859 6.8086 42.32 19.641 52.188 0.71484 0.5 1.6719 0.49609 2.3789-0.015624 12.812-9.8516 19.242-27.312 19.629-52.168 0.011718-0.73828-0.37109-1.4297-1-1.8125-4.2852-2.6172-14.312-8.7305-18.746-11.43-0.66406-0.40625-1.5-0.40625-2.168 0l-1.9102 1.1641c-0.98047 0.59766-2.2617 0.28906-2.8633-0.69141-0.59766-0.98438-0.28516-2.2695 0.69531-2.8672l1.9102-1.1641c2-1.2188 4.5078-1.2188 6.5078 0 4.4297 2.6992 14.461 8.8125 18.746 11.43 1.8906 1.1562 3.0312 3.2227 2.9961 5.4375-0.41406 26.477-7.625 44.941-21.281 55.426-0.011718 0.003906-0.023437 0.015625-0.03125 0.023438-2.1914 1.6094-5.1758 1.6094-7.3633 0-0.011719-0.011719-0.023437-0.019532-0.035156-0.027344-13.656-10.484-20.855-28.945-21.273-55.426-0.039062-2.2109 1.1055-4.2852 2.9961-5.4375zm-23.477 28.969c1.1484 0 2.082 0.93359 2.082 2.082 0 1.1523-0.93359 2.0859-2.082 2.0859h-8.3359c-1.1484 0-2.082-0.93359-2.082-2.0859 0-1.1484 0.93359-2.082 2.082-2.082zm70.832 4.168c-1.1484 0-2.082-0.93359-2.082-2.0859 0-1.1484 0.93359-2.082 2.082-2.082h8.3359c1.1445 0 2.082 0.93359 2.082 2.082 0 1.1523-0.9375 2.0859-2.082 2.0859zm-70.168 5.0703c1.1133-0.29688 2.2539 0.36328 2.5547 1.4727 0.29687 1.1094-0.36719 2.2539-1.4727 2.5508l-8.0508 2.1562c-1.1133 0.29687-2.2539-0.36328-2.5508-1.4727s0.35938-2.2539 1.4727-2.5508zm68.422 4.0234c-1.1094-0.29688-1.7734-1.4414-1.4727-2.5508 0.29688-1.1094 1.4414-1.7695 2.5508-1.4727l8.0469 2.1562c1.1133 0.29688 1.7734 1.4414 1.4766 2.5508-0.29688 1.1094-1.4414 1.7695-2.5508 1.4727zm-65.383 4.7266c0.99609-0.57812 2.2695-0.23438 2.8438 0.76172 0.57813 0.99609 0.23438 2.2734-0.76172 2.8477l-7.2188 4.1641c-0.99609 0.57812-2.2695 0.23437-2.8438-0.76172-0.57812-0.99609-0.23438-2.2734 0.76172-2.8438zm61.34 3.6094c-0.99219-0.57422-1.3359-1.8516-0.76172-2.8477 0.57422-0.99609 1.8516-1.3398 2.8477-0.76172l7.2148 4.168c0.99609 0.57031 1.3398 1.8477 0.76172 2.8438-0.57031 0.99609-1.8477 1.3398-2.8438 0.76172z" fill-rule="evenodd"/>
<text x="0.0" y="117.5" font-size="5.0" font-weight="bold" font-family="Arbeit Regular, Helvetica, Arial-Unicode, Arial, Sans-serif" fill="#000000">Created by Alfan Zulkarnain</text><text x="0.0" y="122.5" font-size="5.0" font-weight="bold" font-family="Arbeit Regular, Helvetica, Arial-Unicode, Arial, Sans-serif" fill="#000000">from Noun Project</text></svg>