<?xml version="1.0" encoding="UTF-8" standalone="no"?>
<!DOCTYPE svg PUBLIC "-//W3C//DTD SVG 1.1//EN" "http://www.w3.org/Graphics/SVG/1.1/DTD/svg11.dtd">
<svg width="100%" height="100%" viewBox="0 0 827 827" version="1.1" xmlns="http://www.w3.org/2000/svg" xmlns:xlink="http://www.w3.org/1999/xlink" xml:space="preserve" xmlns:serif="http://www.serif.com/" style="fill-rule:evenodd;clip-rule:evenodd;stroke-linejoin:round;stroke-miterlimit:2;">
    <g transform="matrix(1,0,0,1,-4508,-7318.16)">
        <g transform="matrix(0.959371,0,0,1.08238,1101.27,-602.9)">
            <rect x="3551" y="7318.16" width="861.785" height="763.843" style="fill:rgb(235,235,235);fill-opacity:0;"/>
        </g>
        <g transform="matrix(1.67703,0,0,1.67703,-4327.05,-4262.11)">
            <g transform="matrix(4.16667,0,0,4.16667,5306.45,6940.13)">
                <path d="M24.027,15.09C22.578,15.09 21.258,14.356 20.496,13.121C19.734,11.887 19.668,10.379 20.312,9.082L22.726,4.258C22.972,3.766 23.476,3.453 24.027,3.453C24.578,3.453 25.082,3.766 25.328,4.258L27.742,9.082C28.39,10.379 28.324,11.887 27.558,13.121C26.797,14.356 25.476,15.09 24.027,15.09L24.027,15.09ZM24.027,8.16L22.918,10.383C22.636,10.942 22.863,11.414 22.972,11.59C23.082,11.766 23.402,12.18 24.031,12.18C24.656,12.18 24.98,11.77 25.089,11.59C25.199,11.414 25.425,10.942 25.144,10.383L24.027,8.16Z" style="fill-rule:nonzero;"/>
            </g>
            <g transform="matrix(4.16667,0,0,4.16667,5306.45,6940.13)">
                <path d="M75.973,15.09C74.524,15.09 73.204,14.356 72.442,13.121C71.68,11.887 71.614,10.379 72.258,9.082L74.672,4.258C74.918,3.766 75.422,3.453 75.973,3.453C76.524,3.453 77.028,3.766 77.274,4.258L79.688,9.082C80.336,10.379 80.266,11.887 79.504,13.121C78.743,14.356 77.422,15.09 75.973,15.09L75.973,15.09ZM75.973,8.16L74.864,10.383C74.582,10.942 74.809,11.414 74.918,11.59C75.028,11.766 75.348,12.18 75.977,12.18C76.602,12.18 76.926,11.766 77.035,11.59C77.145,11.414 77.371,10.942 77.09,10.383L75.973,8.16Z" style="fill-rule:nonzero;"/>
            </g>
            <g transform="matrix(4.16667,0,0,4.16667,5306.45,6940.13)">
                <path d="M50,15.09C48.551,15.09 47.231,14.356 46.469,13.121C45.707,11.887 45.641,10.379 46.285,9.082L48.699,4.258C48.945,3.766 49.449,3.453 50,3.453C50.551,3.453 51.055,3.766 51.301,4.258L53.715,9.082C54.363,10.379 54.297,11.887 53.535,13.121C52.77,14.356 51.449,15.09 50,15.09L50,15.09ZM50,8.16L48.891,10.383C48.609,10.942 48.836,11.414 48.945,11.59C49.051,11.77 49.375,12.184 50,12.184C50.625,12.184 50.949,11.774 51.059,11.594C51.168,11.418 51.395,10.945 51.113,10.387L50,8.16Z" style="fill-rule:nonzero;"/>
            </g>
            <g transform="matrix(4.16667,0,0,4.16667,5306.45,6940.13)">
                <path d="M37.012,29.637C35.563,29.637 34.243,28.903 33.481,27.668C32.719,26.434 32.653,24.926 33.297,23.629L35.711,18.805C35.957,18.313 36.461,18 37.012,18C37.563,18 38.067,18.313 38.313,18.805L40.727,23.629C41.375,24.926 41.309,26.434 40.543,27.668C39.782,28.899 38.461,29.637 37.012,29.637L37.012,29.637ZM37.012,22.707L35.903,24.93C35.621,25.489 35.848,25.961 35.957,26.137C36.067,26.313 36.387,26.727 37.016,26.727C37.641,26.727 37.965,26.317 38.074,26.137C38.184,25.961 38.41,25.489 38.129,24.93L37.012,22.707Z" style="fill-rule:nonzero;"/>
            </g>
            <g transform="matrix(4.16667,0,0,4.16667,5306.45,6940.13)">
                <path d="M62.988,29.637C61.539,29.637 60.219,28.903 59.457,27.668C58.695,26.434 58.629,24.926 59.277,23.629L61.691,18.805C61.937,18.313 62.441,18 62.992,18C63.543,18 64.047,18.313 64.293,18.805L66.707,23.629C67.355,24.926 67.285,26.434 66.523,27.668C65.758,28.899 64.437,29.637 62.988,29.637L62.988,29.637ZM62.988,22.707L61.879,24.93C61.597,25.489 61.824,25.961 61.933,26.137C62.043,26.313 62.363,26.727 62.992,26.727C63.617,26.727 63.941,26.313 64.05,26.137C64.16,25.961 64.386,25.489 64.105,24.93L62.988,22.707Z" style="fill-rule:nonzero;"/>
            </g>
            <g transform="matrix(4.16667,0,0,4.16667,5306.45,6940.13)">
                <path d="M77.637,96.547L22.364,96.547C21.559,96.547 20.911,95.895 20.911,95.094L20.911,70.364C20.911,70.044 21.016,69.731 21.212,69.477L29.024,59.293C29.298,58.934 29.727,58.723 30.176,58.723L69.824,58.723C70.278,58.723 70.703,58.934 70.977,59.293L78.789,69.477C78.985,69.731 79.09,70.044 79.09,70.364L79.09,95.091C79.09,95.896 78.442,96.548 77.637,96.548L77.637,96.547ZM23.817,93.637L76.18,93.637L76.184,70.86L69.106,61.637L30.895,61.637L23.817,70.86L23.817,93.637Z" style="fill-rule:nonzero;"/>
            </g>
            <g transform="matrix(4.16667,0,0,4.16667,5306.45,6940.13)">
                <path d="M77.637,71.816L22.364,71.816C21.559,71.816 20.911,71.164 20.911,70.363C20.911,69.558 21.563,68.91 22.364,68.91L77.637,68.91C78.442,68.91 79.09,69.562 79.09,70.363C79.09,71.168 78.442,71.816 77.637,71.816Z" style="fill-rule:nonzero;"/>
            </g>
            <g transform="matrix(4.16667,0,0,4.16667,5306.45,6966.31)">
                <path d="M61.312,44.504C60.941,44.504 60.566,44.363 60.285,44.078C54.613,38.406 45.387,38.406 39.715,44.078C39.148,44.645 38.226,44.645 37.656,44.078C37.09,43.512 37.09,42.59 37.656,42.02C44.461,35.215 55.535,35.215 62.34,42.02C62.907,42.586 62.907,43.508 62.34,44.078C62.059,44.363 61.688,44.504 61.313,44.504L61.312,44.504Z" style="fill-rule:nonzero;"/>
            </g>
            <g transform="matrix(4.16667,0,0,4.16667,5306.45,6966.31)">
                <path d="M66.457,39.363C66.086,39.363 65.711,39.222 65.43,38.937C56.922,30.429 43.082,30.429 34.575,38.937C34.008,39.504 33.086,39.504 32.516,38.937C31.95,38.371 31.95,37.449 32.516,36.879C42.157,27.238 57.844,27.238 67.485,36.879C68.052,37.445 68.052,38.367 67.485,38.937C67.2,39.218 66.829,39.363 66.458,39.363L66.457,39.363Z" style="fill-rule:nonzero;"/>
            </g>
            <g transform="matrix(4.16667,0,0,4.16667,5306.45,6940.13)">
                <path d="M52.91,61.637C52.105,61.637 51.457,60.985 51.457,60.184L51.457,55.821L48.547,55.821L48.547,60.184C48.547,60.989 47.894,61.637 47.094,61.637C46.289,61.637 45.64,60.985 45.64,60.184L45.64,54.368C45.64,53.563 46.293,52.914 47.094,52.914L52.91,52.914C53.715,52.914 54.363,53.567 54.363,54.368L54.363,60.184C54.363,60.985 53.711,61.637 52.91,61.637Z" style="fill-rule:nonzero;"/>
            </g>
            <g transform="matrix(4.16667,0,0,4.16667,5306.45,6940.13)">
                <path d="M52.91,90.727L47.094,90.727C46.289,90.727 45.64,90.075 45.64,89.274L45.64,76.184C45.64,75.379 46.293,74.731 47.094,74.731L52.91,74.731C53.715,74.731 54.363,75.383 54.363,76.184L54.363,89.274C54.363,90.075 53.711,90.727 52.91,90.727ZM48.547,87.817L51.457,87.817L51.457,77.633L48.547,77.633L48.547,87.817Z" style="fill-rule:nonzero;"/>
            </g>
            <g transform="matrix(4.16667,0,0,4.16667,5306.45,6940.13)">
                <path d="M68.91,90.727L63.094,90.727C62.289,90.727 61.64,90.075 61.64,89.274L61.64,76.184C61.64,75.379 62.293,74.731 63.094,74.731L68.91,74.731C69.715,74.731 70.363,75.383 70.363,76.184L70.363,89.274C70.363,90.075 69.711,90.727 68.91,90.727ZM64.547,87.817L67.457,87.817L67.457,77.633L64.547,77.633L64.547,87.817Z" style="fill-rule:nonzero;"/>
            </g>
            <g transform="matrix(4.16667,0,0,4.16667,5306.45,6940.13)">
                <path d="M38.363,90.727L32.547,90.727C31.742,90.727 31.093,90.075 31.093,89.274L31.093,76.184C31.093,75.379 31.746,74.731 32.547,74.731L38.363,74.731C39.168,74.731 39.816,75.383 39.816,76.184L39.816,89.274C39.816,90.075 39.168,90.727 38.363,90.727ZM34,87.817L36.91,87.817L36.91,77.633L34,77.633L34,87.817Z" style="fill-rule:nonzero;"/>
            </g>
        </g>
    </g>
</svg>
