<?xml version="1.0" encoding="UTF-8" standalone="no"?>
<!DOCTYPE svg PUBLIC "-//W3C//DTD SVG 1.1//EN" "http://www.w3.org/Graphics/SVG/1.1/DTD/svg11.dtd">
<svg width="100%" height="100%" viewBox="0 0 300 300" version="1.1" xmlns="http://www.w3.org/2000/svg" xmlns:xlink="http://www.w3.org/1999/xlink" xml:space="preserve" xmlns:serif="http://www.serif.com/" style="fill-rule:evenodd;clip-rule:evenodd;stroke-linejoin:round;stroke-miterlimit:2;">
    <g transform="matrix(1,0,0,1,-697.481944,-2403.172646)">
        <g transform="matrix(0.920245,0,0,0.975162,-5.585541,451.873505)">
            <rect x="764" y="2001" width="326" height="307.641" style="fill-opacity:0;"/>
        </g>
        <g transform="matrix(3.425257,0,0,3.425257,676.237785,2393.835869)">
            <path d="M89.456,49.024C88.523,52.751 86.444,55.919 83.448,58.184C82.882,58.614 82.069,58.501 81.64,57.934C81.21,57.368 81.323,56.555 81.89,56.126C87.581,51.817 88.327,44.528 86.546,39.216C84.901,34.321 80.409,29.087 72.737,29.087C72.194,29.087 71.71,28.747 71.526,28.239C67.624,17.559 56.639,11.098 45.409,12.876C34.179,14.653 25.725,24.188 25.307,35.556C25.284,36.251 24.713,36.798 24.018,36.798C17.924,36.798 12.58,41.759 12.58,47.411C12.58,51.235 14.666,54.782 18.025,56.673C18.646,57.024 18.865,57.81 18.517,58.431C18.279,58.853 17.842,59.087 17.392,59.087C17.178,59.087 16.959,59.032 16.76,58.923C12.592,56.575 9.998,52.165 9.998,47.415C9.998,43.927 11.537,40.602 14.326,38.055C16.685,35.903 19.717,34.559 22.795,34.278C23.779,22.212 32.947,12.239 44.998,10.333C57.154,8.411 69.045,15.193 73.627,26.536C80.787,26.88 86.623,31.36 88.986,38.403C90.142,41.845 90.306,45.622 89.451,49.036L89.456,49.024Z" style="fill:rgb(65,149,66);fill-rule:nonzero;stroke:rgb(65,149,66);stroke-width:3.65px;"/>
        </g>
        <g transform="matrix(0.589677,0,0,0.589677,724.6006,2497.610279)">
            <path d="M79.167,241.667C79.167,250.81 86.69,258.334 95.833,258.334L156.833,258.334C164.061,280.601 184.943,295.778 208.354,295.778C231.765,295.778 252.648,280.601 259.875,258.334L320.833,258.334C329.976,258.334 337.5,250.81 337.5,241.667C337.5,232.524 329.976,225.001 320.833,225.001L259.833,225.001C252.606,202.733 231.723,187.556 208.313,187.556C184.902,187.556 164.019,202.733 156.792,225.001L95.833,225.001C86.69,225.001 79.167,232.524 79.167,241.667M208.333,220.834C219.762,220.834 229.167,230.239 229.167,241.667C229.167,253.096 219.762,262.501 208.333,262.501C196.905,262.501 187.5,253.096 187.5,241.667C187.5,230.239 196.905,220.834 208.333,220.834" style="fill:rgb(65,149,66);fill-rule:nonzero;"/>
        </g>
        <g transform="matrix(0.589677,0,0,0.589677,724.6006,2376.462244)">
            <path d="M140.875,343.532C136.533,346.663 133.955,351.7 133.955,357.053C133.955,366.198 141.48,373.722 150.625,373.722C154.124,373.722 157.537,372.62 160.375,370.574C189.076,350.477 227.507,350.477 256.208,370.574C259.047,372.62 262.459,373.722 265.958,373.722C275.103,373.722 282.628,366.198 282.628,357.053C282.628,351.7 280.05,346.663 275.708,343.532C235.361,315.06 181.139,315.06 140.792,343.532" style="fill:rgb(65,149,66);fill-rule:nonzero;"/>
        </g>
        <g transform="matrix(0.589677,0,0,0.589677,724.6006,2301.481818)">
            <path d="M325.583,444.479C328.711,441.354 330.47,437.11 330.47,432.689C330.47,427.682 328.214,422.933 324.333,419.77C257.04,364.953 159.626,364.953 92.333,419.77C88.453,422.933 86.197,427.682 86.197,432.689C86.197,437.11 87.956,441.354 91.083,444.479C97.05,450.443 106.651,450.984 113.25,445.729C168.379,400.675 248.329,400.675 303.458,445.729C310.057,450.984 319.659,450.443 325.625,444.479" style="fill:rgb(65,149,66);fill-rule:nonzero;"/>
        </g>
    </g>
</svg>
