<?xml version="1.0" encoding="UTF-8" standalone="no"?>
<!DOCTYPE svg PUBLIC "-//W3C//DTD SVG 1.1//EN" "http://www.w3.org/Graphics/SVG/1.1/DTD/svg11.dtd">
<svg width="100%" height="100%" viewBox="0 0 300 300" version="1.1" xmlns="http://www.w3.org/2000/svg" xmlns:xlink="http://www.w3.org/1999/xlink" xml:space="preserve" xmlns:serif="http://www.serif.com/" style="fill-rule:evenodd;clip-rule:evenodd;stroke-linejoin:round;stroke-miterlimit:2;">
    <g transform="matrix(1,0,0,1,-1388.481944,-2103.172646)">
        <g transform="matrix(2.420788,-0,0,2.420788,1422.945484,2187.758314)">
            <path d="M64.109,61.324L52.125,49.344C50.941,48.176 49.086,48.188 47.937,49.289L35.898,61.328C33.105,64.121 37.348,68.364 40.141,65.571L47.004,58.707L47.004,86.023C47.004,89.973 53.004,89.973 53.004,86.023L53.004,58.703L59.867,65.567C62.66,68.36 66.903,64.117 64.109,61.324L64.109,61.324Z"/>
        </g>
        <g transform="matrix(3.439367,0,0,3.439367,1365.668585,2093.694649)">
            <path d="M89.456,49.024C88.523,52.751 86.444,55.919 83.448,58.184C82.882,58.614 82.069,58.501 81.64,57.934C81.21,57.368 81.323,56.555 81.89,56.126C87.581,51.817 88.327,44.528 86.546,39.216C84.901,34.321 80.409,29.087 72.737,29.087C72.194,29.087 71.71,28.747 71.526,28.239C67.624,17.559 56.639,11.098 45.409,12.876C34.179,14.653 25.725,24.188 25.307,35.556C25.284,36.251 24.713,36.798 24.018,36.798C17.924,36.798 12.58,41.759 12.58,47.411C12.58,51.235 14.666,54.782 18.025,56.673C18.646,57.024 18.865,57.81 18.517,58.431C18.279,58.853 17.842,59.087 17.392,59.087C17.178,59.087 16.959,59.032 16.76,58.923C12.592,56.575 9.998,52.165 9.998,47.415C9.998,43.927 11.537,40.602 14.326,38.055C16.685,35.903 19.717,34.559 22.795,34.278C23.779,22.212 32.947,12.239 44.998,10.333C57.154,8.411 69.045,15.193 73.627,26.536C80.787,26.88 86.623,31.36 88.986,38.403C90.142,41.845 90.306,45.622 89.451,49.036L89.456,49.024Z" style="fill-rule:nonzero;stroke:black;stroke-width:3.63px;"/>
        </g>
        <g transform="matrix(0.920245,0,0,0.975162,685.414459,151.873505)">
            <rect x="764" y="2001" width="326" height="307.641" style="fill-opacity:0;"/>
        </g>
        <g transform="matrix(0.825448,0,0,0.825448,1060.569445,53.494284)">
            <g transform="matrix(4.166667,0,0,4.166667,380.735433,2445.32641)">
                <path d="M62.76,49.82C64.41,49.82 65.75,48.48 65.75,46.83L65.75,40.15C65.75,38.5 64.41,37.16 62.76,37.16L35.6,37.16C33.95,37.16 32.61,38.5 32.61,40.15L32.61,46.83C32.61,48.48 33.95,49.82 35.6,49.82L37.92,49.82L37.92,52.84L35.6,52.84C33.95,52.84 32.61,54.18 32.61,55.83L32.61,62.51C32.61,64.16 33.95,65.5 35.6,65.5L62.76,65.5C64.41,65.5 65.75,64.16 65.75,62.51L65.75,55.83C65.75,54.18 64.41,52.84 62.76,52.84L60.44,52.84L60.44,49.82L62.76,49.82ZM62.76,54.84C63.3,54.84 63.75,55.28 63.75,55.83L63.75,62.51C63.75,63.05 63.3,63.5 62.76,63.5L35.6,63.5C35.05,63.5 34.61,63.05 34.61,62.51L34.61,55.83C34.61,55.28 35.05,54.84 35.6,54.84C42.443,54.84 50.843,54.84 62.76,54.84ZM35.6,47.82C35.05,47.82 34.61,47.38 34.61,46.83L34.61,40.15C34.61,39.61 35.05,39.16 35.6,39.16L62.76,39.16C63.3,39.16 63.75,39.61 63.75,40.15L63.75,46.83C63.75,47.38 63.3,47.82 62.76,47.82L35.6,47.82Z" style="fill-rule:nonzero;"/>
            </g>
        </g>
        <g transform="matrix(0.825448,0,0,0.825448,1060.569445,53.494284)">
            <g transform="matrix(4.166667,0,0,4.166667,380.735433,2445.32641)">
                <path d="M44.22,42.35L38.62,42.35C38.07,42.35 37.62,42.79 37.62,43.35C37.62,43.9 38.07,44.35 38.62,44.35L44.22,44.35C44.78,44.35 45.22,43.9 45.22,43.35C45.22,42.79 44.78,42.35 44.22,42.35Z" style="fill-rule:nonzero;"/>
            </g>
        </g>
        <g transform="matrix(0.825448,0,0,0.825448,1060.569445,53.494284)">
            <g transform="matrix(4.166667,0,0,4.166667,380.735433,2445.32641)">
                <path d="M58.98,41.33C57.87,41.33 56.97,42.23 56.97,43.35C56.97,44.46 57.87,45.36 58.98,45.36C60.1,45.36 61,44.46 61,43.35C61,42.23 60.1,41.33 58.98,41.33Z" style="fill-rule:nonzero;"/>
            </g>
        </g>
        <g transform="matrix(0.825448,0,0,0.825448,1060.569445,53.494284)">
            <g transform="matrix(4.166667,0,0,4.166667,380.735433,2445.32641)">
                <path d="M52.52,41.33C51.41,41.33 50.5,42.23 50.5,43.35C50.5,44.46 51.41,45.36 52.52,45.36C53.63,45.36 54.53,44.46 54.53,43.35C54.53,42.23 53.63,41.33 52.52,41.33Z" style="fill-rule:nonzero;"/>
            </g>
        </g>
        <g transform="matrix(0.825448,0,0,0.825448,1060.569445,53.494284)">
            <g transform="matrix(4.166667,0,0,4.166667,380.735433,2445.32641)">
                <path d="M44.22,58.17L38.62,58.17C38.07,58.17 37.62,58.62 37.62,59.17C37.62,59.72 38.07,60.17 38.62,60.17L44.22,60.17C44.78,60.17 45.22,59.72 45.22,59.17C45.22,58.62 44.78,58.17 44.22,58.17Z" style="fill-rule:nonzero;"/>
            </g>
        </g>
        <g transform="matrix(0.825448,0,0,0.825448,1060.569445,53.494284)">
            <g transform="matrix(4.166667,0,0,4.166667,380.735433,2445.32641)">
                <path d="M56.97,59.17C56.97,60.28 57.87,61.18 58.98,61.18C60.1,61.18 61,60.28 61,59.17C61,58.06 60.1,57.15 58.98,57.15C57.87,57.15 56.97,58.06 56.97,59.17Z" style="fill-rule:nonzero;"/>
            </g>
        </g>
        <g transform="matrix(0.825448,0,0,0.825448,1060.569445,53.494284)">
            <g transform="matrix(4.166667,0,0,4.166667,380.735433,2445.32641)">
                <path d="M52.52,57.15C51.41,57.15 50.5,58.06 50.5,59.17C50.5,60.28 51.41,61.18 52.52,61.18C53.63,61.18 54.53,60.28 54.53,59.17C54.53,58.06 53.63,57.15 52.52,57.15Z" style="fill-rule:nonzero;"/>
            </g>
        </g>
        <g transform="matrix(0.825448,0,0,0.825448,1060.569445,53.494284)">
            <g transform="matrix(4.166667,0,0,4.166667,380.735433,2445.32641)">
                <path d="M62.76,49.82C64.41,49.82 65.75,48.48 65.75,46.83L65.75,40.15C65.75,38.5 64.41,37.16 62.76,37.16L35.6,37.16C33.95,37.16 32.61,38.5 32.61,40.15L32.61,46.83C32.61,48.48 33.95,49.82 35.6,49.82L37.92,49.82L37.92,52.84L35.6,52.84C33.95,52.84 32.61,54.18 32.61,55.83L32.61,62.51C32.61,64.16 33.95,65.5 35.6,65.5L62.76,65.5C64.41,65.5 65.75,64.16 65.75,62.51L65.75,55.83C65.75,54.18 64.41,52.84 62.76,52.84L60.44,52.84L60.44,49.82L62.76,49.82ZM62.76,54.84C63.3,54.84 63.75,55.28 63.75,55.83L63.75,62.51C63.75,63.05 63.3,63.5 62.76,63.5L35.6,63.5C35.05,63.5 34.61,63.05 34.61,62.51L34.61,55.83C34.61,55.28 35.05,54.84 35.6,54.84C42.443,54.84 50.843,54.84 62.76,54.84ZM35.6,47.82C35.05,47.82 34.61,47.38 34.61,46.83L34.61,40.15C34.61,39.61 35.05,39.16 35.6,39.16L62.76,39.16C63.3,39.16 63.75,39.61 63.75,40.15L63.75,46.83C63.75,47.38 63.3,47.82 62.76,47.82L35.6,47.82Z" style="fill-rule:nonzero;"/>
            </g>
        </g>
        <g transform="matrix(0.825448,0,0,0.825448,1060.569445,53.494284)">
            <g transform="matrix(4.166667,0,0,4.166667,380.735433,2445.32641)">
                <path d="M44.22,42.35L38.62,42.35C38.07,42.35 37.62,42.79 37.62,43.35C37.62,43.9 38.07,44.35 38.62,44.35L44.22,44.35C44.78,44.35 45.22,43.9 45.22,43.35C45.22,42.79 44.78,42.35 44.22,42.35Z" style="fill-rule:nonzero;"/>
            </g>
        </g>
        <g transform="matrix(0.825448,0,0,0.825448,1060.569445,53.494284)">
            <g transform="matrix(4.166667,0,0,4.166667,380.735433,2445.32641)">
                <path d="M58.98,41.33C57.87,41.33 56.97,42.23 56.97,43.35C56.97,44.46 57.87,45.36 58.98,45.36C60.1,45.36 61,44.46 61,43.35C61,42.23 60.1,41.33 58.98,41.33Z" style="fill-rule:nonzero;"/>
            </g>
        </g>
        <g transform="matrix(0.825448,0,0,0.825448,1060.569445,53.494284)">
            <g transform="matrix(4.166667,0,0,4.166667,380.735433,2445.32641)">
                <path d="M52.52,41.33C51.41,41.33 50.5,42.23 50.5,43.35C50.5,44.46 51.41,45.36 52.52,45.36C53.63,45.36 54.53,44.46 54.53,43.35C54.53,42.23 53.63,41.33 52.52,41.33Z" style="fill-rule:nonzero;"/>
            </g>
        </g>
        <g transform="matrix(0.825448,0,0,0.825448,1060.569445,53.494284)">
            <g transform="matrix(4.166667,0,0,4.166667,380.735433,2445.32641)">
                <path d="M44.22,58.17L38.62,58.17C38.07,58.17 37.62,58.62 37.62,59.17C37.62,59.72 38.07,60.17 38.62,60.17L44.22,60.17C44.78,60.17 45.22,59.72 45.22,59.17C45.22,58.62 44.78,58.17 44.22,58.17Z" style="fill-rule:nonzero;"/>
            </g>
        </g>
        <g transform="matrix(0.825448,0,0,0.825448,1060.569445,53.494284)">
            <g transform="matrix(4.166667,0,0,4.166667,380.735433,2445.32641)">
                <path d="M56.97,59.17C56.97,60.28 57.87,61.18 58.98,61.18C60.1,61.18 61,60.28 61,59.17C61,58.06 60.1,57.15 58.98,57.15C57.87,57.15 56.97,58.06 56.97,59.17Z" style="fill-rule:nonzero;"/>
            </g>
        </g>
        <g transform="matrix(0.825448,0,0,0.825448,1060.569445,53.494284)">
            <g transform="matrix(4.166667,0,0,4.166667,380.735433,2445.32641)">
                <path d="M52.52,57.15C51.41,57.15 50.5,58.06 50.5,59.17C50.5,60.28 51.41,61.18 52.52,61.18C53.63,61.18 54.53,60.28 54.53,59.17C54.53,58.06 53.63,57.15 52.52,57.15Z" style="fill-rule:nonzero;"/>
            </g>
        </g>
    </g>
</svg>
