<?xml version="1.0" encoding="UTF-8" standalone="no"?>
<!DOCTYPE svg PUBLIC "-//W3C//DTD SVG 1.1//EN" "http://www.w3.org/Graphics/SVG/1.1/DTD/svg11.dtd">
<svg width="100%" height="100%" viewBox="0 0 827 827" version="1.1" xmlns="http://www.w3.org/2000/svg" xmlns:xlink="http://www.w3.org/1999/xlink" xml:space="preserve" xmlns:serif="http://www.serif.com/" style="fill-rule:evenodd;clip-rule:evenodd;stroke-linejoin:round;stroke-miterlimit:2;">
    <g transform="matrix(1,0,0,1,-3551,-7318.16)">
        <g transform="matrix(0.959371,0,0,1.08238,144.274,-602.9)">
            <rect x="3551" y="7318.16" width="861.785" height="763.843" style="fill:rgb(235,235,235);fill-opacity:0;"/>
        </g>
        <g>
            <g transform="matrix(7.33823,0,0,7.33823,3597.51,7393.75)">
                <path d="M50,31.879C52.297,31.879 54.168,30.008 54.168,27.711C54.168,24.926 52.024,22.176 50.746,20.781C50.359,20.359 49.633,20.359 49.246,20.781C47.969,22.176 45.824,24.926 45.824,27.711C45.824,30.008 47.695,31.879 49.992,31.879L50,31.879ZM50,23.031C51.352,24.723 52.137,26.426 52.137,27.711C52.062,30.527 47.938,30.527 47.863,27.711C47.863,26.043 49.055,24.215 50,23.031Z" style="fill-rule:nonzero;"/>
            </g>
            <g transform="matrix(7.33823,0,0,7.33823,3531.65,7104.44)">
                <path d="M75.551,46.297C78.602,46.234 81.313,48.945 81.25,51.996C81.27,53.328 83.262,53.332 83.281,51.996C83.367,47.852 79.692,44.18 75.551,44.266C74.215,44.289 74.215,46.277 75.551,46.297L75.551,46.297Z" style="fill-rule:nonzero;"/>
            </g>
            <g transform="matrix(7.33823,0,0,7.33823,3531.65,7104.44)">
                <path d="M75.715,39.977C82.11,39.868 87.676,45.434 87.567,51.829C87.59,53.157 89.583,53.161 89.598,51.821C89.727,44.341 83.2,37.809 75.715,37.942C74.383,37.966 74.375,39.946 75.711,39.973L75.715,39.977Z" style="fill-rule:nonzero;"/>
            </g>
            <g transform="matrix(7.33823,0,0,7.33823,3597.46,7393.8)">
                <path d="M84.48,59.066L62.785,59.066L62.785,44.574C62.785,43.863 63.066,43.183 63.574,42.672L68.465,37.793C69.344,36.91 69.847,35.695 69.847,34.453L69.847,13.699C69.847,11.754 68.262,10.172 66.312,10.172L33.691,10.172C31.742,10.172 30.156,11.754 30.156,13.699L30.156,19.43C30.172,20.777 32.179,20.746 32.187,19.43L32.187,13.699C32.187,12.875 32.863,12.203 33.691,12.203L66.312,12.203C67.14,12.203 67.816,12.875 67.816,13.699L67.816,34.453C67.816,35.16 67.527,35.851 67.027,36.355L62.133,41.238C61.242,42.14 60.754,43.324 60.754,44.574L60.754,47.926L39.25,47.926C39.195,45.789 39.687,42.851 37.863,41.234L32.976,36.359C32.472,35.855 32.187,35.164 32.187,34.457L32.187,23.5C32.183,22.195 30.172,22.141 30.156,23.5L30.156,34.457C30.156,35.699 30.66,36.914 31.543,37.797L36.425,42.668C36.937,43.187 37.222,43.863 37.222,44.578L37.222,59.07L15.519,59.066C11.558,59.066 8.336,62.289 8.336,66.25L8.336,82.652C8.336,86.609 11.558,89.827 15.519,89.827L66.8,89.827C68.132,89.792 68.144,87.827 66.8,87.796L15.519,87.796C12.68,87.796 10.367,85.488 10.367,82.652L10.367,66.25C10.367,63.41 12.68,61.097 15.519,61.097L37.214,61.097L37.214,73.781C37.214,73.946 37.253,74.11 37.332,74.254L40.554,80.403C40.906,81.125 42.031,81.117 42.367,80.383L45.406,74.235C45.476,74.094 45.511,73.942 45.511,73.785L45.511,61.101L54.496,61.101L54.496,73.785C54.496,73.942 54.531,74.098 54.601,74.239L57.671,80.387C58.007,81.113 59.136,81.133 59.484,80.403L62.675,74.254C62.75,74.11 62.789,73.949 62.789,73.785L62.789,61.101L84.484,61.101C87.323,61.101 89.636,63.414 89.636,66.254L89.636,82.656C89.636,85.492 87.323,87.8 84.484,87.8L70.867,87.8C69.527,87.812 69.539,89.82 70.867,89.831L84.484,89.831C88.445,89.831 91.667,86.613 91.667,82.656L91.667,66.254C91.667,62.293 88.445,59.07 84.484,59.07L84.48,59.066ZM43.476,73.543L41.425,77.688L39.246,73.527L39.246,49.953L43.472,49.953L43.472,73.539L43.476,73.543ZM54.492,59.066L45.508,59.066L45.508,49.957L54.492,49.957L54.492,59.066ZM60.754,73.531L58.598,77.687L56.527,73.539L56.527,49.953L60.754,49.953L60.754,73.531Z" style="fill-rule:nonzero;"/>
            </g>
            <g transform="matrix(7.33823,0,0,7.33823,3597.46,7393.8)">
                <path d="M64.246,35.426L64.246,16.906C64.246,16.344 63.793,15.89 63.23,15.89L36.773,15.89C36.211,15.89 35.758,16.344 35.758,16.906L35.758,35.426C35.758,35.989 36.211,36.442 36.773,36.442L63.23,36.442C63.793,36.442 64.246,35.988 64.246,35.426ZM62.215,34.41L37.789,34.41L37.789,17.922L62.215,17.922L62.215,34.41Z" style="fill-rule:nonzero;"/>
            </g>
            <g transform="matrix(7.33823,0,0,7.33823,3597.46,7393.8)">
                <path d="M18.656,68.207L23.234,68.207C24.57,68.184 24.57,66.195 23.234,66.176L18.656,66.176C17.32,66.199 17.32,68.188 18.656,68.207Z" style="fill-rule:nonzero;"/>
            </g>
            <g transform="matrix(7.33823,0,0,7.33823,3597.46,7393.8)">
                <path d="M18.656,82.723L23.234,82.723C24.57,82.7 24.57,80.711 23.234,80.692L18.656,80.692C17.32,80.715 17.32,82.704 18.656,82.723Z" style="fill-rule:nonzero;"/>
            </g>
            <g transform="matrix(7.33823,0,0,7.33823,3597.46,7393.8)">
                <path d="M28.922,75.465C30.258,75.442 30.258,73.453 28.922,73.434L24.344,73.434C23.781,73.434 23.328,73.887 23.328,74.449C23.328,75.012 23.781,75.465 24.344,75.465L28.922,75.465Z" style="fill-rule:nonzero;"/>
            </g>
            <g transform="matrix(7.33823,0,0,7.33823,3597.46,7393.8)">
                <path d="M81.344,66.172L76.766,66.172C75.43,66.195 75.43,68.184 76.766,68.203L81.344,68.203C82.68,68.18 82.68,66.191 81.344,66.172Z" style="fill-rule:nonzero;"/>
            </g>
            <g transform="matrix(7.33823,0,0,7.33823,3597.46,7393.8)">
                <path d="M81.344,80.691L76.766,80.691C75.43,80.714 75.43,82.703 76.766,82.722L81.344,82.722C82.68,82.699 82.68,80.711 81.344,80.691Z" style="fill-rule:nonzero;"/>
            </g>
            <g transform="matrix(7.33823,0,0,7.33823,3597.46,7393.8)">
                <path d="M71.078,73.43C69.742,73.453 69.742,75.442 71.078,75.461L75.656,75.461C76.219,75.461 76.672,75.008 76.672,74.446C76.672,73.883 76.219,73.43 75.656,73.43L71.078,73.43Z" style="fill-rule:nonzero;"/>
            </g>
            <g transform="matrix(7.33823,0,0,7.33823,3597.46,7393.8)">
                <path d="M47.711,80.691C46.375,80.714 46.375,82.703 47.711,82.722L52.289,82.722C52.852,82.722 53.305,82.269 53.305,81.707C53.305,81.144 52.852,80.691 52.289,80.691L47.711,80.691Z" style="fill-rule:nonzero;"/>
            </g>
            <g transform="matrix(7.33823,0,0,7.33823,3597.46,7393.8)">
                <path d="M53.152,39.559L45.48,39.559C44.148,39.579 44.144,41.571 45.48,41.59L53.152,41.59C54.484,41.571 54.488,39.579 53.152,39.559Z" style="fill-rule:nonzero;"/>
            </g>
            <g transform="matrix(7.33823,0,0,7.33823,3597.46,7393.8)">
                <path d="M53.152,43.742L45.48,43.742C44.148,43.762 44.144,45.754 45.48,45.773L53.152,45.773C54.484,45.754 54.488,43.762 53.152,43.742Z" style="fill-rule:nonzero;"/>
            </g>
        </g>
    </g>
</svg>
