<svg xmlns="http://www.w3.org/2000/svg" version="1.1" viewBox="-5.0 -10.0 110.0 135.0">
 <path d="m56.531 38.707c0.82812 0 1.5 0.67188 1.5 1.5s-0.67188 1.5-1.5 1.5h-5.0312v12.234h12.648c0.82812 0 1.5 0.67188 1.5 1.5s-0.67188 1.5-1.5 1.5h-5.0312v22.242c1.6133 0.46484 3.0547 1.0039 4.293 1.543 1.6367 0.71094 2.9336 1.4258 3.8281 1.9609 0.24219 0.14844 0.45312 0.28125 0.63672 0.39844 0.027344-0.011719 0.058594-0.027344 0.085938-0.039063 0.58203-0.26953 1.4141-0.61719 2.4492-0.94531 2.0586-0.65234 4.9492-1.2422 8.2344-0.94922 3.2422 0.29297 5.5625 1.1719 7.1055 2.0156 0.76953 0.42188 1.3359 0.83203 1.7266 1.1484 0.19141 0.16016 0.34375 0.29688 0.44922 0.39844 0.054688 0.050781 0.097657 0.09375 0.12891 0.12891 0.015624 0.015625 0.027343 0.03125 0.039062 0.042969l0.015625 0.015625 0.007813 0.007812c0 0.003906-0.042969 0.042969-0.98828 0.88672l0.99219-0.88281c0.55078 0.61719 0.49609 1.5664-0.12109 2.1172-0.62109 0.55078-1.5664 0.49609-2.1172-0.12109l0.003907 0.003906v0.003907l-0.042969-0.042969c-0.050781-0.050781-0.14062-0.13281-0.26562-0.23438-0.25781-0.21094-0.67578-0.51562-1.2695-0.84375-1.1875-0.64844-3.1133-1.4023-5.9336-1.6562-2.7812-0.25-5.2617 0.25-7.0586 0.82031-0.89453 0.28516-1.6094 0.58203-2.0938 0.80859-0.24219 0.10938-0.42969 0.20312-0.54688 0.26562-0.058593 0.03125-0.10156 0.054688-0.12891 0.070313-0.011719 0.007812-0.023437 0.011719-0.027344 0.015625h-0.003906c-0.51953 0.30078-1.168 0.26172-1.6484-0.09375 0 0-0.003907-0.003906-0.007813-0.007813-0.007813-0.007812-0.027344-0.019531-0.046875-0.035156-0.046875-0.03125-0.12109-0.085937-0.22266-0.15234-0.19922-0.13672-0.5-0.33203-0.89844-0.57422-0.80078-0.48047-1.9805-1.1289-3.4766-1.7773-2.9961-1.3047-7.2305-2.5977-12.215-2.5977s-9.2188 1.293-12.215 2.5977c-1.4961 0.64844-2.6758 1.2969-3.4727 1.7773-0.40234 0.24219-0.70312 0.4375-0.90234 0.57422-0.10156 0.066407-0.17578 0.12109-0.21875 0.15234-0.023437 0.015625-0.039062 0.027344-0.050781 0.035156-0.003906 0.003907-0.007813 0.007813-0.007813 0.007813-0.45312 0.33594-1.0508 0.39062-1.5547 0.14453l-0.09375-0.050781h-0.003906c-0.003907-0.003906-0.011719-0.007813-0.027344-0.015625-0.023437-0.015625-0.070313-0.039063-0.12891-0.070313-0.11719-0.0625-0.30078-0.15625-0.54297-0.26562-0.48828-0.22656-1.2031-0.52344-2.0977-0.80859-1.7969-0.57031-4.2773-1.0703-7.0586-0.82031-2.8203 0.25391-4.7461 1.0078-5.9336 1.6562-0.59375 0.32812-1.0117 0.63281-1.2656 0.84375-0.12891 0.10547-0.21875 0.18359-0.26953 0.23438l-0.042969 0.042969 0.003907-0.003907v-0.003906c-0.55078 0.61719-1.4961 0.67188-2.1133 0.12109-0.62109-0.55078-0.67578-1.5-0.12109-2.1172v-0.003906l0.003907-0.003906 0.019531-0.019531c0.011719-0.011719 0.023438-0.027344 0.039062-0.042969 0.035157-0.035156 0.074219-0.078125 0.12891-0.12891 0.10547-0.10156 0.25781-0.23828 0.44922-0.39844 0.39062-0.31641 0.95703-0.72656 1.7266-1.1484 1.543-0.84375 3.8633-1.7227 7.1094-2.0156 3.2812-0.29297 6.1758 0.29688 8.2344 0.94922 1.0312 0.32813 1.8633 0.67578 2.4453 0.94531 0.027344 0.011719 0.058594 0.027344 0.085938 0.039063 0.18359-0.11719 0.39453-0.25 0.63672-0.39844 0.89453-0.53516 2.1914-1.25 3.8281-1.9609 1.2422-0.53906 2.6797-1.0781 4.293-1.543v-22.242h-5.0312c-0.82812 0-1.5-0.67188-1.5-1.5s0.67188-1.5 1.5-1.5h12.648v-12.234h-5.0273c-0.82812 0-1.5-0.67188-1.5-1.5s0.67188-1.5 1.5-1.5zm-12.648 39.762c1.8828-0.35938 3.9336-0.58594 6.1172-0.58594s4.2344 0.22656 6.1172 0.58594v-21.527h-12.234zm-24.352-39.352c1.1992 0 2.1758 0.97656 2.1758 2.1758 0 1.2031-0.97656 2.1758-2.1758 2.1758-1.2031 0-2.1797-0.97266-2.1797-2.1758 0-1.1992 0.97656-2.1758 2.1797-2.1758zm11.969 0c1.2031 0 2.1758 0.97656 2.1758 2.1758 0 1.2031-0.97266 2.1758-2.1758 2.1758s-2.1758-0.97266-2.1758-2.1758c0-1.1992 0.97266-2.1758 2.1758-2.1758zm37 0c1.2031 0 2.1758 0.97656 2.1758 2.1758 0 1.2031-0.97266 2.1758-2.1758 2.1758s-2.1758-0.97266-2.1758-2.1758c0-1.1992 0.97266-2.1758 2.1758-2.1758zm11.969 0c1.2031 0 2.1797 0.97656 2.1797 2.1758 0 1.2031-0.97656 2.1758-2.1797 2.1758-1.1992 0-2.1758-0.97266-2.1758-2.1758 0-1.1992 0.97656-2.1758 2.1758-2.1758zm-45.703-11.969c1.1992 0 2.1758 0.97266 2.1758 2.1758 0 1.1992-0.97656 2.1758-2.1758 2.1758-1.2031 0-2.1758-0.97656-2.1758-2.1758 0-1.2031 0.97266-2.1758 2.1758-2.1758zm30.469 0c1.2031 0 2.1758 0.97266 2.1758 2.1758 0 1.1992-0.97266 2.1758-2.1758 2.1758s-2.1758-0.97656-2.1758-2.1758c0-1.2031 0.97266-2.1758 2.1758-2.1758zm-15.234-1.0898c1.2031 0 2.1758 0.97656 2.1758 2.1758 0 1.2031-0.97266 2.1758-2.1758 2.1758s-2.1758-0.97266-2.1758-2.1758c0-1.1992 0.97266-2.1758 2.1758-2.1758zm-23.941-7.6172c1.2031 0 2.1758 0.97266 2.1758 2.1758 0 1.2031-0.97266 2.1758-2.1758 2.1758s-2.1758-0.97266-2.1758-2.1758c0-1.2031 0.97266-2.1758 2.1758-2.1758zm47.883 0c1.2031 0 2.1758 0.97266 2.1758 2.1758 0 1.2031-0.97266 2.1758-2.1758 2.1758s-2.1758-0.97266-2.1758-2.1758c0-1.2031 0.97266-2.1758 2.1758-2.1758zm-23.941-4.3516c1.2031 0 2.1758 0.97266 2.1758 2.1758 0 1.1992-0.97266 2.1758-2.1758 2.1758s-2.1758-0.97656-2.1758-2.1758c0-1.2031 0.97266-2.1758 2.1758-2.1758z"/>
<text x="0.0" y="117.5" font-size="5.0" font-weight="bold" font-family="Arbeit Regular, Helvetica, Arial-Unicode, Arial, Sans-serif" fill="#000000">Created by pcymku</text><text x="0.0" y="122.5" font-size="5.0" font-weight="bold" font-family="Arbeit Regular, Helvetica, Arial-Unicode, Arial, Sans-serif" fill="#000000">from Noun Project</text></svg>