<?xml version="1.0" encoding="UTF-8" standalone="no"?>
<!DOCTYPE svg PUBLIC "-//W3C//DTD SVG 1.1//EN" "http://www.w3.org/Graphics/SVG/1.1/DTD/svg11.dtd">
<svg width="100%" height="100%" viewBox="0 0 300 300" version="1.1" xmlns="http://www.w3.org/2000/svg" xmlns:xlink="http://www.w3.org/1999/xlink" xml:space="preserve" xmlns:serif="http://www.serif.com/" style="fill-rule:evenodd;clip-rule:evenodd;stroke-linejoin:round;stroke-miterlimit:2;">
    <g transform="matrix(1,0,0,1,-42.481944,-2403.172646)">
        <g transform="matrix(0.920245,0,0,0.975162,-660.585541,451.873505)">
            <rect x="764" y="2001" width="326" height="307.641" style="fill-opacity:0;"/>
        </g>
        <g transform="matrix(3.425257,0,0,3.425257,21.237785,2393.835869)">
            <path d="M89.456,49.024C88.523,52.751 86.444,55.919 83.448,58.184C82.882,58.614 82.069,58.501 81.64,57.934C81.21,57.368 81.323,56.555 81.89,56.126C87.581,51.817 88.327,44.528 86.546,39.216C84.901,34.321 80.409,29.087 72.737,29.087C72.194,29.087 71.71,28.747 71.526,28.239C67.624,17.559 56.639,11.098 45.409,12.876C34.179,14.653 25.725,24.188 25.307,35.556C25.284,36.251 24.713,36.798 24.018,36.798C17.924,36.798 12.58,41.759 12.58,47.411C12.58,51.235 14.666,54.782 18.025,56.673C18.646,57.024 18.865,57.81 18.517,58.431C18.279,58.853 17.842,59.087 17.392,59.087C17.178,59.087 16.959,59.032 16.76,58.923C12.592,56.575 9.998,52.165 9.998,47.415C9.998,43.927 11.537,40.602 14.326,38.055C16.685,35.903 19.717,34.559 22.795,34.278C23.779,22.212 32.947,12.239 44.998,10.333C57.154,8.411 69.045,15.193 73.627,26.536C80.787,26.88 86.623,31.36 88.986,38.403C90.142,41.845 90.306,45.622 89.451,49.036L89.456,49.024Z" style="fill:rgb(65,149,66);fill-rule:nonzero;stroke:rgb(65,149,66);stroke-width:3.65px;"/>
        </g>
        <g transform="matrix(2.183964,0,0,2.183964,69.222419,2502.625513)">
            <path d="M27.707,42.643C26.137,41.073 25.4,39.8 23.82,40.5C23.23,40.76 22.69,41.14 22.23,41.59C21.78,42.04 21.4,42.58 21.14,43.18C20.44,44.76 21.422,45.497 22.992,47.067L39.75,65.86C40.68,66.79 41.91,67.26 43.14,67.26C44.37,67.26 45.6,66.79 46.53,65.86L89.306,20.558C90.926,18.938 92.5,17.84 91.78,16.2C91.51,15.59 91.12,15.03 90.65,14.56C90.18,14.09 89.62,13.7 89.01,13.43C87.37,12.71 86.282,13.993 84.652,15.613L42.91,59.882L27.707,42.643Z" style="fill:rgb(65,149,66);stroke:rgb(65,149,66);stroke-width:4.77px;"/>
        </g>
    </g>
</svg>
