<?xml version="1.0" encoding="UTF-8" standalone="no"?>
<!DOCTYPE svg PUBLIC "-//W3C//DTD SVG 1.1//EN" "http://www.w3.org/Graphics/SVG/1.1/DTD/svg11.dtd">
<svg width="100%" height="100%" viewBox="0 0 300 300" version="1.1" xmlns="http://www.w3.org/2000/svg" xmlns:xlink="http://www.w3.org/1999/xlink" xml:space="preserve" xmlns:serif="http://www.serif.com/" style="fill-rule:evenodd;clip-rule:evenodd;stroke-linejoin:round;stroke-miterlimit:2;">
    <g transform="matrix(1,0,0,1,-1732.481944,-2103.172646)">
        <g transform="matrix(0.920245,0,0,0.975162,1029.414459,151.873505)">
            <rect x="764" y="2001" width="326" height="307.641" style="fill-opacity:0;"/>
        </g>
        <g transform="matrix(3.450676,0,0,3.450676,1709.966978,2093.581451)">
            <path d="M89.456,49.024C88.523,52.751 86.444,55.919 83.448,58.184C82.882,58.614 82.069,58.501 81.64,57.934C81.21,57.368 81.323,56.555 81.89,56.126C87.581,51.817 88.327,44.528 86.546,39.216C84.901,34.321 80.409,29.087 72.737,29.087C72.194,29.087 71.71,28.747 71.526,28.239C67.624,17.559 56.639,11.098 45.409,12.876C34.179,14.653 25.725,24.188 25.307,35.556C25.284,36.251 24.713,36.798 24.018,36.798C17.924,36.798 12.58,41.759 12.58,47.411C12.58,51.235 14.666,54.782 18.025,56.673C18.646,57.024 18.865,57.81 18.517,58.431C18.279,58.853 17.842,59.087 17.392,59.087C17.178,59.087 16.959,59.032 16.76,58.923C12.592,56.575 9.998,52.165 9.998,47.415C9.998,43.927 11.537,40.602 14.326,38.055C16.685,35.903 19.717,34.559 22.795,34.278C23.779,22.212 32.947,12.239 44.998,10.333C57.154,8.411 69.045,15.193 73.627,26.536C80.787,26.88 86.623,31.36 88.986,38.403C90.142,41.845 90.306,45.622 89.451,49.036L89.456,49.024Z" style="fill-rule:nonzero;stroke:black;stroke-width:3.62px;"/>
        </g>
        <g transform="matrix(0.440798,0,0,0.440798,1063.435208,1196.841895)">
            <g transform="matrix(4.166667,0,0,4.166667,1637.61701,2261.867197)">
                <path d="M40.859,88.594C36.093,88.047 31.875,87.188 28.671,85.938C27.89,85.625 26.952,86.016 26.64,86.875C26.327,87.657 26.718,88.594 27.577,88.906C31.015,90.235 35.468,91.172 40.546,91.719L40.703,91.719C41.484,91.719 42.187,91.094 42.265,90.313C42.343,89.453 41.718,88.672 40.859,88.594L40.859,88.594Z" style="fill-rule:nonzero;"/>
            </g>
        </g>
        <g transform="matrix(0.440798,0,0,0.440798,1063.435208,1196.841895)">
            <g transform="matrix(4.166667,0,0,4.166667,1637.61701,2261.867197)">
                <path d="M59.297,91.719L59.453,91.719C64.531,91.172 68.984,90.235 72.422,88.906C73.203,88.594 73.672,87.735 73.36,86.875C73.047,86.094 72.188,85.625 71.329,85.938C68.125,87.11 63.907,88.047 59.141,88.594C58.281,88.672 57.656,89.453 57.734,90.313C57.812,91.094 58.516,91.719 59.297,91.719Z" style="fill-rule:nonzero;"/>
            </g>
        </g>
        <g transform="matrix(0.440798,0,0,0.440798,1063.435208,1196.841895)">
            <g transform="matrix(4.166667,0,0,4.166667,1637.61701,2261.867197)">
                <path d="M40.859,72.969C36.093,72.422 31.875,71.563 28.671,70.313C27.89,70 26.952,70.391 26.64,71.25C26.327,72.032 26.718,72.969 27.577,73.281C31.015,74.61 35.468,75.547 40.546,76.094L40.703,76.094C41.484,76.094 42.187,75.469 42.265,74.688C42.343,73.828 41.718,73.047 40.859,72.969L40.859,72.969Z" style="fill-rule:nonzero;"/>
            </g>
        </g>
        <g transform="matrix(0.440798,0,0,0.440798,1063.435208,1196.841895)">
            <g transform="matrix(4.166667,0,0,4.166667,1637.61701,2261.867197)">
                <path d="M59.297,76.094L59.453,76.094C64.531,75.547 68.984,74.61 72.422,73.281C73.203,72.969 73.672,72.11 73.36,71.25C73.047,70.469 72.188,70 71.329,70.313C68.125,71.485 63.907,72.422 59.141,72.969C58.281,73.047 57.656,73.828 57.734,74.688C57.812,75.469 58.516,76.094 59.297,76.094Z" style="fill-rule:nonzero;"/>
            </g>
        </g>
        <g transform="matrix(0.440798,0,0,0.440798,1063.435208,1196.841895)">
            <g transform="matrix(4.166667,0,0,4.166667,1637.61701,2261.867197)">
                <path d="M59.375,14.844C59.375,13.985 58.672,13.281 57.812,13.281C56.953,13.281 56.25,13.985 56.25,14.844L56.25,36.641C56.25,37.5 56.953,38.203 57.812,38.203C58.672,38.203 59.375,37.5 59.375,36.641L59.375,14.844Z" style="fill-rule:nonzero;"/>
            </g>
        </g>
        <g transform="matrix(0.440798,0,0,0.440798,1063.435208,1196.841895)">
            <g transform="matrix(4.166667,0,0,4.166667,1637.61701,2261.867197)">
                <path d="M43.75,36.641L43.75,14.844C43.75,13.985 43.047,13.281 42.188,13.281C41.328,13.281 40.625,13.985 40.625,14.844L40.625,36.641C40.625,37.5 41.328,38.203 42.188,38.203C43.047,38.203 43.75,37.5 43.75,36.641Z" style="fill-rule:nonzero;"/>
            </g>
        </g>
        <g transform="matrix(0.440798,0,0,0.440798,1063.435208,1196.841895)">
            <g transform="matrix(4.166667,0,0,4.166667,1637.61701,2261.867197)">
                <path d="M40.625,52.031C42.109,51.875 43.672,51.718 45.312,51.64L45.312,48.515C43.75,48.594 42.188,48.75 40.625,48.906L40.625,52.031Z" style="fill-rule:nonzero;"/>
            </g>
        </g>
        <g transform="matrix(0.440798,0,0,0.440798,1063.435208,1196.841895)">
            <g transform="matrix(4.166667,0,0,4.166667,1637.61701,2261.867197)">
                <path d="M59.375,48.906C57.812,48.75 56.25,48.593 54.688,48.515L54.688,51.64C56.328,51.719 57.891,51.875 59.375,52.031L59.375,48.906Z" style="fill-rule:nonzero;"/>
            </g>
        </g>
        <g transform="matrix(0.440798,0,0,0.440798,1063.435208,1196.841895)">
            <g transform="matrix(4.166667,0,0,4.166667,1637.61701,2261.867197)">
                <path d="M68.75,50.547L68.75,53.828C73.75,55.234 76.562,57.109 76.562,58.594C76.562,61.484 66.251,65.625 50.001,65.625C33.751,65.625 23.439,61.484 23.439,58.594C23.439,57.109 26.251,55.234 31.251,53.828L31.251,50.547C24.767,52.266 20.313,54.922 20.313,58.594L20.313,89.844C20.313,96.485 35.235,100 50.001,100C64.767,100 79.689,96.484 79.689,89.844L79.689,58.594C79.689,54.922 75.236,52.266 68.751,50.547L68.75,50.547ZM76.562,89.844C76.562,92.735 66.251,96.875 50.001,96.875C33.751,96.875 23.439,92.735 23.439,89.844L23.439,78.985C28.595,82.501 39.377,84.376 50.001,84.376C60.625,84.376 71.406,82.579 76.562,78.985L76.562,89.844ZM76.562,74.219C76.562,77.11 66.251,81.25 50.001,81.25C33.751,81.25 23.439,77.11 23.439,74.219L23.439,63.36C28.595,66.876 39.377,68.751 50.001,68.751C60.625,68.751 71.406,66.954 76.562,63.36L76.562,74.219Z" style="fill-rule:nonzero;"/>
            </g>
        </g>
        <g transform="matrix(0.440798,0,0,0.440798,1063.435208,1196.841895)">
            <g transform="matrix(4.166667,0,0,4.166667,1637.61701,2261.867197)">
                <path d="M35.938,58.594C36.797,58.594 37.501,57.891 37.501,57.032L37.501,42.891C37.501,42.344 37.266,41.875 36.797,41.562L28.125,35.781L28.125,19.297C30.391,18.594 32.032,16.563 32.032,14.063C32.032,11.016 29.61,8.594 26.563,8.594C23.516,8.594 21.094,11.016 21.094,14.063C21.094,16.563 22.735,18.594 25,19.297L25,36.641C25,37.188 25.235,37.657 25.703,37.969L34.375,43.751L34.375,57.032C34.375,57.891 35.078,58.594 35.938,58.594L35.938,58.594ZM24.219,14.063C24.219,12.735 25.235,11.719 26.563,11.719C27.891,11.719 28.907,12.735 28.907,14.063C28.907,15.391 27.891,16.407 26.563,16.407C25.235,16.407 24.219,15.391 24.219,14.063Z" style="fill-rule:nonzero;"/>
            </g>
        </g>
        <g transform="matrix(0.440798,0,0,0.440798,1063.435208,1196.841895)">
            <g transform="matrix(4.166667,0,0,4.166667,1637.61701,2261.867197)">
                <path d="M50,59.375C50.859,59.375 51.562,58.672 51.562,57.812L51.562,10.703C53.828,10 55.469,7.969 55.469,5.469C55.469,2.422 53.047,0 50,0C46.953,0 44.531,2.422 44.531,5.469C44.531,7.969 46.172,10 48.437,10.703L48.437,57.812C48.437,58.672 49.14,59.375 50,59.375L50,59.375ZM47.656,5.469C47.656,4.141 48.672,3.125 50,3.125C51.328,3.125 52.344,4.141 52.344,5.469C52.344,6.797 51.328,7.813 50,7.813C48.672,7.813 47.656,6.797 47.656,5.469Z" style="fill-rule:nonzero;"/>
            </g>
        </g>
        <g transform="matrix(0.440798,0,0,0.440798,1063.435208,1196.841895)">
            <g transform="matrix(4.166667,0,0,4.166667,1637.61701,2261.867197)">
                <path d="M63.203,41.562C62.734,41.874 62.5,42.343 62.5,42.89L62.5,57.031C62.5,57.89 63.203,58.594 64.062,58.594C64.922,58.594 65.625,57.89 65.625,57.031L65.625,43.75L74.297,37.969C74.766,37.656 75,37.188 75,36.641L75,19.297C77.266,18.594 78.906,16.562 78.906,14.062C78.906,11.015 76.484,8.594 73.437,8.594C70.39,8.594 67.969,11.015 67.969,14.062C67.969,16.562 69.609,18.594 71.875,19.297L71.875,35.781L63.203,41.562ZM71.094,14.062C71.094,12.734 72.109,11.718 73.437,11.718C74.766,11.718 75.781,12.734 75.781,14.062C75.781,15.39 74.766,16.406 73.437,16.406C72.109,16.406 71.094,15.39 71.094,14.062Z" style="fill-rule:nonzero;"/>
            </g>
        </g>
    </g>
</svg>
