<?xml version="1.0" encoding="UTF-8" standalone="no"?>
<!DOCTYPE svg PUBLIC "-//W3C//DTD SVG 1.1//EN" "http://www.w3.org/Graphics/SVG/1.1/DTD/svg11.dtd">
<svg width="100%" height="100%" viewBox="0 0 300 300" version="1.1" xmlns="http://www.w3.org/2000/svg" xmlns:xlink="http://www.w3.org/1999/xlink" xml:space="preserve" xmlns:serif="http://www.serif.com/" style="fill-rule:evenodd;clip-rule:evenodd;stroke-linejoin:round;stroke-miterlimit:12;">
    <g transform="matrix(1,0,0,1,-711.481944,-2103.172646)">
        <g transform="matrix(0.920245,0,0,0.975162,8.414459,151.873505)">
            <rect x="764" y="2001" width="326" height="307.641" style="fill-opacity:0;"/>
            <g transform="matrix(1.256144,0,0,1.264747,-108.337505,-292.909481)">
                <path d="M752,1948.189L784,1948.189L807,1894L825,1984L837,1948L861.482,1913L877,1947.811L898.608,1948" style="fill:none;stroke:black;stroke-width:9.76px;"/>
            </g>
        </g>
        <g transform="matrix(4.649288,0,0,4.736634,631.075349,1963.836742)">
            <path d="M77.273,47.305C77.988,47.305 78.562,46.727 78.562,46.016C78.562,45.305 77.984,44.727 77.273,44.727L70.292,44.727C69.761,43.207 68.32,42.114 66.628,42.098L66.628,34.078C66.628,33.364 66.05,32.789 65.339,32.789C64.628,32.789 64.05,33.367 64.05,34.078L64.05,42.098L60.48,42.098L60.48,34.078C60.48,33.364 59.902,32.789 59.191,32.789C58.48,32.789 57.902,33.367 57.902,34.078L57.902,42.098L54.331,42.098L54.331,34.078C54.331,33.364 53.753,32.789 53.042,32.789C52.331,32.789 51.753,33.367 51.753,34.078L51.753,42.098L48.183,42.098L48.183,34.078C48.183,33.364 47.605,32.789 46.894,32.789C46.183,32.789 45.605,33.367 45.605,34.078L45.605,42.098L42.034,42.098L42.034,34.078C42.034,33.364 41.456,32.789 40.745,32.789C40.034,32.789 39.456,33.367 39.456,34.078L39.456,42.098L35.886,42.098L35.886,34.078C35.886,33.364 35.308,32.789 34.597,32.789C33.886,32.789 33.308,33.367 33.308,34.078L33.308,42.098C31.612,42.114 30.175,43.207 29.644,44.727L22.663,44.727C21.948,44.727 21.374,45.305 21.374,46.016C21.374,46.727 21.952,47.305 22.663,47.305L29.425,47.305L29.425,50.875L22.663,50.875C21.948,50.875 21.374,51.453 21.374,52.164C21.374,52.875 21.952,53.453 22.663,53.453L29.425,53.453L29.425,57.024L22.663,57.024C21.948,57.024 21.374,57.602 21.374,58.313C21.374,59.024 21.952,59.602 22.663,59.602L29.425,59.602L29.425,63.172L22.663,63.172C21.948,63.172 21.374,63.75 21.374,64.461C21.374,65.172 21.952,65.751 22.663,65.751L29.425,65.751L29.425,69.321L22.663,69.321C21.948,69.321 21.374,69.899 21.374,70.61C21.374,71.321 21.952,71.899 22.663,71.899L29.425,71.899L29.425,75.469L22.663,75.469C21.948,75.469 21.374,76.047 21.374,76.758C21.374,77.469 21.952,78.048 22.663,78.048L29.644,78.048C30.175,79.567 31.616,80.661 33.308,80.673L33.308,88.692C33.308,89.407 33.886,89.981 34.597,89.981C35.308,89.981 35.886,89.403 35.886,88.692L35.886,80.673L39.456,80.673L39.456,88.692C39.456,89.407 40.034,89.981 40.745,89.981C41.456,89.981 42.034,89.403 42.034,88.692L42.034,80.673L45.605,80.673L45.605,88.692C45.605,89.407 46.183,89.981 46.894,89.981C47.605,89.981 48.183,89.403 48.183,88.692L48.183,80.673L51.753,80.673L51.753,88.692C51.753,89.407 52.331,89.981 53.042,89.981C53.753,89.981 54.331,89.403 54.331,88.692L54.331,80.673L57.902,80.673L57.902,88.692C57.902,89.407 58.48,89.981 59.191,89.981C59.902,89.981 60.48,89.403 60.48,88.692L60.48,80.673L64.05,80.673L64.05,88.692C64.05,89.407 64.628,89.981 65.339,89.981C66.05,89.981 66.628,89.403 66.628,88.692L66.628,80.673C68.324,80.657 69.761,79.563 70.292,78.048L77.273,78.048C77.988,78.048 78.562,77.469 78.562,76.758C78.562,76.047 77.984,75.469 77.273,75.469L70.511,75.469L70.511,71.899L77.273,71.899C77.988,71.899 78.562,71.321 78.562,70.61C78.562,69.899 77.984,69.321 77.273,69.321L70.511,69.321L70.511,65.751L77.273,65.751C77.988,65.751 78.562,65.172 78.562,64.461C78.562,63.75 77.984,63.172 77.273,63.172L70.511,63.172L70.511,59.602L77.273,59.602C77.988,59.602 78.562,59.024 78.562,58.313C78.562,57.602 77.984,57.024 77.273,57.024L70.511,57.024L70.511,53.454L77.273,53.454C77.988,53.454 78.562,52.875 78.562,52.164C78.562,51.453 77.984,50.875 77.273,50.875L70.511,50.875L70.511,47.305L77.273,47.305ZM67.933,76.774C67.933,77.512 67.332,78.11 66.597,78.11L33.324,78.11C32.586,78.11 31.988,77.508 31.988,76.774L31.988,46.012C31.988,45.274 32.59,44.676 33.324,44.676L66.597,44.676C67.336,44.676 67.933,45.278 67.933,46.012L67.933,76.774Z" style="fill-rule:nonzero;stroke:black;stroke-width:1.33px;stroke-miterlimit:2;"/>
        </g>
    </g>
</svg>
