<?xml version="1.0" encoding="UTF-8" standalone="no"?>
<!DOCTYPE svg PUBLIC "-//W3C//DTD SVG 1.1//EN" "http://www.w3.org/Graphics/SVG/1.1/DTD/svg11.dtd">
<svg width="100%" height="100%" viewBox="0 0 827 827" version="1.1" xmlns="http://www.w3.org/2000/svg" xmlns:xlink="http://www.w3.org/1999/xlink" xml:space="preserve" xmlns:serif="http://www.serif.com/" style="fill-rule:evenodd;clip-rule:evenodd;stroke-linejoin:round;stroke-miterlimit:2;">
    <g transform="matrix(1,0,0,1,-5414,-7318.16)">
        <g transform="matrix(0.959371,0,0,1.08238,2007.27,-602.9)">
            <rect x="3551" y="7318.16" width="861.785" height="763.843" style="fill:rgb(235,235,235);fill-opacity:0;"/>
        </g>
        <g transform="matrix(7.06823,0,0,7.06823,5473.91,7379.2)">
            <path d="M95.312,25C95.312,13.797 86.203,4.688 75,4.688C63.797,4.688 54.688,13.797 54.688,25C54.688,34.578 61.376,42.625 70.313,44.75L70.313,77.344C70.313,79.625 69.422,81.797 67.813,83.422C66.172,85.047 64.016,85.938 61.719,85.938C56.985,85.938 53.125,82.078 53.125,77.344L53.125,75C54.844,75 56.25,73.594 56.25,71.875L56.25,65.188C57.172,64.641 57.813,63.656 57.813,62.5L57.813,59.375C57.813,58.219 57.172,57.235 56.25,56.688L56.25,50C56.25,42.25 49.938,35.938 42.188,35.938L39.063,35.938L39.063,34.376C39.063,32.657 37.657,31.251 35.938,31.251L35.938,28.126L37.501,28.126C40.079,28.126 42.188,26.016 42.188,23.438C42.188,20.86 40.079,18.751 37.501,18.751L25.001,18.751C22.423,18.751 20.313,20.86 20.313,23.438C20.313,26.016 22.423,28.126 25.001,28.126L26.563,28.126L26.563,31.251C24.845,31.251 23.438,32.657 23.438,34.376L23.438,35.938L15.626,35.938C15.626,34.219 14.22,32.813 12.501,32.813L7.813,32.813C6.095,32.813 4.688,34.219 4.688,35.938L4.688,51.563C4.688,53.282 6.095,54.688 7.813,54.688L12.501,54.688C14.22,54.688 15.626,53.282 15.626,51.563L23.298,51.563C23.829,51.563 24.36,51.782 24.782,52.172C26.095,53.376 28.36,54.782 31.313,54.688C34.126,54.594 36.126,53.219 37.313,52.094C37.673,51.751 38.157,51.579 38.704,51.579L40.642,51.579L40.642,56.704C39.72,57.251 39.079,58.235 39.079,59.391L39.079,62.516C39.079,63.672 39.72,64.657 40.642,65.204L40.642,71.891C40.642,73.61 42.048,75.016 43.767,75.016L43.767,77.36C43.767,82.157 45.642,86.657 49.032,90.063C52.438,93.469 56.938,95.329 61.735,95.329C71.641,95.329 79.704,87.266 79.704,77.36L79.704,44.766C88.642,42.641 95.329,34.61 95.329,25.016L95.312,25ZM43.75,71.875L43.75,65.625L53.125,65.625L53.125,71.875L43.75,71.875ZM42.188,59.375L54.688,59.375L54.688,62.5L42.188,62.5L42.188,59.375ZM23.438,23.437C23.438,22.578 24.141,21.874 25,21.874L37.5,21.874C38.359,21.874 39.063,22.578 39.063,23.437C39.063,24.296 38.359,24.999 37.5,24.999L25,24.999C24.141,24.999 23.438,24.296 23.438,23.437ZM29.688,28.124L32.813,28.124L32.813,31.249L29.688,31.249L29.688,28.124ZM7.813,51.563L7.813,35.938L12.5,35.938L12.5,51.563L7.813,51.563ZM38.688,48.438C37.328,48.438 36.078,48.938 35.125,49.828C34.344,50.578 33.016,51.5 31.188,51.563C29.25,51.625 27.766,50.688 26.891,49.875C25.891,48.953 24.609,48.438 23.281,48.438L15.609,48.438L15.609,39.063L24.984,39.063C25.844,39.063 26.547,38.359 26.547,37.5L26.547,34.375L35.922,34.375L35.922,37.5C35.922,38.359 36.625,39.063 37.484,39.063L42.172,39.063C48.203,39.063 53.11,43.969 53.11,50.001L53.11,56.251L43.735,56.251L43.735,51.563C43.735,49.844 42.329,48.438 40.61,48.438L38.672,48.438L38.688,48.438ZM76.563,77.344C76.563,85.531 69.906,92.188 61.719,92.188C57.765,92.188 54.031,90.641 51.234,87.828C48.422,85.016 46.875,81.297 46.875,77.344L46.875,75L50,75L50,77.344C50,83.813 55.25,89.063 61.719,89.063C64.844,89.063 67.782,87.844 70.016,85.626C72.219,83.407 73.438,80.454 73.438,77.344L73.438,45.235C73.954,45.282 74.469,45.314 75,45.314C75.532,45.314 76.047,45.267 76.563,45.235L76.563,77.344ZM75,42.188C66.047,42.188 58.688,35.313 57.891,26.563L58.875,26.563C59.735,26.563 60.438,25.859 60.438,25C60.438,24.141 59.735,23.438 58.875,23.438L57.891,23.438C58.219,19.875 59.625,16.609 61.797,14.016L62.485,14.703C62.797,15.016 63.188,15.156 63.594,15.156C64,15.156 64.391,15 64.703,14.703C65.313,14.094 65.313,13.109 64.703,12.5L64.016,11.813C66.625,9.641 69.875,8.234 73.438,7.906L73.438,8.891C73.438,9.75 74.141,10.453 75,10.453C75.86,10.453 76.563,9.75 76.563,8.891L76.563,7.906C80.125,8.234 83.391,9.641 85.985,11.813L85.297,12.5C84.688,13.109 84.688,14.094 85.297,14.703C85.61,15.016 86,15.156 86.407,15.156C86.813,15.156 87.204,15 87.516,14.703L88.204,14.016C90.375,16.625 91.782,19.875 92.11,23.438L91.125,23.438C90.266,23.438 89.563,24.141 89.563,25C89.563,25.859 90.266,26.563 91.125,26.563L92.11,26.563C91.313,35.313 83.954,42.188 75.001,42.188L75,42.188ZM80.141,17.641L77,20.781C76.391,20.484 75.719,20.312 74.984,20.312C72.406,20.312 70.297,22.422 70.297,25C70.297,27.578 72.406,29.687 74.984,29.687C77.563,29.687 79.672,27.578 79.672,25C79.672,24.281 79.5,23.609 79.203,22.984L82.344,19.844C82.953,19.234 82.953,18.25 82.344,17.641C81.734,17.031 80.75,17.031 80.141,17.641L80.141,17.641ZM75,26.562C74.141,26.562 73.438,25.859 73.438,25C73.438,24.141 74.141,23.437 75,23.437C75.859,23.437 76.563,24.141 76.563,25C76.563,25.859 75.859,26.562 75,26.562ZM81.25,34.375C81.25,35.234 80.547,35.937 79.688,35.937L70.313,35.937C69.453,35.937 68.75,35.234 68.75,34.375C68.75,33.516 69.453,32.812 70.313,32.812L79.688,32.812C80.547,32.812 81.25,33.516 81.25,34.375Z" style="fill-rule:nonzero;"/>
        </g>
    </g>
</svg>
