<svg width="100" height="100" viewBox="0 0 100 100" fill="none" xmlns="http://www.w3.org/2000/svg">
<path d="M67.2 27.43H77.57C77.944 27.43 78.3026 27.2814 78.5671 27.017C78.8315 26.7526 78.98 26.3939 78.98 26.02C78.98 25.646 78.8315 25.2874 78.5671 25.023C78.3026 24.7585 77.944 24.61 77.57 24.61H67.2C66.8261 24.61 66.4674 24.7585 66.203 25.023C65.9386 25.2874 65.79 25.646 65.79 26.02C65.79 26.3939 65.9386 26.7526 66.203 27.017C66.4674 27.2814 66.8261 27.43 67.2 27.43Z" fill="#4469E4"/>
<path d="M50.0001 85.4C49.3754 85.4016 48.7511 85.3682 48.1301 85.3C44.6088 84.9033 41.3026 83.4054 38.6826 81.0195C36.0626 78.6337 34.2625 75.4818 33.5388 72.013C32.8151 68.5441 33.2048 64.9354 34.6523 61.701C36.0997 58.4666 38.5312 55.7716 41.6001 54V23.84C41.601 22.5919 41.8798 21.3597 42.4161 20.2327C42.9524 19.1057 43.7328 18.1122 44.7007 17.3242C45.6687 16.5363 46.7999 15.9737 48.0122 15.6772C49.2246 15.3807 50.4878 15.3577 51.7101 15.61C53.63 16.032 55.3449 17.1048 56.5642 18.6467C57.7834 20.1885 58.4321 22.1046 58.4001 24.07V54C61.6126 55.8479 64.1249 58.7051 65.5466 62.1277C66.9683 65.5503 67.2198 69.3466 66.2621 72.9268C65.3043 76.507 63.1909 79.6707 60.2502 81.9262C57.3095 84.1818 53.7062 85.403 50.0001 85.4ZM50.0001 19.93C48.9656 19.9353 47.9752 20.3492 47.2447 21.0817C46.5141 21.8141 46.1027 22.8056 46.1001 23.84V56.84L44.8001 57.44C42.2545 58.624 40.1892 60.6413 38.9456 63.1584C37.7021 65.6754 37.3547 68.5415 37.9611 71.2827C38.5674 74.0239 40.091 76.4762 42.2801 78.234C44.4692 79.9918 47.1926 80.9499 50.0001 80.9499C52.8076 80.9499 55.531 79.9918 57.7201 78.234C59.9091 76.4762 61.4328 74.0239 62.0391 71.2827C62.6454 68.5415 62.2981 65.6754 61.0545 63.1584C59.811 60.6413 57.7457 58.624 55.2001 57.44L53.9001 56.84V24.07C53.9266 23.1438 53.637 22.2362 53.079 21.4965C52.521 20.7568 51.7279 20.229 50.8301 20C50.5566 19.9479 50.2784 19.9244 50.0001 19.93Z" fill="#4469E4"/>
<path d="M50.01 72.41C52.6334 72.41 54.76 70.2833 54.76 67.66C54.76 65.0366 52.6334 62.91 50.01 62.91C47.3867 62.91 45.26 65.0366 45.26 67.66C45.26 70.2833 47.3867 72.41 50.01 72.41Z" fill="#4469E4"/>
<path d="M50 66C49.6685 66 49.3505 65.8683 49.1161 65.6339C48.8817 65.3995 48.75 65.0816 48.75 64.75V48.28C48.75 47.9485 48.8817 47.6306 49.1161 47.3961C49.3505 47.1617 49.6685 47.03 50 47.03C50.3315 47.03 50.6495 47.1617 50.8839 47.3961C51.1183 47.6306 51.25 47.9485 51.25 48.28V64.71C51.2554 64.8775 51.227 65.0444 51.1666 65.2007C51.1062 65.357 51.0149 65.4995 50.8983 65.6199C50.7817 65.7402 50.6421 65.8359 50.4878 65.9012C50.3335 65.9665 50.1676 66.0001 50 66Z" fill="#4469E4"/>
</svg>
