<svg width="100" height="100" viewBox="0 0 100 100" fill="none" xmlns="http://www.w3.org/2000/svg">
<path fill-rule="evenodd" clip-rule="evenodd" d="M87.5 36.88C87.5 28.43 75.79 21.2 59.23 18.26C68.16 21.93 73.76 27.19 73.76 33C73.76 44.06 53.76 53 28.99 53C23.4644 53.0334 17.9466 52.5817 12.5 51.65C20.5 54.92 31.08 56.91 42.74 56.91C53.61 56.91 63.58 55.18 71.33 52.29C71.3449 52.5565 71.3449 52.8236 71.33 53.09C71.33 61.39 56.33 68.09 37.76 68.09C33.6134 68.1038 29.4738 67.749 25.39 67.03C31.39 69.49 39.32 71.03 48.06 71.03C54.843 71.0894 61.5929 70.0769 68.06 68.03C68.0643 68.1166 68.0643 68.2034 68.06 68.29C68.06 74.52 56.79 79.56 42.88 79.56C39.7729 79.5679 36.671 79.3036 33.61 78.77C39.0375 80.8306 44.8051 81.8484 50.61 81.77C64.52 81.77 75.79 76.77 75.79 70.5C75.746 69.6004 75.5184 68.7194 75.1211 67.9111C74.7238 67.1028 74.1654 66.3844 73.48 65.8C78.54 63.17 81.61 59.8 81.61 56.01C81.61 53.56 80.28 51.26 77.96 49.22C84 45.79 87.5 41.52 87.5 36.88Z" fill="#83836F"/>
<path fill-rule="evenodd" clip-rule="evenodd" d="M33.69 48.34C34.2656 48.34 34.8282 48.1693 35.3068 47.8496C35.7853 47.5298 36.1583 47.0754 36.3785 46.5436C36.5988 46.0119 36.6564 45.4268 36.5441 44.8623C36.4318 44.2978 36.1547 43.7793 35.7477 43.3723C35.3408 42.9654 34.8222 42.6882 34.2578 42.5759C33.6933 42.4637 33.1082 42.5213 32.5764 42.7415C32.0447 42.9618 31.5902 43.3348 31.2705 43.8133C30.9507 44.2919 30.78 44.8545 30.78 45.43C30.7787 45.8125 30.8531 46.1915 30.9989 46.5452C31.1446 46.8988 31.3589 47.2202 31.6294 47.4906C31.8999 47.7611 32.2212 47.9754 32.5749 48.1212C32.9285 48.267 33.3075 48.3413 33.69 48.34Z" fill="#83836F"/>
<path fill-rule="evenodd" clip-rule="evenodd" d="M27.8099 28C28.3859 28 28.9489 27.8291 29.4277 27.5089C29.9064 27.1887 30.2794 26.7336 30.4994 26.2013C30.7193 25.669 30.7763 25.0833 30.6633 24.5186C30.5502 23.9538 30.272 23.4353 29.864 23.0288C29.4561 22.6222 28.9366 22.3458 28.3715 22.2347C27.8063 22.1235 27.2209 22.1826 26.6894 22.4044C26.1578 22.6262 25.704 23.0007 25.3855 23.4806C25.0669 23.9604 24.8979 24.524 24.8999 25.1C24.8999 25.4817 24.9753 25.8596 25.1216 26.2121C25.268 26.5646 25.4825 26.8847 25.7528 27.1541C26.0232 27.4236 26.3441 27.637 26.6971 27.7821C27.0501 27.9273 27.4282 28.0013 27.8099 28Z" fill="#83836F"/>
<path fill-rule="evenodd" clip-rule="evenodd" d="M58.2101 41.36C58.7865 41.362 59.3505 41.1928 59.8305 40.8738C60.3106 40.5548 60.6851 40.1004 60.9066 39.5683C61.1281 39.0361 61.1866 38.4502 61.0746 37.8848C60.9627 37.3194 60.6853 36.7999 60.2777 36.3924C59.8702 35.9848 59.3507 35.7074 58.7853 35.5955C58.2199 35.4835 57.634 35.542 57.1018 35.7635C56.5697 35.985 56.1153 36.3595 55.7963 36.8396C55.4773 37.3196 55.3081 37.8836 55.3101 38.46C55.3101 39.2291 55.6156 39.9668 56.1595 40.5106C56.7033 41.0545 57.4409 41.36 58.2101 41.36Z" fill="#83836F"/>
<path fill-rule="evenodd" clip-rule="evenodd" d="M51.87 28C52.4472 28.008 53.0137 27.8441 53.4975 27.5292C53.9813 27.2143 54.3605 26.7626 54.5869 26.2316C54.8133 25.7006 54.8766 25.1143 54.7689 24.5472C54.6612 23.9801 54.3872 23.4579 53.9819 23.0469C53.5766 22.6359 53.0582 22.3548 52.4926 22.2392C51.9271 22.1236 51.3399 22.1789 50.8058 22.3979C50.2718 22.6169 49.8149 22.9899 49.4934 23.4692C49.1718 23.9486 49.0001 24.5128 49 25.09C48.9973 25.8557 49.2976 26.5914 49.8352 27.1365C50.3729 27.6817 51.1044 27.9921 51.87 28Z" fill="#83836F"/>
<path fill-rule="evenodd" clip-rule="evenodd" d="M19.0799 39.62C19.6559 39.622 20.2195 39.453 20.6994 39.1344C21.1792 38.8159 21.5538 38.3621 21.7755 37.8305C21.9973 37.299 22.0564 36.7136 21.9452 36.1484C21.8341 35.5833 21.5577 35.0638 21.1511 34.6559C20.7446 34.2479 20.2261 33.9697 19.6613 33.8566C19.0966 33.7435 18.511 33.8006 17.9786 34.0205C17.4463 34.2405 16.9913 34.6135 16.6711 35.0922C16.3509 35.571 16.1799 36.134 16.1799 36.71C16.1799 37.48 16.4851 38.2187 17.0287 38.7641C17.5723 39.3096 18.3099 39.6173 19.0799 39.62Z" fill="#83836F"/>
<path fill-rule="evenodd" clip-rule="evenodd" d="M54.56 62.78C54.7804 62.2478 54.8379 61.6621 54.7252 61.0971C54.6124 60.5321 54.3345 60.0134 53.9267 59.6065C53.5189 59.1996 52.9994 58.9229 52.4342 58.8115C51.869 58.7001 51.2834 58.7589 50.7517 58.9806C50.22 59.2023 49.766 59.5768 49.4473 60.0567C49.1286 60.5366 48.9595 61.1003 48.9614 61.6764C48.9634 62.2525 49.1363 62.8151 49.4583 63.2928C49.7802 63.7705 50.2367 64.142 50.77 64.36C51.4822 64.6513 52.2809 64.6486 52.9912 64.3525C53.7014 64.0564 54.2655 63.491 54.56 62.78Z" fill="#83836F"/>
<path fill-rule="evenodd" clip-rule="evenodd" d="M36.37 62.78C36.5905 62.2478 36.648 61.6621 36.5352 61.0971C36.4225 60.5321 36.1446 60.0134 35.7368 59.6065C35.3289 59.1996 34.8095 58.9229 34.2443 58.8115C33.6791 58.7001 33.0935 58.7589 32.5617 58.9806C32.03 59.2023 31.576 59.5768 31.2573 60.0567C30.9386 60.5366 30.7695 61.1003 30.7715 61.6764C30.7735 62.2525 30.9464 62.8151 31.2683 63.2928C31.5903 63.7705 32.0468 64.142 32.58 64.36C32.9326 64.5056 33.3104 64.5802 33.6918 64.5796C34.0732 64.5789 34.4508 64.5031 34.8028 64.3563C35.1549 64.2095 35.4745 63.9948 35.7434 63.7243C36.0124 63.4538 36.2253 63.1329 36.37 62.78Z" fill="#83836F"/>
<path fill-rule="evenodd" clip-rule="evenodd" d="M43.9299 76.62C44.1477 76.0875 44.2027 75.5024 44.088 74.9386C43.9734 74.3749 43.6942 73.8577 43.2857 73.4526C42.8773 73.0474 42.3579 72.7724 41.7932 72.6623C41.2285 72.5523 40.6439 72.612 40.1132 72.8341C39.5824 73.0562 39.1295 73.4306 38.8114 73.91C38.4934 74.3894 38.3246 74.9523 38.3264 75.5277C38.3282 76.103 38.5005 76.6648 38.8215 77.1423C39.1425 77.6197 39.5978 77.9913 40.1299 78.21C40.4838 78.3555 40.8629 78.4298 41.2455 78.4286C41.6281 78.4274 42.0067 78.3507 42.3597 78.2031C42.7126 78.0554 43.033 77.8395 43.3024 77.5679C43.5719 77.2963 43.7851 76.9742 43.9299 76.62Z" fill="#83836F"/>
<path fill-rule="evenodd" clip-rule="evenodd" d="M42.4 37.29C42.9764 37.292 43.5404 37.1228 44.0205 36.8038C44.5006 36.4848 44.8751 36.0304 45.0966 35.4983C45.3181 34.9661 45.3765 34.3802 45.2646 33.8148C45.1526 33.2494 44.8753 32.7299 44.4677 32.3224C44.0601 31.9148 43.5407 31.6374 42.9753 31.5255C42.4098 31.4135 41.8239 31.472 41.2918 31.6935C40.7596 31.9149 40.3053 32.2895 39.9863 32.7696C39.6673 33.2496 39.498 33.8136 39.5 34.39C39.5 35.1591 39.8056 35.8968 40.3494 36.4406C40.8933 36.9845 41.6309 37.29 42.4 37.29Z" fill="#83836F"/>
</svg>
