<svg width="100" height="100" viewBox="0 0 100 100" fill="none" xmlns="http://www.w3.org/2000/svg">
<path d="M12.91 31L17 33.32C17.3449 33.5135 17.7345 33.6134 18.13 33.61C18.6403 33.6104 19.1363 33.4417 19.5406 33.1305C19.945 32.8192 20.2349 32.3828 20.3651 31.8894C20.4953 31.396 20.4585 30.8734 20.2603 30.4032C20.0622 29.9329 19.714 29.5415 19.27 29.29L15.18 27C14.9164 26.8154 14.6172 26.6879 14.3014 26.6256C13.9857 26.5634 13.6605 26.5678 13.3465 26.6386C13.0326 26.7094 12.737 26.845 12.4785 27.0367C12.22 27.2284 12.0045 27.472 11.8456 27.7519C11.6868 28.0318 11.5882 28.3417 11.5562 28.6619C11.5241 28.9821 11.5593 29.3055 11.6595 29.6113C11.7597 29.9171 11.9227 30.1986 12.1381 30.4377C12.3534 30.6769 12.6163 30.8684 12.91 31Z" fill="#ED6C3A"/>
<path d="M18.28 48.51C18.1143 47.9194 17.7214 47.4184 17.1873 47.1167C16.6532 46.815 16.0213 46.7371 15.43 46.9L10.88 48.18C10.3379 48.3264 9.86765 48.6653 9.55728 49.1333C9.24691 49.6013 9.11763 50.1663 9.19361 50.7226C9.26959 51.279 9.54563 51.7886 9.97011 52.1562C10.3946 52.5239 10.9384 52.7243 11.5 52.72C11.7098 52.7188 11.9184 52.6885 12.12 52.63L16.67 51.36C17.2606 51.1943 17.7615 50.8014 18.0633 50.2673C18.365 49.7332 18.4429 49.1014 18.28 48.51Z" fill="#ED6C3A"/>
<path d="M49 24.31C49.3482 24.5056 49.7406 24.6089 50.14 24.61C50.5483 24.6095 50.949 24.4998 51.3006 24.2923C51.6523 24.0848 51.9421 23.7871 52.14 23.43L54.46 19.31C54.6446 19.0464 54.7721 18.7472 54.8344 18.4315C54.8966 18.1157 54.8922 17.7905 54.8214 17.4766C54.7506 17.1626 54.615 16.867 54.4233 16.6085C54.2316 16.3501 53.988 16.1345 53.7081 15.9757C53.4282 15.8168 53.1183 15.7182 52.798 15.6862C52.4778 15.6541 52.1545 15.6893 51.8487 15.7895C51.5429 15.8898 51.2614 16.0527 51.0222 16.2681C50.7831 16.4834 50.5916 16.7463 50.46 17.04L48.13 21.16C47.8301 21.6936 47.7533 22.3242 47.9163 22.9142C48.0792 23.5042 48.4687 24.0059 49 24.31Z" fill="#ED6C3A"/>
<path d="M30.0001 20.81C30.1387 21.2952 30.4311 21.7222 30.8332 22.027C31.2353 22.3318 31.7255 22.4978 32.2301 22.5C32.44 22.4988 32.6486 22.4685 32.8501 22.41C33.4407 22.2443 33.9417 21.8514 34.2434 21.3173C34.5451 20.7832 34.6231 20.1514 34.4601 19.56L33.2201 15C33.1387 14.7072 33.0004 14.4332 32.8131 14.1938C32.6258 13.9544 32.3932 13.7543 32.1286 13.6047C31.8639 13.4552 31.5724 13.3593 31.2707 13.3225C30.969 13.2856 30.663 13.3086 30.3701 13.39C30.0773 13.4714 29.8033 13.6097 29.5639 13.797C29.3245 13.9843 29.1244 14.2169 28.9749 14.4816C28.8254 14.7462 28.7295 15.0377 28.6926 15.3394C28.6558 15.6411 28.6787 15.9472 28.7601 16.24L30.0001 20.81Z" fill="#ED6C3A"/>
<path fill-rule="evenodd" clip-rule="evenodd" d="M26.57 53.82C28.665 52.9344 29.8975 52.6621 32.2 52.58C29.7034 50.9539 27.9205 48.4372 27.2145 45.5426C26.5085 42.6479 26.9324 39.593 28.4 37C29.4511 35.1372 30.9912 33.5969 32.8539 32.5456C34.7166 31.4942 36.8312 30.9718 38.9692 31.0345C41.1071 31.0973 43.1874 31.743 44.9852 32.9019C46.7829 34.0607 48.23 35.6887 49.17 37.61C50.3271 36.2673 51.1111 35.6014 52.79 34.61C51.6491 32.6051 50.0971 30.8641 48.2359 29.5013C46.3747 28.1386 44.2464 27.1848 41.9905 26.7026C39.7347 26.2204 37.4024 26.2208 35.1467 26.7036C32.891 27.1864 30.7629 28.1408 28.9021 29.5041C27.0413 30.8675 25.4898 32.6089 24.3495 34.6141C23.2092 36.6194 22.5059 38.8431 22.2857 41.1393C22.0654 43.4356 22.3333 45.7524 23.0717 47.9379C23.81 50.1233 26.57 53.82 26.57 53.82Z" fill="#ED6C3A"/>
<path fill-rule="evenodd" clip-rule="evenodd" d="M85.7879 53.3256C85.07 55.6941 83.6304 57.7793 81.67 59.29C83.5131 62.0441 84.4017 65.3269 84.1994 68.6346C83.9971 71.9424 82.7152 75.0924 80.5502 77.6014C78.3852 80.1104 75.4568 81.8397 72.2143 82.5241C68.9718 83.2085 65.5943 82.8101 62.6 81.39C59.1794 83.8814 55.0568 85.2237 50.825 85.2237C46.5933 85.2237 42.4706 83.8814 39.05 81.39C37.2397 82.2095 35.2858 82.6643 33.2997 82.7286C31.3137 82.7929 29.3344 82.4654 27.4749 81.7648C25.6154 81.0642 23.9121 80.0042 22.4623 78.6453C21.0124 77.2864 19.8445 75.6553 19.025 73.845C18.2056 72.0347 17.7507 70.0808 17.6864 68.0947C17.6221 66.1087 17.9496 64.1294 18.6502 62.2699C19.3508 60.4104 20.4108 58.7071 21.7697 57.2573C23.1286 55.8074 26.57 53.82 26.57 53.82C28.665 52.9344 29.8975 52.6621 32.2 52.58H32.6C33.3839 52.579 34.1665 52.6426 34.94 52.77C35.066 52.608 35.2028 52.4568 35.3396 52.3056C35.4308 52.2048 35.522 52.104 35.61 52C35.4726 51.2882 35.4023 50.565 35.4 49.84C35.4079 46.6934 36.6607 43.6778 38.8848 41.4518C41.1089 39.2259 44.1234 37.9706 47.27 37.96C47.7682 37.9634 48.2658 37.9968 48.76 38.06C48.834 37.9689 48.9145 37.8843 48.9942 37.8006C49.0544 37.7373 49.114 37.6746 49.17 37.61C50.3271 36.2673 51.1111 35.6014 52.79 34.61C56.0067 32.6581 59.8211 31.9363 63.5286 32.5778C67.2361 33.2193 70.5862 35.1808 72.96 38.1C73.4643 38.0368 73.9718 38.0034 74.48 38C76.9549 38.0128 79.364 38.7982 81.3709 40.2466C83.3777 41.6949 84.8822 43.7339 85.674 46.0787C86.4659 48.4235 86.5057 50.9571 85.7879 53.3256ZM66.0691 38.3555C64.4733 37.4903 62.6852 37.0413 60.87 37.05C59.0638 37.0525 57.2869 37.5066 55.701 38.3712C54.1151 39.2357 52.7707 40.4832 51.79 42L50.84 43.46L49.18 43C47.3741 42.4969 45.4425 42.7274 43.8057 43.6413C42.1689 44.5552 40.9592 46.0786 40.44 47.88C44.648 45.3132 49.6556 44.3906 54.502 45.2894C59.3484 46.1882 63.6923 48.845 66.7 52.75C67.4869 52.6222 68.2828 52.5587 69.08 52.56C72.4666 52.5558 75.7549 53.6977 78.41 55.8C79.8123 54.8575 80.8343 53.4478 81.2939 51.8219C81.7535 50.1961 81.6208 48.4599 80.9195 46.9228C80.2182 45.3857 78.9938 44.1476 77.4647 43.4291C75.9355 42.7107 74.2009 42.5586 72.57 43L71 43.45L70 42C69.0168 40.4741 67.6648 39.2207 66.0691 38.3555ZM63.61 76.53C65.2526 77.5503 67.1464 78.0938 69.08 78.1L69.18 78.09C71.8811 78.0062 74.4436 76.8743 76.3246 74.934C78.2057 72.9937 79.2576 70.3974 79.2576 67.695C79.2576 64.9926 78.2057 62.3963 76.3246 60.456C74.4436 58.5157 71.8811 57.3838 69.18 57.3C68.2432 57.3033 67.3113 57.4345 66.41 57.69L64.74 58.15L63.74 56.7C62.3463 54.5559 60.4391 52.794 58.1915 51.5743C55.9439 50.3546 53.4272 49.7157 50.87 49.7157C48.3128 49.7157 45.7961 50.3546 43.5485 51.5743C41.3009 52.794 39.3937 54.5559 38 56.7L37.01 58.15L35.34 57.69C34.4474 57.4433 33.5261 57.3155 32.6 57.31C30.9908 57.3008 29.4015 57.6655 27.9574 58.3754C26.5132 59.0853 25.2537 60.1209 24.2781 61.4006C23.3024 62.6803 22.6374 64.1692 22.3354 65.7498C22.0334 67.3304 22.1026 68.9595 22.5377 70.5088C22.9727 72.0581 23.7617 73.4851 24.8424 74.6774C25.9231 75.8698 27.2659 76.7948 28.7651 77.3795C30.2643 77.9643 31.8788 78.1929 33.4814 78.0472C35.084 77.9015 36.6309 77.3855 38 76.54L39.5 75.61L40.81 76.74C43.5899 79.1379 47.1388 80.4571 50.81 80.4571C54.4812 80.4571 58.0302 79.1379 60.81 76.74L62.14 75.61L63.61 76.53Z" fill="#4469E4"/>
</svg>
