<svg width="100" height="100" viewBox="0 0 100 100" fill="none" xmlns="http://www.w3.org/2000/svg">
<path fill-rule="evenodd" clip-rule="evenodd" d="M72.3 53.05C70.9018 52.7515 69.1338 52.7642 67.9625 52.8201C67.9625 52.8201 68.1904 52.0485 68.26 51.54C68.3209 51.0946 68.3205 50.7663 68.3201 50.3897C68.32 50.3569 68.32 50.3237 68.32 50.29C68.3202 49.9059 68.26 49.14 68.26 49.14L68.1 48C67.6143 45.5286 66.3576 43.2748 64.5105 41.5624C62.6634 39.8501 60.321 38.7674 57.82 38.47C56.6042 38.3772 55.9643 38.3802 54.91 38.5C54.5698 38.0733 53.81 37.29 53.81 37.29L52.61 36.26C49.4102 33.6632 45.3115 32.4408 41.2121 32.8607C37.1127 33.2806 33.3469 35.3085 30.74 38.5C30.2462 38.4322 29.7484 38.3988 29.25 38.4C26.9172 38.3949 24.6347 39.0773 22.6876 40.362C20.7404 41.6466 19.2149 43.4764 18.3017 45.623C17.3884 47.7695 17.1279 50.1376 17.5527 52.4313C17.9774 54.7251 19.0686 56.8428 20.69 58.52C18.599 61.2016 17.4723 64.5095 17.4917 67.9099C17.5111 71.3104 18.6754 74.6051 20.7968 77.2627C22.9183 79.9203 25.8732 81.7858 29.1848 82.5582C32.4964 83.3306 35.9717 82.9648 39.05 81.52C42.4742 84.0027 46.5955 85.3395 50.825 85.3395C55.0545 85.3395 59.1758 84.0027 62.6 81.52C64.5286 82.4379 66.6296 82.9373 68.7649 82.9855C70.9002 83.0336 73.0216 82.6294 74.9896 81.7994C76.9576 80.9695 78.7278 79.7324 80.1837 78.1697C81.6397 76.6069 82.7485 74.7538 83.4373 72.732C84.1262 70.7103 84.3794 68.5657 84.1805 66.4391C83.9815 64.3125 83.3349 62.252 82.283 60.3931C81.2311 58.5342 79.7978 56.9189 78.0772 55.6533C76.3567 54.3878 74.3878 53.5006 72.3 53.05ZM32.8 43.87L31.13 43.41H31.16C29.6445 42.9829 28.0303 43.0694 26.5692 43.6561C25.1081 44.2428 23.8822 45.2966 23.0829 46.6531C22.2836 48.0096 21.9558 49.5926 22.1507 51.155C22.3455 52.7174 23.052 54.1713 24.16 55.29C26.6509 53.6031 29.5916 52.7042 32.6 52.71C33.3837 52.714 34.1659 52.7776 34.94 52.9C36.5851 50.7681 38.6417 48.9883 40.9877 47.6662C43.3338 46.3441 45.9214 45.5067 48.5972 45.2036C51.273 44.9004 53.9824 45.1378 56.5647 45.9016C59.147 46.6654 61.5496 47.9401 63.63 49.65C63.539 48.6086 63.2198 47.6 62.695 46.6959C62.1703 45.7918 61.4529 45.0143 60.5938 44.4187C59.7348 43.823 58.7551 43.4239 57.7243 43.2496C56.6936 43.0752 55.6371 43.13 54.63 43.41L52.96 43.87L51.96 42.42C50.9767 40.9074 49.631 39.6644 48.0453 38.8039C46.4596 37.9435 44.6841 37.4928 42.88 37.4928C41.0758 37.4928 39.3003 37.9435 37.7146 38.8039C36.1289 39.6644 34.7833 40.9074 33.8 42.42L32.8 43.87ZM78.0444 73.1298C78.9817 71.532 79.474 69.7124 79.47 67.86C79.4702 65.1198 78.3899 62.49 76.4635 60.5411C74.5371 58.5923 71.92 57.4816 69.18 57.45C68.2432 57.4533 67.3113 57.5845 66.41 57.84L64.74 58.3L63.74 56.85C62.3447 54.7081 60.4368 52.9483 58.1895 51.7302C55.9421 50.5121 53.4262 49.8741 50.87 49.8741C48.3137 49.8741 45.7978 50.5121 43.5505 51.7302C41.3031 52.9483 39.3953 54.7081 38 56.85L37 58.3L35.3 57.84C33.6349 57.378 31.8808 57.3381 30.1965 57.7241C28.5121 58.11 26.9504 58.9096 25.6526 60.0505C24.3548 61.1915 23.3617 62.6378 22.7631 64.2589C22.1645 65.8799 21.9793 67.6246 22.2242 69.3352C22.4691 71.0458 23.1364 72.6684 24.1657 74.0564C25.1951 75.4444 26.5541 76.554 28.1199 77.285C29.6857 78.016 31.409 78.3453 33.134 78.2432C34.859 78.141 36.5314 77.6107 38 76.7L39.5 75.77L40.81 76.9C43.5908 79.296 47.1394 80.6139 50.81 80.6139C54.4806 80.6139 58.0292 79.296 60.81 76.9L62.14 75.76L63.61 76.68C65.1815 77.6607 66.987 78.2025 68.8388 78.2492C70.6906 78.2958 72.5211 77.8456 74.14 76.9453C75.7589 76.045 77.1071 74.7275 78.0444 73.1298Z" fill="#4469E4"/>
<path fill-rule="evenodd" clip-rule="evenodd" d="M87.7245 38.1188C88.1553 38.2269 88.5459 38.4564 88.8501 38.78C89.1501 39.1055 89.3516 39.5094 89.4313 39.9448C89.5109 40.3803 89.4655 40.8294 89.3001 41.24C87.9042 44.6363 85.5576 47.5573 82.5419 49.6523C79.5263 51.7473 75.97 52.9271 72.3001 53.05C70.9019 52.7515 69.1339 52.7642 67.9626 52.8201C67.9626 52.8201 68.1905 52.0485 68.2601 51.54C68.321 51.0946 68.3206 50.7663 68.3202 50.3897C68.3201 50.3569 68.3201 50.3237 68.3201 50.29C68.3203 49.9059 68.2601 49.14 68.2601 49.14L68.1001 48C69.2431 48.2996 70.4186 48.4574 71.6001 48.47C73.6539 48.4768 75.6855 48.0459 77.5598 47.2062C79.4341 46.3665 81.108 45.1371 82.4701 43.6H81.6101C76.3773 43.5921 71.3615 41.5077 67.6641 37.8048C63.9668 34.1018 61.8901 29.0828 61.8901 23.85V23.13C59.7909 25.0124 58.2874 27.467 57.5644 30.1922C56.8413 32.9175 56.9302 35.7946 57.8201 38.47C56.6044 38.3772 55.9645 38.3802 54.9101 38.5C54.5699 38.0733 53.8101 37.29 53.8101 37.29L52.6101 36.26C52.5147 35.5104 52.4646 34.7557 52.4601 34C52.4461 30.2244 53.5508 26.5292 55.6349 23.3808C57.719 20.2325 60.689 17.772 64.1701 16.31C64.5795 16.137 65.0301 16.0858 65.4679 16.1625C65.9057 16.2392 66.3121 16.4406 66.6383 16.7426C66.9645 17.0445 67.1967 17.4341 67.3069 17.8646C67.4172 18.2952 67.401 18.7485 67.2601 19.17C66.3837 21.8314 66.2661 24.6843 66.9206 27.4088C67.575 30.1332 68.9755 32.6215 70.9651 34.5945C72.9547 36.5674 75.4546 37.947 78.1845 38.5786C80.9143 39.2102 83.7662 39.0687 86.4201 38.17C86.841 38.0284 87.2938 38.0107 87.7245 38.1188Z" fill="#EAB359"/>
</svg>
