<svg width="100" height="100" viewBox="0 0 100 100" fill="none" xmlns="http://www.w3.org/2000/svg">
<path d="M87.9101 39.48C87.9048 36.0179 86.5271 32.6991 84.079 30.251C81.631 27.803 78.3122 26.4253 74.8501 26.42C74.5001 26.42 74.1501 26.42 73.8501 26.42C72.1692 24.3223 70.0384 22.6291 67.6151 21.4656C65.1919 20.3021 62.5382 19.698 59.8501 19.698C57.162 19.698 54.5082 20.3021 52.085 21.4656C49.6618 22.6291 47.531 24.3223 45.8501 26.42C45.5001 26.42 45.1501 26.42 44.7901 26.42C41.3376 26.4385 38.0326 27.8223 35.5969 30.2692C33.1612 32.7162 31.7927 36.0274 31.7901 39.48C31.8024 40.2182 31.876 40.954 32.0101 41.68C31.9301 41.78 31.8301 41.88 31.7601 41.98C30.9943 41.877 30.2227 41.8235 29.4501 41.82C27.2617 41.766 25.0845 42.1503 23.0469 42.9505C21.0093 43.7506 19.1524 44.9503 17.5855 46.479C16.0186 48.0077 14.7734 49.8345 13.9232 51.8517C13.073 53.869 12.635 56.0359 12.635 58.225C12.635 60.4141 13.073 62.581 13.9232 64.5983C14.7734 66.6155 16.0186 68.4423 17.5855 69.971C19.1524 71.4997 21.0093 72.6994 23.0469 73.4995C25.0845 74.2997 27.2617 74.684 29.4501 74.63C31.436 74.6331 33.4055 74.2704 35.2601 73.56C39.4848 77.2719 44.9163 79.3191 50.5401 79.3191C56.1639 79.3191 61.5953 77.2719 65.8201 73.56C67.6744 74.2713 69.644 74.6341 71.6301 74.63C75.9797 74.6273 80.1506 72.899 83.2272 69.8242C86.3038 66.7495 88.0348 62.5797 88.0401 58.23C88.0396 54.6015 86.8173 51.0789 84.5701 48.23C86.7319 45.8296 87.9225 42.7103 87.9101 39.48ZM71.5001 70C69.0885 69.9959 66.7374 69.2448 64.7701 67.85C63.03 69.9883 60.8345 71.7111 58.3438 72.8928C55.8531 74.0745 53.13 74.6852 50.3732 74.6805C47.6163 74.6757 44.8954 74.0555 42.4088 72.8651C39.9222 71.6748 37.7327 69.9443 36.0001 67.8C34.3357 68.9703 32.3952 69.6867 30.3697 69.8787C28.3442 70.0707 26.3036 69.7317 24.449 68.895C22.5944 68.0583 20.9898 66.7528 19.7933 65.1072C18.5969 63.4616 17.8498 61.5326 17.6258 59.5104C17.4018 57.4882 17.7085 55.4425 18.5157 53.5749C19.323 51.7073 20.6029 50.0822 22.2294 48.8599C23.8559 47.6375 25.7728 46.8601 27.7912 46.6041C29.8096 46.3481 31.8599 46.6224 33.7401 47.4C33.8201 47.24 33.9201 47.1 34.0001 46.95C34.8095 45.4536 35.8188 44.0743 37.0001 42.85C38.721 41.0437 40.7906 39.6055 43.0836 38.6223C45.3766 37.6391 47.8452 37.1314 50.3401 37.13C53.7952 37.1337 57.1815 38.0955 60.1227 39.9086C63.0639 41.7216 65.4445 44.3149 67.0001 47.4C67.8439 47.0655 68.7228 46.8273 69.6201 46.69L71.4601 46.51C74.575 46.5047 77.5645 47.737 79.7709 49.9359C81.9773 52.1348 83.2198 55.12 83.2251 58.235C83.2304 61.35 81.998 64.3395 79.7992 66.5458C77.6003 68.7522 74.615 69.9947 71.5001 70ZM81.1101 45C78.3248 42.9493 74.9588 41.839 71.5001 41.83C70.7274 41.8332 69.9558 41.8866 69.1901 41.99C65.5654 37.0227 60.1177 33.6967 54.043 32.7424C47.9684 31.7881 41.7632 33.2834 36.7901 36.9C37.3307 35.2237 38.3882 33.7616 39.811 32.7232C41.2337 31.6849 42.9487 31.1237 44.7101 31.12C45.8048 31.1152 46.8894 31.3294 47.9001 31.75C49.0052 29.5461 50.7017 27.6931 52.7997 26.3981C54.8977 25.1031 57.3146 24.4173 59.7801 24.4173C62.2456 24.4173 64.6624 25.1031 66.7604 26.3981C68.8585 27.6931 70.5549 29.5461 71.6601 31.75C73.4049 31.0259 75.3437 30.9149 77.1597 31.4351C78.9758 31.9552 80.5618 33.0758 81.6587 34.6138C82.7556 36.1518 83.2986 38.0163 83.199 39.9028C83.0993 41.7892 82.3629 43.5861 81.1101 45Z" fill="#4469E4"/>
</svg>
