<svg width="100" height="100" viewBox="0 0 100 100" fill="none" xmlns="http://www.w3.org/2000/svg">
<path fill-rule="evenodd" clip-rule="evenodd" d="M71.5999 35.46C70.8268 35.4619 70.0549 35.5187 69.2899 35.63C67.1318 32.6732 64.3061 30.2677 61.0427 28.6094C57.7793 26.9511 54.1705 26.0867 50.5099 26.0867C46.8493 26.0867 43.2404 26.9511 39.977 28.6094C36.7136 30.2677 33.8879 32.6732 31.7299 35.63C29.2529 35.2767 26.7278 35.4949 24.3481 36.2679C21.9684 37.0408 19.7971 38.348 18.0004 40.0894C16.2038 41.8308 14.8294 43.9602 13.9825 46.3146C13.1355 48.669 12.8386 51.186 13.1143 53.6728C13.39 56.1597 14.231 58.5505 15.5731 60.6622C16.9151 62.7739 18.7226 64.5506 20.8571 65.8561C22.9915 67.1617 25.3964 67.9616 27.8877 68.1945C30.3789 68.4274 32.8904 68.0872 35.2299 67.2C39.452 70.9132 44.8822 72.9613 50.5049 72.9613C56.1276 72.9613 61.5577 70.9132 65.7799 67.2C67.6379 67.9103 69.6107 68.273 71.5999 68.27C73.7883 68.324 75.9654 67.9397 78.003 67.1395C80.0406 66.3394 81.8976 65.1397 83.4645 63.611C85.0314 62.0823 86.2766 60.2555 87.1268 58.2383C87.977 56.221 88.4149 54.0541 88.4149 51.865C88.4149 49.6759 87.977 47.509 87.1268 45.4917C86.2766 43.4745 85.0314 41.6477 83.4645 40.119C81.8976 38.5903 80.0406 37.3906 78.003 36.5905C75.9654 35.7903 73.7883 35.406 71.5999 35.46ZM71.5999 63.59C69.1883 63.5859 66.8372 62.8348 64.8699 61.44C63.1342 63.574 60.9448 65.2943 58.4608 66.4759C55.9767 67.6574 53.2606 68.2705 50.5099 68.2705C47.7592 68.2705 45.043 67.6574 42.559 66.4759C40.075 65.2943 37.8855 63.574 36.1499 61.44C34.6443 62.4984 32.9104 63.1869 31.0888 63.4499C29.2673 63.7128 27.4095 63.5427 25.666 62.9534C23.9225 62.364 22.3425 61.372 21.054 60.0579C19.7656 58.7437 18.8051 57.1443 18.2504 55.3895C17.6957 53.6347 17.5624 51.7738 17.8613 49.9579C18.1603 48.1419 18.883 46.422 19.971 44.9376C21.059 43.4532 22.4815 42.2462 24.1232 41.4143C25.7648 40.5825 27.5795 40.1494 29.4199 40.15C30.9475 40.1495 32.46 40.452 33.8699 41.04C35.4176 37.9542 37.7931 35.3597 40.7308 33.5465C43.6685 31.7334 47.0527 30.7732 50.5049 30.7732C53.9571 30.7732 57.3412 31.7334 60.279 33.5465C63.2167 35.3597 65.5922 37.9542 67.1399 41.04C68.7418 40.3774 70.4708 40.0783 72.2022 40.1645C73.9336 40.2507 75.6244 40.7198 77.1526 41.5382C78.6808 42.3566 80.0085 43.5038 81.0399 44.8972C82.0712 46.2906 82.7807 47.8954 83.117 49.5961C83.4534 51.2967 83.4083 53.0507 82.985 54.7318C82.5617 56.4129 81.7707 57.9792 80.6691 59.3177C79.5675 60.6562 78.1826 61.7337 76.6143 62.4725C75.0461 63.2113 73.3334 63.5929 71.5999 63.59Z" fill="#4469E4"/>
</svg>
