<svg width="100" height="100" viewBox="0 0 100 100" fill="none" xmlns="http://www.w3.org/2000/svg">
<path fill-rule="evenodd" clip-rule="evenodd" d="M45.71 81.73C45.71 83.0561 46.2367 84.3279 47.1744 85.2655C48.1121 86.2032 49.3839 86.73 50.71 86.73C52.036 86.73 53.3078 86.2032 54.2455 85.2655C55.1832 84.3279 55.71 83.0561 55.71 81.73C55.71 78.97 50.71 71.73 50.71 71.73C50.71 71.73 45.71 79 45.71 81.73Z" fill="#4469E4"/>
<path d="M69.49 44.6128C70.255 44.5015 71.0269 44.4447 71.8 44.4428C76.1522 44.4428 80.3261 46.1717 83.4036 49.2491C86.481 52.3266 88.21 56.5006 88.21 60.8528C88.21 65.205 86.481 69.3789 83.4036 72.4564C80.3261 75.5339 76.1522 77.2628 71.8 77.2628C69.8133 77.2634 67.8437 76.8973 65.99 76.1828C64.6492 77.3608 63.1869 78.3711 61.6355 79.2015L59.5131 75.0393C61.6516 73.8831 63.5442 72.3152 65.08 70.4228C67.043 71.8186 69.3913 72.5699 71.8 72.5728C73.5335 72.5757 75.2461 72.194 76.8144 71.4553C78.3827 70.7165 79.7675 69.639 80.8692 68.3005C81.9708 66.9619 82.7617 65.3957 83.1851 63.7146C83.6084 62.0335 83.6535 60.2794 83.3171 58.5788C82.9807 56.8782 82.2713 55.2734 81.2399 53.88C80.2086 52.4866 78.8809 51.3394 77.3527 50.521C75.8245 49.7026 74.1337 49.2334 72.4023 49.1473C70.6709 49.0611 68.9419 49.3601 67.34 50.0228C65.7897 46.94 63.4132 44.3486 60.4758 42.5379C57.5384 40.7271 54.1556 39.7682 50.705 39.7682C47.2543 39.7682 43.8715 40.7271 40.9341 42.5379C37.9967 44.3486 35.6203 46.94 34.07 50.0228C32.6601 49.4347 31.1476 49.1322 29.62 49.1328C27.7796 49.1321 25.9649 49.5653 24.3232 50.3971C22.6815 51.2289 21.259 52.436 20.1711 53.9204C19.0831 55.4048 18.3604 57.1247 18.0614 58.9407C17.7625 60.7566 17.8958 62.6175 18.4505 64.3723C19.0052 66.1271 19.9657 67.7265 21.2541 69.0406C22.5425 70.3548 24.1226 71.3468 25.866 71.9361C27.6095 72.5255 29.4674 72.6956 31.2889 72.4326C33.1104 72.1697 34.8443 71.4811 36.35 70.4228C37.9375 72.379 39.9063 73.9885 42.1339 75.1548L39.8701 79.2472C38.2868 78.4082 36.7954 77.3824 35.43 76.1828C33.576 76.8964 31.6065 77.2625 29.62 77.2628C25.2678 77.2628 21.0938 75.5339 18.0163 72.4564C14.9389 69.3789 13.21 65.205 13.21 60.8528C13.21 56.5006 14.9389 52.3266 18.0163 49.2491C21.0938 46.1717 25.2678 44.4428 29.62 44.4428C30.393 44.4443 31.165 44.5011 31.93 44.6128C34.088 41.656 36.9137 39.2505 40.1771 37.5922C43.4405 35.9338 47.0494 35.0695 50.71 35.0695C54.3705 35.0695 57.9794 35.9338 61.2428 37.5922C64.5062 39.2505 67.3319 41.656 69.49 44.6128Z" fill="#4469E4"/>
<path d="M50.7061 35.0713C54.3667 35.0713 57.9756 35.9356 61.239 37.5939C64.5024 39.2523 67.3281 41.6577 69.4861 44.6145C70.2511 44.5032 71.0231 44.4464 71.7961 44.4445C73.5844 44.4445 75.3426 44.7364 77.007 45.2938C77.7166 44.7941 78.3882 44.2425 79.0163 43.6434C80.9789 41.6669 82.4724 39.2747 83.3863 36.6434C83.5389 36.2247 83.5688 35.7711 83.4725 35.336C83.3762 34.9009 83.1576 34.5023 82.8425 34.1872C82.5273 33.8721 82.1288 33.6535 81.6936 33.5572C81.2585 33.4608 80.8049 33.4908 80.3863 33.6434C77.8911 34.5311 75.1954 34.6928 72.612 34.1098C70.0287 33.5269 67.6637 32.2231 65.7915 30.35C63.9194 28.4768 62.617 26.111 62.0355 23.5274C61.454 20.9437 61.6172 18.2481 62.5063 15.7534C62.6545 15.335 62.6813 14.8831 62.5834 14.4501C62.4854 14.0171 62.2669 13.6207 61.9529 13.3067C61.639 12.9928 61.2426 12.7742 60.8096 12.6763C60.3766 12.5784 59.9247 12.6051 59.5063 12.7534C55.0363 14.2882 51.3233 17.4756 49.129 21.6614C46.9348 25.8472 46.4257 30.7141 47.7063 35.2634L50.7061 35.0713Z" fill="#EAB359"/>
</svg>
