<svg width="100" height="100" viewBox="0 0 100 100" fill="none" xmlns="http://www.w3.org/2000/svg">
<path fill-rule="evenodd" clip-rule="evenodd" d="M44.78 84.47C44.78 85.7961 45.3068 87.0678 46.2445 88.0055C47.1822 88.9432 48.4539 89.47 49.78 89.47C51.1061 89.47 52.3779 88.9432 53.3156 88.0055C54.2532 87.0678 54.78 85.7961 54.78 84.47C54.78 81.7 49.78 74.47 49.78 74.47C49.78 74.47 44.78 81.7 44.78 84.47Z" fill="#4469E4"/>
<path d="M42.7761 19.12C43.0851 19.1161 43.3903 19.051 43.674 18.9286C43.9577 18.8061 44.2144 18.6286 44.4291 18.4064C44.6439 18.1842 44.8125 17.9217 44.9253 17.6339C45.038 17.3462 45.0927 17.039 45.0861 16.73V12.09C45.0861 11.4694 44.8395 10.8742 44.4007 10.4354C43.9618 9.99653 43.3667 9.75 42.7461 9.75C42.1254 9.75 41.5303 9.99653 41.0914 10.4354C40.6526 10.8742 40.4061 11.4694 40.4061 12.09V16.73C40.3993 17.044 40.4559 17.3562 40.5723 17.6479C40.6888 17.9396 40.8628 18.2048 41.084 18.4279C41.3051 18.6509 41.5689 18.8271 41.8596 18.946C42.1503 19.0649 42.462 19.1241 42.7761 19.12Z" fill="#ED6C3A"/>
<path d="M60.9762 25.29L64.2862 21.98C64.7265 21.5411 64.9743 20.9452 64.9753 20.3235C64.9762 19.7019 64.7302 19.1053 64.2912 18.665C63.8523 18.2248 63.2564 17.9769 62.6348 17.976C62.0131 17.975 61.4165 18.2211 60.9762 18.66L57.6562 21.98C57.2173 22.4203 56.9712 23.0169 56.9722 23.6385C56.9731 24.2602 57.221 24.8561 57.6612 25.295C58.1015 25.7339 58.6981 25.98 59.3198 25.9791C59.9414 25.9781 60.5373 25.7303 60.9762 25.29Z" fill="#ED6C3A"/>
<path d="M14.6162 42.56H19.3062C19.627 42.581 19.9488 42.5359 20.2515 42.4275C20.5542 42.3192 20.8314 42.1498 21.0661 41.93C21.3007 41.7102 21.4877 41.4446 21.6156 41.1496C21.7435 40.8546 21.8094 40.5365 21.8094 40.215C21.8094 39.8935 21.7435 39.5754 21.6156 39.2804C21.4877 38.9854 21.3007 38.7198 21.0661 38.5C20.8314 38.2802 20.5542 38.1109 20.2515 38.0025C19.9488 37.8942 19.627 37.8491 19.3062 37.87H14.6162C14.0208 37.9089 13.4624 38.1729 13.0544 38.6084C12.6464 39.0439 12.4194 39.6183 12.4194 40.215C12.4194 40.8118 12.6464 41.3861 13.0544 41.8216C13.4624 42.2571 14.0208 42.5211 14.6162 42.56Z" fill="#ED6C3A"/>
<path d="M63.8362 40.21C63.8362 40.8333 64.0838 41.431 64.5245 41.8717C64.9652 42.3124 65.5629 42.56 66.1862 42.56H70.8662C71.187 42.581 71.5087 42.5359 71.8114 42.4275C72.1141 42.3192 72.3914 42.1498 72.626 41.93C72.8607 41.7102 73.0477 41.4446 73.1756 41.1496C73.3034 40.8546 73.3694 40.5365 73.3694 40.215C73.3694 39.8935 73.3034 39.5754 73.1756 39.2804C73.0477 38.9854 72.8607 38.7198 72.626 38.5C72.3914 38.2802 72.1141 38.1109 71.8114 38.0025C71.5087 37.8942 71.187 37.8491 70.8662 37.87H66.1862C65.5647 37.87 64.9684 38.1162 64.528 38.5548C64.0876 38.9933 63.8388 39.5885 63.8362 40.21Z" fill="#ED6C3A"/>
<path d="M24.5161 25.29C24.955 25.7289 25.5503 25.9755 26.1711 25.9755C26.7918 25.9755 27.3871 25.7289 27.8261 25.29C28.265 24.8511 28.5116 24.2557 28.5116 23.635C28.5116 23.0143 28.265 22.4189 27.8261 21.98L24.5161 18.66C24.3019 18.4255 24.0425 18.2369 23.7534 18.1055C23.4643 17.9741 23.1515 17.9026 22.8341 17.8954C22.5166 17.8883 22.201 17.9455 21.9062 18.0637C21.6115 18.1819 21.3438 18.3586 21.1192 18.5831C20.8947 18.8077 20.718 19.0754 20.5998 19.3701C20.4816 19.6649 20.4243 19.9805 20.4315 20.298C20.4387 20.6155 20.5101 20.9282 20.6416 21.2173C20.773 21.5064 20.9616 21.7658 21.1961 21.98L24.5161 25.29Z" fill="#ED6C3A"/>
<path d="M59.1154 39.8216C59.059 35.4887 57.289 31.3537 54.1916 28.3218C51.0851 25.2809 46.8978 23.5986 42.5509 23.645C38.204 23.6914 34.0536 25.4627 31.0127 28.5693C27.9718 31.6758 26.2895 35.8631 26.3359 40.21C26.3486 42.6535 26.9169 45.0619 27.9976 47.2529C28.2278 47.2432 28.4586 47.2383 28.6899 47.2383C29.463 47.2398 30.235 47.2966 30.9999 47.4083C31.4463 46.7967 31.9213 46.2086 32.4228 45.6459C31.5193 43.9757 31.0396 42.1091 31.0259 40.21C31.0253 37.2689 32.1323 34.4355 34.1267 32.2738C36.121 30.1122 38.8563 28.7809 41.7879 28.5452C44.7195 28.3094 47.6324 29.1863 49.9466 31.0014C52.2508 32.8088 53.7932 35.4142 54.2698 38.3027C55.9325 38.6299 57.5576 39.1386 59.1154 39.8216Z" fill="#ED6C3A"/>
<path d="M68.56 47.4083C69.325 47.297 70.097 47.2402 70.87 47.2383C75.2222 47.2383 79.3962 48.9672 82.4736 52.0447C85.5511 55.1222 87.28 59.2961 87.28 63.6483C87.28 68.0005 85.5511 72.1744 82.4736 75.2519C79.3962 78.3294 75.2222 80.0583 70.87 80.0583C68.8834 80.0589 66.9137 79.6928 65.06 78.9783C63.7193 80.1563 62.257 81.1666 60.7056 81.9971L58.5832 77.8348C60.7217 76.6787 62.6143 75.1108 64.15 73.2183C66.1131 74.6141 68.4613 75.3654 70.87 75.3683C72.6036 75.3712 74.3162 74.9896 75.8845 74.2508C77.4528 73.512 78.8376 72.4345 79.9392 71.096C81.0408 69.7575 81.8318 68.1912 82.2551 66.5101C82.6784 64.829 82.7235 63.075 82.3872 61.3744C82.0508 59.6737 81.3414 58.0689 80.31 56.6755C79.2786 55.2822 77.951 54.1349 76.4228 53.3165C74.8945 52.4981 73.2038 52.029 71.4724 51.9428C69.7409 51.8566 68.012 52.1557 66.41 52.8183C64.8597 49.7355 62.4833 47.1441 59.5459 45.3334C56.6085 43.5227 53.2257 42.5638 49.775 42.5638C46.3244 42.5638 42.9416 43.5227 40.0042 45.3334C37.0668 47.1441 34.6903 49.7355 33.14 52.8183C31.7301 52.2303 30.2176 51.9278 28.69 51.9283C26.8496 51.9277 25.035 52.3608 23.3933 53.1926C21.7516 54.0245 20.3291 55.2315 19.2411 56.7159C18.1532 58.2003 17.4304 59.9202 17.1315 61.7362C16.8325 63.5522 16.9658 65.413 17.5205 67.1678C18.0753 68.9226 19.0358 70.522 20.3242 71.8362C21.6126 73.1503 23.1926 74.1423 24.9361 74.7317C26.6796 75.321 28.5375 75.4911 30.359 75.2282C32.1805 74.9652 33.9144 74.2767 35.42 73.2183C37.0076 75.1746 38.9764 76.784 41.204 77.9503L38.9402 82.0427C37.3569 81.2038 35.8654 80.178 34.5 78.9783C32.6461 79.6919 30.6766 80.058 28.69 80.0583C24.3378 80.0583 20.1639 78.3294 17.0864 75.2519C14.0089 72.1744 12.28 68.0005 12.28 63.6483C12.28 59.2961 14.0089 55.1222 17.0864 52.0447C20.1639 48.9672 24.3378 47.2383 28.69 47.2383C29.4631 47.2398 30.2351 47.2966 31 47.4083C33.1581 44.4515 35.9838 42.046 39.2472 40.3877C42.5106 38.7294 46.1194 37.865 49.78 37.865C53.4406 37.865 57.0495 38.7294 60.3129 40.3877C63.5763 42.046 66.402 44.4515 68.56 47.4083Z" fill="#4469E4"/>
</svg>
