<svg width="100" height="100" viewBox="0 0 100 100" fill="none" xmlns="http://www.w3.org/2000/svg">
<path fill-rule="evenodd" clip-rule="evenodd" d="M71.09 24.22C70.3172 24.2185 69.5453 24.272 68.78 24.38C66.622 21.4232 63.7963 19.0177 60.5329 17.3594C57.2695 15.7011 53.6606 14.8367 50 14.8367C46.3395 14.8367 42.7306 15.7011 39.4672 17.3594C36.2038 19.0177 33.3781 21.4232 31.22 24.38C30.4549 24.2713 29.6829 24.2178 28.91 24.22C26.7216 24.166 24.5445 24.5503 22.5069 25.3505C20.4693 26.1506 18.6124 27.3503 17.0455 28.879C15.4786 30.4077 14.2333 32.2345 13.3832 34.2517C12.533 36.269 12.095 38.4359 12.095 40.625C12.095 42.8141 12.533 44.981 13.3832 46.9983C14.2333 49.0155 15.4786 50.8423 17.0455 52.371C18.6124 53.8996 20.4693 55.0994 22.5069 55.8995C24.5445 56.6997 26.7216 57.084 28.91 57.03C30.8935 57.0459 32.8629 56.6968 34.72 56C36.5186 57.5387 38.542 58.7932 40.72 59.72L44.37 56C40.9665 54.9178 37.9394 52.8928 35.64 50.16C33.9762 51.3309 32.0361 52.048 30.0107 52.2409C27.9854 52.4337 25.9448 52.0955 24.0899 51.2597C22.235 50.4238 20.6299 49.1191 19.4328 47.4742C18.2356 45.8292 17.4877 43.9007 17.2627 41.8786C17.0377 39.8566 17.3434 37.8109 18.1496 35.9429C18.9559 34.075 20.2349 32.4494 21.8607 31.2262C23.4864 30.0031 25.4028 29.2246 27.421 28.9675C29.4392 28.7104 31.4895 28.9835 33.37 29.76C34.9161 26.6738 37.2905 24.0786 40.2275 22.265C43.1645 20.4514 46.5482 19.4909 50 19.4909C53.4519 19.4909 56.8356 20.4514 59.7726 22.265C62.7096 24.0786 65.084 26.6738 66.63 29.76C68.512 28.9782 70.5653 28.7007 72.5872 28.9547C74.6092 29.2088 76.53 29.9857 78.16 31.2087C79.7901 32.4318 81.0731 34.0587 81.8823 35.929C82.6916 37.7993 82.9993 39.8483 82.7749 41.8738C82.5505 43.8993 81.8018 45.8312 80.6028 47.479C79.4038 49.1268 77.7958 50.4335 75.9376 51.2701C74.0793 52.1067 72.0351 52.4444 70.0065 52.2497C67.978 52.055 66.0352 51.3347 64.37 50.16C62.8274 51.9837 60.9547 53.5002 58.85 54.63L56.85 60.54C59.9429 59.6239 62.813 58.0782 65.28 56C67.1391 56.6865 69.1084 57.0255 71.09 57C73.2784 57.054 75.4556 56.6697 77.4932 55.8695C79.5308 55.0694 81.3877 53.8696 82.9546 52.341C84.5215 50.8123 85.7667 48.9855 86.6169 46.9683C87.4671 44.951 87.9051 42.7841 87.9051 40.595C87.9051 38.4059 87.4671 36.239 86.6169 34.2217C85.7667 32.2045 84.5215 30.3777 82.9546 28.849C81.3877 27.3203 79.5308 26.1206 77.4932 25.3205C75.4556 24.5203 73.2784 24.136 71.09 24.19V24.22Z" fill="#4469E4"/>
<path fill-rule="evenodd" clip-rule="evenodd" d="M40.8401 66.41L45.5301 71.09L40.8401 85.16L54.9001 71.09L50.2201 66.41L54.9001 52.34L40.8401 66.41Z" fill="#ED6C3A"/>
<path fill-rule="evenodd" clip-rule="evenodd" d="M57.6101 71.13C57.6101 72.3739 58.1042 73.5668 58.9838 74.4463C59.8633 75.3259 61.0562 75.82 62.3001 75.82C63.544 75.82 64.7369 75.3259 65.6164 74.4463C66.496 73.5668 66.9901 72.3739 66.9901 71.13C66.9901 68.54 62.3001 61.76 62.3001 61.76C62.3001 61.76 57.6101 68.54 57.6101 71.13Z" fill="#4469E4"/>
<path fill-rule="evenodd" clip-rule="evenodd" d="M28.7599 71.13C28.7306 71.7635 28.8301 72.3963 29.0523 72.9902C29.2746 73.5841 29.6149 74.1268 30.0529 74.5854C30.4908 75.044 31.0172 75.4091 31.6002 75.6585C32.1832 75.9079 32.8108 76.0365 33.4449 76.0365C34.079 76.0365 34.7066 75.9079 35.2896 75.6585C35.8726 75.4091 36.399 75.044 36.8369 74.5854C37.2748 74.1268 37.6152 73.5841 37.8374 72.9902C38.0597 72.3963 38.1592 71.7635 38.1299 71.13C38.1299 68.54 33.4499 61.76 33.4499 61.76C33.4499 61.76 28.7599 68.54 28.7599 71.13Z" fill="#4469E4"/>
</svg>
