<svg width="100" height="100" viewBox="0 0 100 100" fill="none" xmlns="http://www.w3.org/2000/svg">
<path d="M78.85 35.58C76.5549 35.58 74.3538 36.491 72.73 38.1129C71.1062 39.7348 70.1926 41.935 70.19 44.23C70.1999 45.2133 70.3792 46.1876 70.72 47.11H15.38C14.6442 47.1534 13.9528 47.4762 13.4472 48.0125C12.9415 48.5487 12.6599 49.258 12.6599 49.995C12.6599 50.7321 12.9415 51.4413 13.4472 51.9776C13.9528 52.5138 14.6442 52.8367 15.38 52.88H78.85C79.9859 52.88 81.1107 52.6563 82.1602 52.2216C83.2097 51.7869 84.1632 51.1497 84.9665 50.3465C85.7697 49.5433 86.4068 48.5897 86.8415 47.5402C87.2762 46.4908 87.5 45.3659 87.5 44.23C87.5 43.0941 87.2762 41.9693 86.8415 40.9198C86.4068 39.8703 85.7697 38.9168 84.9665 38.1135C84.1632 37.3103 83.2097 36.6732 82.1602 36.2385C81.1107 35.8038 79.9859 35.58 78.85 35.58Z" fill="#83836F"/>
<path d="M15.38 41.35H50C51.8616 41.3692 53.6807 40.7935 55.1922 39.7067C56.7037 38.6199 57.8288 37.0788 58.4034 35.308C58.9779 33.5372 58.9721 31.6292 58.3866 29.8619C57.8012 28.0947 56.6667 26.5606 55.1485 25.4831C53.6303 24.4056 51.8077 23.841 49.9463 23.8717C48.0848 23.9023 46.2818 24.5265 44.7999 25.6534C43.3179 26.7802 42.2346 28.3508 41.7075 30.1364C41.1805 31.9219 41.2374 33.8291 41.87 35.58H15.38C14.6442 35.6234 13.9528 35.9462 13.4472 36.4825C12.9415 37.0188 12.6599 37.728 12.6599 38.465C12.6599 39.2021 12.9415 39.9113 13.4472 40.4476C13.9528 40.9839 14.6442 41.3067 15.38 41.35Z" fill="#83836F"/>
<path d="M61.54 58.65C61.37 58.65 61.2 58.65 61.04 58.7C60.88 58.75 60.83 58.65 60.71 58.65H16.21C14.16 58.65 12.5 59.94 12.5 61.54C12.5 63.14 14.16 64.42 16.21 64.42H53.41C52.803 66.1482 52.7616 68.0248 53.2918 69.7781C53.822 71.5314 54.8963 73.0705 56.3593 74.1727C57.8222 75.2749 59.598 75.8831 61.4295 75.9092C63.261 75.9352 65.0533 75.3779 66.5471 74.3177C68.0408 73.2576 69.1585 71.7497 69.7384 70.0122C70.3183 68.2747 70.3303 66.3977 69.7727 64.6529C69.2151 62.9082 68.1169 61.386 66.6368 60.3069C65.1568 59.2277 63.3717 58.6474 61.54 58.65Z" fill="#83836F"/>
</svg>
