<?xml version="1.0" encoding="UTF-8" standalone="no"?>
<!DOCTYPE svg PUBLIC "-//W3C//DTD SVG 1.1//EN" "http://www.w3.org/Graphics/SVG/1.1/DTD/svg11.dtd">
<svg width="100%" height="100%" viewBox="0 0 827 827" version="1.1" xmlns="http://www.w3.org/2000/svg" xmlns:xlink="http://www.w3.org/1999/xlink" xml:space="preserve" xmlns:serif="http://www.serif.com/" style="fill-rule:evenodd;clip-rule:evenodd;stroke-linejoin:round;stroke-miterlimit:2;">
    <g transform="matrix(1,0,0,1,-3551,-7318.16)">
        <g transform="matrix(0.959371,0,0,1.08238,144.274,-576.9)">
            <rect x="3551" y="7318.16" width="861.785" height="763.843" style="fill:rgb(235,235,235);fill-opacity:0;"/>
        </g>
        <g transform="matrix(6.703704,0,0,6.703704,3964.5,7796.630021)">
            <g transform="matrix(1,0,0,1,-55,-67.5)">
                <g transform="matrix(1,0,0,1,5,10)">
                    <path d="M75.98,22.383C74.972,21.828 74.605,20.559 75.164,19.551C75.718,18.543 76.988,18.18 77.996,18.738L80.093,19.895C82.113,21.012 83.355,23.145 83.324,25.449L83.324,25.453C82.839,58.894 72.773,82.008 53.437,94.812L53.421,94.82C51.355,96.172 48.679,96.172 46.605,94.824L46.593,94.816C45.8,94.289 45.027,93.75 44.265,93.187C43.339,92.512 43.14,91.207 43.82,90.277C44.503,89.351 45.808,89.152 46.73,89.836C47.437,90.347 48.152,90.851 48.886,91.332C49.57,91.781 50.456,91.777 51.144,91.332C69.48,79.184 78.699,57.117 79.156,25.394C79.168,24.624 78.753,23.913 78.082,23.542L75.98,22.383ZM40.613,84.574C41.426,85.39 41.422,86.707 40.609,87.519C39.797,88.332 38.476,88.332 37.664,87.515C24.16,73.988 17.09,53.3 16.687,25.449C16.659,23.149 17.898,21.012 19.917,19.899C25.691,16.707 41.397,8.04 46.991,4.946C48.874,3.906 51.155,3.906 53.038,4.946L71.022,14.883C72.026,15.438 72.393,16.707 71.835,17.715C71.28,18.723 70.014,19.09 69.007,18.532L51.023,8.59C50.398,8.246 49.632,8.246 49.007,8.59C43.409,11.684 27.71,20.352 21.933,23.543C21.257,23.918 20.847,24.629 20.855,25.395C21.238,51.918 27.753,71.692 40.613,84.575L40.613,84.574ZM38.062,18.949C39.043,18.347 40.324,18.66 40.922,19.644C41.523,20.629 41.211,21.91 40.23,22.508L30.183,28.633C29.554,29.015 29.171,29.707 29.187,30.445C29.578,55.304 35.996,72.765 48.828,82.633C49.543,83.133 50.5,83.129 51.207,82.617C64.019,72.766 70.449,55.305 70.836,30.449C70.848,29.711 70.465,29.02 69.836,28.637C65.551,26.02 55.524,19.906 51.09,17.207C50.426,16.801 49.59,16.801 48.922,17.207L47.012,18.371C46.031,18.969 44.75,18.66 44.149,17.68C43.551,16.695 43.863,15.41 44.844,14.812L46.754,13.648C48.754,12.43 51.262,12.43 53.262,13.648C57.692,16.348 67.723,22.461 72.008,25.078C73.898,26.235 75.039,28.301 75.004,30.516C74.59,56.993 67.379,75.457 53.723,85.942C53.711,85.946 53.699,85.958 53.692,85.965C51.5,87.575 48.516,87.575 46.328,85.965C46.317,85.954 46.305,85.946 46.293,85.938C32.637,75.454 25.438,56.993 25.02,30.512C24.981,28.301 26.126,26.227 28.016,25.074L38.062,18.949Z"/>
                </g>
            </g>
        </g>
        <g transform="matrix(2.445868,0,0,2.445868,3842.206096,7620.317495)">
            <path d="M37.848,79.206C37.848,79.206 15.304,58.468 11.893,53.224C11.481,52.591 11.388,51.819 11.586,50.997C11.823,50.017 12.498,48.944 13.383,48.064C14.262,47.19 15.34,46.511 16.333,46.257C17.154,46.047 17.93,46.114 18.571,46.485C22.391,48.693 35.399,62.922 38.478,66.32C43.402,61.153 73.829,29.304 81.327,23.476C81.944,22.996 82.718,22.867 83.558,23.056C84.531,23.275 85.619,23.958 86.517,24.862C87.402,25.753 88.098,26.851 88.36,27.855C88.578,28.692 88.508,29.479 88.126,30.117C85.434,34.614 66.859,51.483 66.211,52.071L39.102,79.18C38.758,79.523 38.205,79.535 37.848,79.206Z" style="fill-rule:nonzero;"/>
        </g>
    </g>
</svg>
