<?xml version="1.0" encoding="UTF-8" standalone="no"?>
<!DOCTYPE svg PUBLIC "-//W3C//DTD SVG 1.1//EN" "http://www.w3.org/Graphics/SVG/1.1/DTD/svg11.dtd">
<svg width="100%" height="100%" viewBox="0 0 827 827" version="1.1" xmlns="http://www.w3.org/2000/svg" xmlns:xlink="http://www.w3.org/1999/xlink" xml:space="preserve" xmlns:serif="http://www.serif.com/" style="fill-rule:evenodd;clip-rule:evenodd;stroke-linejoin:round;stroke-miterlimit:2;">
    <g transform="matrix(1,0,0,1,-3551,-7318.16)">
        <g transform="matrix(0.959371,0,0,1.08238,144.274,-576.9)">
            <rect x="3551" y="7318.16" width="861.785" height="763.843" style="fill:rgb(235,235,235);fill-opacity:0;"/>
        </g>
        <g transform="matrix(6.703704,0,0,6.703704,3964.5,7796.630021)">
            <g transform="matrix(1,0,0,1,-55,-67.5)">
                <g transform="matrix(1,0,0,1,5,10)">
                    <path d="M75.98,22.383C74.972,21.828 74.605,20.559 75.164,19.551C75.718,18.543 76.988,18.18 77.996,18.738L80.093,19.895C82.113,21.012 83.355,23.145 83.324,25.449L83.324,25.453C82.839,58.894 72.773,82.008 53.437,94.812L53.421,94.82C51.355,96.172 48.679,96.172 46.605,94.824L46.593,94.816C45.8,94.289 45.027,93.75 44.265,93.187C43.339,92.512 43.14,91.207 43.82,90.277C44.503,89.351 45.808,89.152 46.73,89.836C47.437,90.347 48.152,90.851 48.886,91.332C49.57,91.781 50.456,91.777 51.144,91.332C69.48,79.184 78.699,57.117 79.156,25.394C79.168,24.624 78.753,23.913 78.082,23.542L75.98,22.383ZM40.613,84.574C41.426,85.39 41.422,86.707 40.609,87.519C39.797,88.332 38.476,88.332 37.664,87.515C24.16,73.988 17.09,53.3 16.687,25.449C16.659,23.149 17.898,21.012 19.917,19.899C25.691,16.707 41.397,8.04 46.991,4.946C48.874,3.906 51.155,3.906 53.038,4.946L71.022,14.883C72.026,15.438 72.393,16.707 71.835,17.715C71.28,18.723 70.014,19.09 69.007,18.532L51.023,8.59C50.398,8.246 49.632,8.246 49.007,8.59C43.409,11.684 27.71,20.352 21.933,23.543C21.257,23.918 20.847,24.629 20.855,25.395C21.238,51.918 27.753,71.692 40.613,84.575L40.613,84.574ZM38.062,18.949C39.043,18.347 40.324,18.66 40.922,19.644C41.523,20.629 41.211,21.91 40.23,22.508L30.183,28.633C29.554,29.015 29.171,29.707 29.187,30.445C29.578,55.304 35.996,72.765 48.828,82.633C49.543,83.133 50.5,83.129 51.207,82.617C64.019,72.766 70.449,55.305 70.836,30.449C70.848,29.711 70.465,29.02 69.836,28.637C65.551,26.02 55.524,19.906 51.09,17.207C50.426,16.801 49.59,16.801 48.922,17.207L47.012,18.371C46.031,18.969 44.75,18.66 44.149,17.68C43.551,16.695 43.863,15.41 44.844,14.812L46.754,13.648C48.754,12.43 51.262,12.43 53.262,13.648C57.692,16.348 67.723,22.461 72.008,25.078C73.898,26.235 75.039,28.301 75.004,30.516C74.59,56.993 67.379,75.457 53.723,85.942C53.711,85.946 53.699,85.958 53.692,85.965C51.5,87.575 48.516,87.575 46.328,85.965C46.317,85.954 46.305,85.946 46.293,85.938C32.637,75.454 25.438,56.993 25.02,30.512C24.981,28.301 26.126,26.227 28.016,25.074L38.062,18.949ZM14.585,47.918C15.734,47.918 16.667,48.852 16.667,50C16.667,51.152 15.734,52.086 14.585,52.086L6.249,52.086C5.101,52.086 4.167,51.152 4.167,50C4.167,48.852 5.101,47.918 6.249,47.918L14.585,47.918ZM85.417,52.086C84.269,52.086 83.335,51.152 83.335,50C83.335,48.852 84.269,47.918 85.417,47.918L93.753,47.918C94.898,47.918 95.835,48.852 95.835,50C95.835,51.152 94.898,52.086 93.753,52.086L85.417,52.086ZM15.249,57.156C16.362,56.859 17.503,57.52 17.804,58.629C18.101,59.738 17.437,60.883 16.331,61.18L8.28,63.336C7.167,63.633 6.026,62.973 5.73,61.863C5.433,60.754 6.089,59.609 7.202,59.312L15.249,57.156ZM83.671,61.18C82.562,60.883 81.898,59.738 82.198,58.629C82.495,57.52 83.64,56.859 84.749,57.156L92.796,59.312C93.909,59.609 94.57,60.754 94.273,61.863C93.976,62.973 92.831,63.633 91.722,63.336L83.671,61.18ZM18.288,65.906C19.284,65.328 20.558,65.672 21.132,66.668C21.71,67.664 21.366,68.941 20.37,69.516L13.151,73.68C12.155,74.258 10.882,73.914 10.308,72.918C9.73,71.922 10.073,70.645 11.069,70.074L18.288,65.906ZM79.628,69.516C78.636,68.941 78.292,67.664 78.866,66.668C79.441,65.672 80.718,65.328 81.714,65.906L88.929,70.074C89.925,70.645 90.269,71.922 89.691,72.918C89.12,73.914 87.843,74.258 86.847,73.68L79.628,69.516Z"/>
                </g>
            </g>
        </g>
        <g transform="matrix(2.328362,0,0,2.328362,3847.968081,7629.149405)">
            <path d="M23.328,85.525C22.354,86.183 21.153,86.379 19.858,86.065C18.634,85.767 17.267,84.943 16.162,83.838C15.057,82.733 14.233,81.366 13.936,80.142C13.621,78.847 13.817,77.647 14.475,76.672C17.645,71.976 35.119,55.491 40.993,50C35.119,44.509 17.645,28.024 14.475,23.328C13.817,22.354 13.621,21.153 13.936,19.858C14.233,18.634 15.057,17.267 16.162,16.162C17.267,15.058 18.634,14.233 19.858,13.936C21.153,13.621 22.354,13.817 23.328,14.475C28.024,17.645 44.509,35.12 50,40.993C55.491,35.12 71.976,17.645 76.672,14.475C77.646,13.817 78.847,13.621 80.142,13.936C81.366,14.233 82.733,15.058 83.838,16.162C84.943,17.267 85.767,18.634 86.064,19.858C86.379,21.153 86.183,22.354 85.525,23.328C82.355,28.024 64.881,44.509 59.007,50C64.881,55.491 82.355,71.976 85.525,76.672C86.183,77.647 86.379,78.847 86.064,80.142C85.767,81.366 84.943,82.733 83.838,83.838C82.733,84.943 81.366,85.767 80.142,86.065C78.847,86.379 77.646,86.183 76.672,85.525C71.976,82.355 55.491,64.881 50,59.007C44.509,64.881 28.024,82.355 23.328,85.525Z" style="fill-rule:nonzero;"/>
        </g>
    </g>
</svg>
