<?xml version="1.0" encoding="UTF-8" standalone="no"?>
<!DOCTYPE svg PUBLIC "-//W3C//DTD SVG 1.1//EN" "http://www.w3.org/Graphics/SVG/1.1/DTD/svg11.dtd">
<svg width="100%" height="100%" viewBox="0 0 827 827" version="1.1" xmlns="http://www.w3.org/2000/svg" xmlns:xlink="http://www.w3.org/1999/xlink" xml:space="preserve" xmlns:serif="http://www.serif.com/" style="fill-rule:evenodd;clip-rule:evenodd;stroke-linejoin:round;stroke-miterlimit:2;">
    <g transform="matrix(1,0,0,1,-3551,-7318.16)">
        <g transform="matrix(0.959371,0,0,1.08238,144.274,-602.9)">
            <rect x="3551" y="7318.16" width="861.785" height="763.843" style="fill:rgb(235,235,235);fill-opacity:0;"/>
        </g>
        <g transform="matrix(8.975463,0,0,8.975463,3515.728934,7268.450482)">
            <path d="M14.788,87.591C14.788,87.591 14.763,87.617 14.762,87.617C13.852,88.56 12.355,88.624 11.368,87.744C10.374,86.862 10.267,85.357 11.11,84.345C11.031,84.452 10.99,84.559 10.976,84.663C11.01,84.524 11.074,84.392 11.168,84.278L11.171,84.275L11.629,85.301C11.633,85.292 11.638,85.282 11.642,85.273L11.211,84.23L11.198,84.244L11.209,84.232C11.195,84.247 11.181,84.263 11.168,84.278C11.148,84.3 11.129,84.323 11.11,84.345C11.139,84.307 11.172,84.269 11.21,84.23L11.211,84.23L11.211,84.23L11.215,84.226C11.23,84.209 11.253,84.184 11.269,84.168C11.309,84.127 11.355,84.078 11.415,84.022C11.532,83.91 11.699,83.759 11.909,83.583L11.921,83.573C12.344,83.231 12.957,82.786 13.79,82.33L13.791,82.329C15.415,81.441 17.856,80.509 21.273,80.2L21.274,80.2C24.703,79.894 27.73,80.508 29.881,81.19L29.883,81.191C30.748,81.466 31.479,81.755 32.049,82.004C32.117,81.961 32.188,81.918 32.262,81.872L32.27,81.867C33.191,81.317 34.525,80.581 36.208,79.85L36.209,79.85C37.304,79.374 38.548,78.899 39.927,78.472L39.927,57.896L35.851,57.896C34.495,57.896 33.395,56.796 33.395,55.441C33.395,54.086 34.495,52.986 35.851,52.986L47.543,52.986L47.543,42.662L43.471,42.662C42.116,42.662 41.016,41.562 41.016,40.207C41.016,38.852 42.116,37.752 43.471,37.752L56.531,37.752C57.886,37.752 58.986,38.852 58.986,40.207C58.986,41.562 57.886,42.662 56.531,42.662L52.455,42.662L52.455,52.986L64.148,52.986C65.503,52.986 66.603,54.086 66.603,55.441C66.603,56.796 65.503,57.896 64.148,57.896L60.072,57.896L60.072,78.472C61.452,78.899 62.698,79.374 63.79,79.85C65.474,80.581 66.808,81.317 67.728,81.867L67.737,81.872C67.811,81.918 67.881,81.961 67.95,82.004C68.52,81.755 69.252,81.466 70.121,81.19C72.273,80.508 75.295,79.894 78.729,80.2L78.73,80.2C82.143,80.509 84.583,81.441 86.208,82.329L86.209,82.33C87.042,82.786 87.654,83.231 88.077,83.573L88.089,83.583C88.298,83.758 88.465,83.908 88.579,84.018C88.658,84.092 88.72,84.155 88.765,84.205L88.784,84.226C88.801,84.243 88.818,84.26 88.833,84.277C89.735,85.288 89.646,86.842 88.636,87.743L88.633,87.745C87.642,88.625 86.145,88.559 85.236,87.617C85.228,87.609 85.219,87.601 85.211,87.593L85.168,87.55C85.131,87.513 85.066,87.455 84.975,87.381L84.973,87.379C84.744,87.192 84.374,86.924 83.846,86.632C82.733,86.025 80.928,85.329 78.289,85.091C75.656,84.855 73.307,85.331 71.605,85.871C70.76,86.14 70.085,86.42 69.627,86.634L69.615,86.64C69.398,86.738 69.23,86.821 69.125,86.877C69.077,86.903 69.042,86.922 69.02,86.934L69.076,86.9L69.049,86.915C69.115,86.872 69.162,86.828 69.194,86.796C69.149,86.841 69.1,86.882 69.047,86.917L68.957,86.969C68.981,86.956 69.004,86.944 69.025,86.931C68.995,86.95 68.963,86.967 68.93,86.983C68.092,87.436 67.065,87.361 66.298,86.795C66.463,86.916 66.662,86.982 66.867,86.982C67.193,86.982 67.49,86.817 67.664,86.554C67.824,86.869 68.15,87.076 68.515,87.076C68.154,87.074 67.827,86.869 67.666,86.55C67.711,86.482 67.747,86.406 67.774,86.326C67.774,86.325 67.775,86.323 67.775,86.322C67.711,86.323 67.647,86.319 67.583,86.311C67.595,86.37 67.613,86.429 67.636,86.486C67.645,86.508 67.655,86.529 67.666,86.55L67.664,86.554C67.634,86.495 67.61,86.433 67.593,86.368C67.587,86.349 67.583,86.33 67.579,86.311C67.444,86.294 67.31,86.259 67.183,86.206L66.867,86.982L66.183,86.694C66.207,86.718 66.289,86.785 66.289,86.785C66.289,86.785 66.274,86.774 66.259,86.763C66.214,86.732 66.15,86.685 66.067,86.631L66.049,86.619C65.86,86.489 65.575,86.304 65.195,86.074C64.42,85.609 63.28,84.983 61.834,84.356L61.833,84.356C58.93,83.092 54.828,81.837 49.999,81.837C45.17,81.837 41.068,83.092 38.166,84.356L38.164,84.356C36.717,84.984 35.576,85.611 34.805,86.075L34.804,86.076C34.423,86.305 34.138,86.49 33.95,86.619L33.932,86.631C33.849,86.686 33.788,86.731 33.752,86.756C33.742,86.764 33.731,86.771 33.72,86.779C33.711,86.785 33.702,86.791 33.695,86.796L33.701,86.794C32.96,87.344 31.982,87.432 31.158,87.03C31.146,87.024 31.134,87.018 31.122,87.011L31.078,86.987C31.049,86.974 31.021,86.959 30.993,86.943L30.992,86.942C30.924,86.902 30.861,86.853 30.804,86.796C30.829,86.82 30.861,86.859 30.928,86.904C30.94,86.911 30.96,86.923 30.96,86.923L30.953,86.919L30.874,86.877C30.769,86.821 30.604,86.738 30.387,86.64L30.378,86.635C29.916,86.421 29.24,86.141 28.393,85.871C26.692,85.331 24.343,84.855 21.71,85.091C19.069,85.329 17.263,86.026 16.149,86.635C15.627,86.923 15.259,87.189 15.035,87.375L15.03,87.379C14.935,87.457 14.868,87.513 14.831,87.55L14.792,87.589L14.788,87.591ZM69.049,86.915C69.042,86.92 69.034,86.925 69.025,86.931C69.033,86.926 69.04,86.921 69.047,86.917L69.049,86.915ZM11.561,85.484C11.356,85.245 11.108,84.97 10.992,84.899C11.064,85.184 11.312,85.438 11.529,85.614C11.538,85.57 11.548,85.527 11.561,85.484ZM11.507,85.754C11.292,85.656 11.117,85.479 11.023,85.252C10.973,85.132 10.949,85.006 10.95,84.881C10.935,84.88 10.927,84.889 10.927,84.91C10.927,85.406 11.239,85.647 11.506,85.762C11.507,85.76 11.507,85.757 11.507,85.754ZM13.283,87.383C13.299,87.41 13.317,87.436 13.335,87.46C13.511,87.709 13.798,87.862 14.109,87.865L14.109,87.865L14.109,87.865L14.11,87.865L14.11,87.864L14.113,87.864L14.109,87.86C14.092,87.792 14.006,87.459 13.897,87.111C13.872,87.13 13.846,87.148 13.82,87.166L14.105,87.855L14.109,87.86L14.11,87.864L14.109,87.864L14.109,87.865L14.108,87.864C14.041,87.856 13.59,87.792 13.335,87.46C13.318,87.435 13.302,87.409 13.286,87.383C13.285,87.383 13.284,87.383 13.283,87.383ZM32.868,86.184L33.132,86.982L33.689,86.798L33.815,86.694L33.132,86.982C33.132,86.982 33.123,86.525 33.057,86.079C32.996,86.118 32.933,86.153 32.868,86.184ZM86.179,87.166L85.977,87.653L86.192,87.174C86.187,87.171 86.183,87.168 86.179,87.166ZM11.69,85.18C11.547,84.708 11.354,84.173 11.231,84.216L11.657,85.243C11.668,85.221 11.679,85.2 11.69,85.18ZM44.838,77.334C46.457,77.08 48.184,76.928 50,76.928C51.816,76.928 53.544,77.08 55.162,77.334L55.162,57.897L44.839,57.897L44.838,77.334ZM14.752,87.627C14.588,87.775 14.377,87.861 14.157,87.872C14.252,87.874 14.501,87.855 14.752,87.627ZM31.483,87.066L31.483,87.076L31.49,87.051L31.483,87.066ZM85.877,87.865L85.88,87.865C85.797,87.763 84.931,86.699 84.931,86.914C84.931,87.237 85.064,87.452 85.23,87.595L85.877,87.865ZM85.23,87.595L85.207,87.585C85.378,87.757 85.609,87.857 85.852,87.864C85.753,87.85 85.46,87.791 85.23,87.595ZM85.852,87.864L85.867,87.866L85.878,87.865L85.877,87.865L85.852,87.864ZM85.762,87.865C85.646,87.849 85.534,87.813 85.432,87.758C85.561,87.831 85.679,87.856 85.762,87.865ZM88.768,84.211L88.778,84.22L88.769,84.211L88.768,84.211ZM19.531,38.162C21.257,38.162 22.662,39.567 22.662,41.293C22.662,43.024 21.257,44.424 19.531,44.424C17.8,44.424 16.396,43.024 16.396,41.293C16.396,39.568 17.8,38.162 19.531,38.162ZM31.5,38.162C33.231,38.162 34.631,39.567 34.631,41.293C34.631,43.024 33.231,44.424 31.5,44.424C29.769,44.424 28.369,43.024 28.369,41.293C28.369,39.567 29.769,38.162 31.5,38.162ZM68.5,38.162C70.231,38.162 71.631,39.567 71.631,41.293C71.631,43.024 70.231,44.424 68.5,44.424C66.769,44.424 65.369,43.024 65.369,41.293C65.369,39.567 66.769,38.162 68.5,38.162ZM80.469,38.162C82.2,38.162 83.604,39.568 83.604,41.293C83.604,43.024 82.2,44.424 80.469,44.424C78.743,44.424 77.338,43.024 77.338,41.293C77.338,39.567 78.743,38.162 80.469,38.162ZM34.766,26.193C36.492,26.193 37.897,27.592 37.897,29.324C37.897,31.049 36.492,32.455 34.766,32.455C33.035,32.455 31.635,31.05 31.635,29.324C31.635,27.592 33.035,26.193 34.766,26.193ZM65.235,26.193C66.966,26.193 68.366,27.592 68.366,29.324C68.366,31.049 66.966,32.455 65.235,32.455C63.504,32.455 62.104,31.05 62.104,29.324C62.104,27.592 63.504,26.193 65.235,26.193ZM50.001,25.103C51.732,25.103 53.132,26.508 53.132,28.234C53.132,29.965 51.732,31.365 50.001,31.365C48.27,31.365 46.87,29.965 46.87,28.234C46.87,26.508 48.27,25.103 50.001,25.103ZM26.06,17.486C27.791,17.486 29.191,18.885 29.191,20.617C29.191,22.348 27.791,23.748 26.06,23.748C24.329,23.748 22.929,22.348 22.929,20.617C22.929,18.885 24.329,17.486 26.06,17.486ZM73.943,17.486C75.674,17.486 77.074,18.885 77.074,20.617C77.074,22.348 75.674,23.748 73.943,23.748C72.212,23.748 70.812,22.348 70.812,20.617C70.812,18.885 72.212,17.486 73.943,17.486ZM50.002,13.134C51.733,13.134 53.133,14.534 53.133,16.265C53.133,17.991 51.733,19.396 50.002,19.396C48.271,19.396 46.871,17.991 46.871,16.265C46.871,14.534 48.271,13.134 50.002,13.134Z" style="fill-rule:nonzero;"/>
        </g>
    </g>
</svg>
