<svg width="100" height="100" viewBox="0 0 100 100" fill="none" xmlns="http://www.w3.org/2000/svg">
<path d="M72.39 70C69.2073 73.234 65.3349 75.7069 61.0621 77.2339C56.7894 78.7608 52.2267 79.3024 47.7152 78.818C43.2037 78.3337 38.86 76.836 35.0088 74.4368C31.1575 72.0377 27.8982 68.7991 25.4746 64.9632C23.0509 61.1273 21.5256 56.7933 21.0125 52.2849C20.4994 47.7766 21.0118 43.2106 22.5115 38.9282C24.0112 34.6458 26.4594 30.7577 29.673 27.5545C32.8867 24.3512 36.7827 21.9158 41.07 20.43C41.7403 20.1958 42.4631 20.1556 43.1552 20.3141C43.8473 20.4726 44.4806 20.8234 44.9822 21.326C45.4837 21.8286 45.8332 22.4626 45.9902 23.155C46.1473 23.8475 46.1056 24.5702 45.87 25.24C44.4135 29.2506 44.1307 33.5933 45.0546 37.7589C45.9785 41.9245 48.0709 45.7403 51.0864 48.759C54.102 51.7777 57.9157 53.8741 62.0803 54.8024C66.2449 55.7306 70.5879 55.4523 74.6 54C75.2692 53.767 75.9906 53.7273 76.6814 53.8855C77.3722 54.0438 78.0043 54.3935 78.5054 54.8946C79.0065 55.3957 79.3562 56.0279 79.5145 56.7186C79.6727 57.4094 79.633 58.1308 79.4 58.8C77.9349 63.0128 75.5388 66.841 72.39 70ZM36.53 31.37C27.73 40.17 26.33 55.9 35.14 64.7C44.54 74.11 61.97 73.26 70.14 62.78C61.68 63.31 51.95 60.26 45.75 54.06C39.55 47.86 37.89 38.13 38.42 29.67C37.7602 30.2026 37.1293 30.7701 36.53 31.37Z" fill="#EAB359"/>
</svg>
