<svg width="100" height="100" viewBox="0 0 100 100" fill="none" xmlns="http://www.w3.org/2000/svg">
<path fill-rule="evenodd" clip-rule="evenodd" d="M23.4499 41H53.2499C53.6511 41.0234 54.0529 40.9645 54.4305 40.8271C54.8081 40.6897 55.1537 40.4766 55.446 40.2008C55.7383 39.925 55.9712 39.5924 56.1304 39.2235C56.2895 38.8545 56.3716 38.4568 56.3716 38.055C56.3716 37.6531 56.2895 37.2555 56.1304 36.8865C55.9712 36.5175 55.7383 36.1849 55.446 35.9092C55.1537 35.6334 54.8081 35.4203 54.4305 35.2828C54.0529 35.1454 53.6511 35.0866 53.2499 35.11H23.4499C22.6986 35.1538 21.9923 35.4831 21.4758 36.0306C20.9593 36.5781 20.6716 37.3023 20.6716 38.055C20.6716 38.8076 20.9593 39.5319 21.4758 40.0793C21.9923 40.6268 22.6986 40.9562 23.4499 41Z" fill="#4469E4"/>
<path fill-rule="evenodd" clip-rule="evenodd" d="M76.5499 35.08H63.5499C63.1487 35.0566 62.747 35.1155 62.3694 35.2529C61.9917 35.3903 61.6462 35.6034 61.3539 35.8792C61.0616 36.155 60.8287 36.4875 60.6695 36.8565C60.5103 37.2255 60.4282 37.6232 60.4282 38.025C60.4282 38.4269 60.5103 38.8245 60.6695 39.1935C60.8287 39.5625 61.0616 39.8951 61.3539 40.1708C61.6462 40.4466 61.9917 40.6597 62.3694 40.7971C62.747 40.9346 63.1487 40.9934 63.5499 40.97H76.5499C77.3013 40.9262 78.0075 40.5968 78.524 40.0494C79.0405 39.5019 79.3282 38.7777 79.3282 38.025C79.3282 37.2723 79.0405 36.5481 78.524 36.0007C78.0075 35.4532 77.3013 35.1238 76.5499 35.08Z" fill="#4469E4"/>
<path fill-rule="evenodd" clip-rule="evenodd" d="M48.4399 29H76.5499C77.2393 28.8725 77.8622 28.5077 78.3106 27.9688C78.759 27.4299 79.0045 26.751 79.0045 26.05C79.0045 25.3489 78.759 24.67 78.3106 24.1312C77.8622 23.5923 77.2393 23.2274 76.5499 23.1H48.4399C47.7506 23.2274 47.1276 23.5923 46.6792 24.1312C46.2309 24.67 45.9854 25.3489 45.9854 26.05C45.9854 26.751 46.2309 27.4299 46.6792 27.9688C47.1276 28.5077 47.7506 28.8725 48.4399 29Z" fill="#4469E4"/>
<path fill-rule="evenodd" clip-rule="evenodd" d="M23.4499 29H38.1899C38.5773 29 38.9609 28.9237 39.3188 28.7754C39.6768 28.6272 40.002 28.4099 40.2759 28.1359C40.5498 27.862 40.7671 27.5368 40.9154 27.1789C41.0636 26.821 41.1399 26.4374 41.1399 26.05C41.1399 25.6626 41.0636 25.279 40.9154 24.9211C40.7671 24.5631 40.5498 24.2379 40.2759 23.964C40.002 23.6901 39.6768 23.4728 39.3188 23.3245C38.9609 23.1763 38.5773 23.1 38.1899 23.1H23.4499C22.7606 23.2274 22.1376 23.5923 21.6892 24.1312C21.2409 24.67 20.9954 25.3489 20.9954 26.05C20.9954 26.751 21.2409 27.4299 21.6892 27.9688C22.1376 28.5077 22.7606 28.8725 23.4499 29Z" fill="#4469E4"/>
<path fill-rule="evenodd" clip-rule="evenodd" d="M23.4499 64.89H53.2499C54.0323 64.89 54.7827 64.5792 55.3359 64.026C55.8891 63.4727 56.1999 62.7224 56.1999 61.94C56.1999 61.1576 55.8891 60.4073 55.3359 59.854C54.7827 59.3008 54.0323 58.99 53.2499 58.99H23.4499C22.7606 59.1174 22.1376 59.4823 21.6892 60.0212C21.2409 60.5601 20.9954 61.239 20.9954 61.94C20.9954 62.641 21.2409 63.3199 21.6892 63.8588C22.1376 64.3977 22.7606 64.7625 23.4499 64.89Z" fill="#4469E4"/>
<path fill-rule="evenodd" clip-rule="evenodd" d="M76.5501 59H63.5501C62.7677 59 62.0174 59.3108 61.4641 59.864C60.9109 60.4173 60.6001 61.1676 60.6001 61.95C60.6001 62.7324 60.9109 63.4827 61.4641 64.036C62.0174 64.5892 62.7677 64.9 63.5501 64.9H76.5501C77.2395 64.7725 77.8624 64.4077 78.3108 63.8688C78.7592 63.3299 79.0047 62.651 79.0047 61.95C79.0047 61.249 78.7592 60.5701 78.3108 60.0312C77.8624 59.4923 77.2395 59.1275 76.5501 59Z" fill="#4469E4"/>
<path fill-rule="evenodd" clip-rule="evenodd" d="M76.5499 47H48.4399C47.7506 47.1275 47.1276 47.4923 46.6792 48.0312C46.2309 48.5701 45.9854 49.249 45.9854 49.95C45.9854 50.651 46.2309 51.3299 46.6792 51.8688C47.1276 52.4077 47.7506 52.7725 48.4399 52.9H76.5499C77.2393 52.7725 77.8622 52.4077 78.3106 51.8688C78.759 51.3299 79.0045 50.651 79.0045 49.95C79.0045 49.249 78.759 48.5701 78.3106 48.0312C77.8622 47.4923 77.2393 47.1275 76.5499 47Z" fill="#4469E4"/>
<path fill-rule="evenodd" clip-rule="evenodd" d="M23.4499 52.92H38.1899C38.9723 52.92 39.7227 52.6092 40.2759 52.056C40.8291 51.5028 41.1399 50.7524 41.1399 49.97C41.1399 49.1876 40.8291 48.4373 40.2759 47.8841C39.7227 47.3308 38.9723 47.02 38.1899 47.02H23.4499C22.7606 47.1475 22.1376 47.5123 21.6892 48.0512C21.2409 48.5901 20.9954 49.269 20.9954 49.97C20.9954 50.6711 21.2409 51.3499 21.6892 51.8888C22.1376 52.4277 22.7606 52.7926 23.4499 52.92Z" fill="#4469E4"/>
<path fill-rule="evenodd" clip-rule="evenodd" d="M76.5499 71H23.4499C22.7606 71.1275 22.1376 71.4923 21.6892 72.0312C21.2409 72.5701 20.9954 73.249 20.9954 73.95C20.9954 74.651 21.2409 75.3299 21.6892 75.8688C22.1376 76.4077 22.7606 76.7725 23.4499 76.9H76.5499C77.2393 76.7725 77.8622 76.4077 78.3106 75.8688C78.759 75.3299 79.0045 74.651 79.0045 73.95C79.0045 73.249 78.759 72.5701 78.3106 72.0312C77.8622 71.4923 77.2393 71.1275 76.5499 71Z" fill="#4469E4"/>
</svg>
