<svg width="100" height="100" viewBox="0 0 100 100" fill="none" xmlns="http://www.w3.org/2000/svg">
<path d="M42.9999 21.88C43.3081 21.88 43.6132 21.8191 43.8977 21.7009C44.1823 21.5827 44.4407 21.4094 44.6581 21.1911C44.8755 20.9727 45.0477 20.7136 45.1647 20.4286C45.2817 20.1435 45.3413 19.8381 45.3399 19.53V14.84C45.3399 14.2194 45.0934 13.6242 44.6546 13.1854C44.2157 12.7465 43.6205 12.5 42.9999 12.5C42.3793 12.5 41.7841 12.7465 41.3453 13.1854C40.9065 13.6242 40.6599 14.2194 40.6599 14.84V19.53C40.6586 19.8381 40.7182 20.1435 40.8352 20.4286C40.9522 20.7136 41.1243 20.9727 41.3418 21.1911C41.5592 21.4094 41.8176 21.5827 42.1021 21.7009C42.3867 21.8191 42.6918 21.88 42.9999 21.88Z" fill="#ED6C3A"/>
<path d="M61.2001 28.05L64.5101 24.74C64.7281 24.5227 64.9011 24.2645 65.0194 23.9803C65.1376 23.6961 65.1987 23.3914 65.1992 23.0835C65.1996 22.7757 65.1395 22.4708 65.0221 22.1862C64.9047 21.9017 64.7324 21.643 64.5151 21.425C64.2978 21.207 64.0396 21.034 63.7554 20.9157C63.4712 20.7975 63.1665 20.7364 62.8586 20.7359C62.5508 20.7355 62.2459 20.7956 61.9613 20.913C61.6768 21.0304 61.4181 21.2027 61.2001 21.42L57.8801 24.74C57.4412 25.1803 57.1951 25.7769 57.196 26.3985C57.197 27.0202 57.4448 27.6161 57.8851 28.055C58.3254 28.4939 58.922 28.74 59.5436 28.7391C60.1653 28.7381 60.7612 28.4903 61.2001 28.05Z" fill="#ED6C3A"/>
<path d="M14.85 45.31H19.53C20.1506 45.31 20.7458 45.0635 21.1846 44.6246C21.6235 44.1858 21.87 43.5906 21.87 42.97C21.87 42.3494 21.6235 41.7542 21.1846 41.3154C20.7458 40.8765 20.1506 40.63 19.53 40.63H14.85C14.2294 40.63 13.6342 40.8765 13.1954 41.3154C12.7565 41.7542 12.51 42.3494 12.51 42.97C12.51 43.5906 12.7565 44.1858 13.1954 44.6246C13.6342 45.0635 14.2294 45.31 14.85 45.31Z" fill="#ED6C3A"/>
<path d="M64.0601 43C64.0627 43.6215 64.3115 44.2167 64.7519 44.6552C65.1923 45.0938 65.7885 45.34 66.4101 45.34H71.0901C71.7107 45.34 72.3059 45.0935 72.7447 44.6546C73.1835 44.2158 73.4301 43.6206 73.4301 43C73.4301 42.3794 73.1835 41.7842 72.7447 41.3454C72.3059 40.9065 71.7107 40.66 71.0901 40.66H66.4101C66.1019 40.6587 65.7966 40.7182 65.5115 40.8352C65.2265 40.9522 64.9673 41.1244 64.749 41.3418C64.5306 41.5592 64.3574 41.8176 64.2391 42.1022C64.1209 42.3868 64.0601 42.6919 64.0601 43Z" fill="#ED6C3A"/>
<path d="M24.74 28.05C25.1789 28.4889 25.7742 28.7355 26.395 28.7355C27.0157 28.7355 27.611 28.4889 28.05 28.05C28.4889 27.6111 28.7355 27.0157 28.7355 26.395C28.7355 25.7743 28.4889 25.1789 28.05 24.74L24.74 21.42C24.5258 21.1855 24.2663 20.9969 23.9772 20.8655C23.6881 20.7341 23.3754 20.6626 23.0579 20.6554C22.7405 20.6482 22.4248 20.7055 22.1301 20.8237C21.8354 20.9419 21.5676 21.1186 21.3431 21.3431C21.1185 21.5677 20.9418 21.8354 20.8236 22.1301C20.7054 22.4249 20.6482 22.7405 20.6554 23.058C20.6626 23.3755 20.734 23.6882 20.8654 23.9773C20.9968 24.2664 21.1855 24.5258 21.42 24.74L24.74 28.05Z" fill="#ED6C3A"/>
<path d="M59.3398 42.6109C59.2871 38.2673 57.5122 34.1221 54.4051 31.0862C51.2957 28.0481 47.1068 26.3696 42.7599 26.42C38.413 26.4704 34.2642 28.2455 31.2261 31.3549C28.188 34.4642 26.5096 38.6531 26.5599 43C26.5738 45.4414 27.1426 47.8474 28.2232 50.0361C29.2259 49.9949 30.2334 50.0456 31.233 50.1894C31.6804 49.5779 32.1563 48.9901 32.6587 48.4277C31.7523 46.7609 31.2686 44.8972 31.2499 43C31.246 41.4559 31.5472 39.9262 32.1363 38.4988C32.7254 37.0714 33.5907 35.7746 34.6826 34.6827C35.7745 33.5908 37.0714 32.7254 38.4987 32.1364C39.9261 31.5473 41.4558 31.246 42.9999 31.25C45.7738 31.2605 48.4535 32.257 50.5602 34.0615C52.666 35.8652 54.0622 38.3586 54.4994 41.0965C56.1601 41.4229 57.7835 41.93 59.3398 42.6109Z" fill="#ED6C3A"/>
<path fill-rule="evenodd" clip-rule="evenodd" d="M87.5129 66.4394C87.5077 62.0888 85.777 57.9179 82.7007 54.8416C79.6244 51.7653 75.4535 50.0347 71.1029 50.0294C70.3301 50.0272 69.5581 50.0807 68.7929 50.1894C66.6323 47.2363 63.8057 44.8344 60.5426 43.1786C57.2796 41.5229 53.672 40.66 50.0129 40.66C46.3538 40.66 42.7463 41.5229 39.4833 43.1786C36.2202 44.8344 33.3936 47.2363 31.2329 50.1894C28.7532 49.8327 26.2248 50.0486 23.8414 50.8203C21.4581 51.5921 19.2831 52.8993 17.4831 54.6418C15.6831 56.3842 14.306 58.5157 13.4572 60.8727C12.6085 63.2298 12.3107 65.7499 12.5867 68.2399C12.8626 70.7298 13.705 73.1236 15.0493 75.2376C16.3936 77.3516 18.204 79.1298 20.3418 80.4358C22.4797 81.7418 24.8881 82.5411 27.3827 82.7722C29.8772 83.0034 32.3915 82.6603 34.7329 81.7694C38.9577 85.4813 44.3892 87.5284 50.0129 87.5284C55.6367 87.5284 61.0682 85.4813 65.2929 81.7694C67.7753 82.7141 70.4502 83.0415 73.0871 82.7232C75.7241 82.4049 78.2442 81.4504 80.4305 79.9421C82.6168 78.4337 84.4037 76.4166 85.6375 74.0644C86.8713 71.7123 87.5149 69.0955 87.5129 66.4394ZM64.3729 76.0094C62.6363 78.1435 60.446 79.8639 57.9611 81.0455C55.4763 82.2271 52.7594 82.8402 50.0079 82.8402C47.2565 82.8402 44.5396 82.2271 42.0547 81.0455C39.5699 79.8639 37.3796 78.1435 35.6429 76.0094C33.9791 77.1802 32.039 77.8974 30.0136 78.0902C27.9883 78.2831 25.9477 77.9449 24.0928 77.109C22.2379 76.2732 20.6328 74.9685 19.4357 73.3235C18.2385 71.6785 17.4906 69.75 17.2656 67.728C17.0406 65.706 17.3463 63.6602 18.1525 61.7923C18.9588 59.9244 20.2378 58.2988 21.8636 57.0756C23.4893 55.8524 25.4057 55.074 27.4239 54.8168C29.4421 54.5597 31.4924 54.8329 33.3729 55.6094C34.9206 52.5235 37.2961 49.929 40.2339 48.1159C43.1716 46.3028 46.5557 45.3426 50.0079 45.3426C53.4601 45.3426 56.8443 46.3028 59.782 48.1159C62.7198 49.929 65.0953 52.5235 66.6429 55.6094C68.5253 54.8287 70.5786 54.5523 72.6003 54.8075C74.6221 55.0627 76.5423 55.8406 78.1717 57.0644C79.801 58.2883 81.083 59.9158 81.8913 61.7865C82.6996 63.6571 83.0062 65.7061 82.7809 67.7314C82.5555 69.7567 81.806 71.6882 80.6062 73.3354C79.4065 74.9825 77.798 76.2884 75.9395 77.1242C74.081 77.96 72.0367 78.2967 70.0083 78.1012C67.98 77.9057 66.0376 77.1847 64.3729 76.0094Z" fill="#4469E4"/>
</svg>
