<svg width="100" height="100" viewBox="0 0 100 100" fill="none" xmlns="http://www.w3.org/2000/svg">
<path d="M76.2301 48.06C76.9658 47.5473 77.6611 46.979 78.3101 46.36C80.2749 44.3852 81.7687 41.9925 82.6801 39.36C82.8284 38.9416 82.8551 38.4897 82.7572 38.0567C82.6592 37.6236 82.4407 37.2272 82.1267 36.9133C81.8128 36.5994 81.4164 36.3808 80.9834 36.2829C80.5504 36.185 80.0985 36.2117 79.6801 36.36C77.1838 37.2529 74.4854 37.4187 71.8986 36.8381C69.3119 36.2575 66.9431 34.9544 65.068 33.0803C63.1928 31.2062 61.8883 28.8381 61.3063 26.2517C60.7242 23.6653 60.8885 20.9667 61.7801 18.47C61.9327 18.0513 61.9626 17.5977 61.8663 17.1626C61.77 16.7275 61.5514 16.3289 61.2363 16.0138C60.9211 15.6987 60.5226 15.4801 60.0875 15.3838C59.6523 15.2874 59.1987 15.3173 58.7801 15.47C54.305 17.0026 50.5885 20.1938 48.3968 24.3856C46.205 28.5775 45.7051 33.4505 47.0001 38C48.9459 37.8651 50.0212 37.8274 51.8801 37.89C50.9639 35.3815 50.7812 32.6639 51.3532 30.0553C51.9252 27.4467 53.2283 25.055 55.1101 23.16C55.4885 22.783 55.8892 22.429 56.3101 22.1C56.1511 24.7351 56.553 27.3739 57.4893 29.8421C58.4256 32.3103 59.8749 34.5518 61.7416 36.4185C63.6082 38.2852 65.8497 39.7345 68.318 40.6708C70.7862 41.6071 73.425 42.009 76.0601 41.85C74.1067 44.3209 68.2801 46.71 68.2801 46.71C71.4433 46.8251 73.1865 47.095 76.2301 48.09V48.06Z" fill="#EAB359"/>
<path fill-rule="evenodd" clip-rule="evenodd" d="M76.2299 48.09C73.1864 47.095 71.4431 46.8251 68.2799 46.71C68.2799 46.71 63.8253 42.102 61.0028 40.584C58.1804 39.0661 55.0742 38.1488 51.8799 37.89C50.0211 37.8274 48.9457 37.8651 46.9999 38C43.8667 38.4 40.8479 39.4346 38.1279 41.0404C35.4078 42.6463 33.0437 44.7898 31.1799 47.34C28.699 46.9802 26.1686 47.1936 23.783 47.9638C21.3974 48.734 19.2199 50.0406 17.4178 51.7832C15.6156 53.5258 14.2366 55.6581 13.3867 58.0165C12.5368 60.3749 12.2385 62.8967 12.5147 65.3883C12.791 67.88 13.6344 70.2752 14.9802 72.3901C16.3261 74.5051 18.1386 76.2836 20.2787 77.5891C22.4188 78.8947 24.8296 79.6926 27.326 79.9215C29.8224 80.1505 32.3381 79.8045 34.6799 78.91C38.9018 82.628 44.3344 84.679 49.9599 84.679C55.5855 84.679 61.0181 82.628 65.2399 78.91C67.1055 79.6328 69.0892 80.0024 71.0899 80C74.9876 80.0134 78.762 78.6348 81.7334 76.1125C84.7049 73.5902 86.6782 70.0899 87.298 66.2418C87.9179 62.3937 87.1435 58.4508 85.1144 55.123C83.0852 51.7952 79.9347 49.3012 76.2299 48.09ZM64.3799 73.14C66.3484 74.5313 68.6994 75.2789 71.1099 75.28L71.0499 75.3C72.7835 75.3029 74.4961 74.9213 76.0644 74.1825C77.6327 73.4437 79.0175 72.3662 80.1191 71.0277C81.2208 69.6892 82.0117 68.1229 82.435 66.4418C82.8583 64.7607 82.9034 63.0067 82.5671 61.3061C82.2307 59.6054 81.5213 58.0006 80.4899 56.6072C79.4585 55.2139 78.1309 54.0666 76.6027 53.2482C75.0744 52.4298 73.3837 51.9607 71.6523 51.8745C69.9208 51.7884 68.1919 52.0874 66.5899 52.75C66.4685 52.4929 66.3216 52.2612 66.1746 52.0296C66.1159 51.9369 66.0571 51.8443 65.9999 51.75C64.3711 48.9447 62.0383 46.613 59.2322 44.9854C56.4261 43.3579 53.2438 42.4909 49.9999 42.47C49.8187 42.47 49.6399 42.4878 49.4625 42.5054C49.2875 42.5228 49.1137 42.54 48.9399 42.54C45.6833 42.7353 42.5342 43.7784 39.8049 45.5658C37.0755 47.3532 34.8607 49.8229 33.3799 52.73C31.4978 51.9512 29.4452 51.6765 27.4245 51.9327C25.4037 52.189 23.4847 52.9675 21.8565 54.1915C20.2284 55.4155 18.9474 57.0427 18.1397 58.9126C17.3321 60.7825 17.0257 62.8307 17.2509 64.8551C17.4761 66.8795 18.2249 68.8103 19.4237 70.4571C20.6225 72.1039 22.2297 73.4099 24.087 74.2462C25.9443 75.0825 27.9875 75.4203 30.0152 75.2263C32.0428 75.0324 33.9849 74.3133 35.6499 73.14C37.3866 75.2742 39.5769 76.9946 42.0618 78.1762C44.5466 79.3577 47.2635 79.9708 50.0149 79.9708C52.7664 79.9708 55.4833 79.3577 57.9681 78.1762C60.453 76.9946 62.6433 75.2742 64.3799 73.14Z" fill="#4469E4"/>
</svg>
