<svg width="100" height="100" viewBox="0 0 100 100" fill="none" xmlns="http://www.w3.org/2000/svg">
<path fill-rule="evenodd" clip-rule="evenodd" d="M38.6599 90.5C38.6599 91.8261 39.1867 93.0979 40.1244 94.0355C41.0621 94.9732 42.3338 95.5 43.6599 95.5C44.986 95.5 46.2578 94.9732 47.1954 94.0355C48.1331 93.0979 48.6599 91.8261 48.6599 90.5C48.6599 87.74 43.6599 80.5 43.6599 80.5C43.6599 80.5 38.6599 87.74 38.6599 90.5Z" fill="#4469E4"/>
<path fill-rule="evenodd" clip-rule="evenodd" d="M23.49 85.5C23.49 86.8261 24.0168 88.0979 24.9545 89.0355C25.8921 89.9732 27.1639 90.5 28.49 90.5C29.8161 90.5 31.0878 89.9732 32.0255 89.0355C32.9632 88.0979 33.49 86.8261 33.49 85.5C33.49 82.74 28.49 75.5 28.49 75.5C28.49 75.5 23.49 82.74 23.49 85.5Z" fill="#4469E4"/>
<path fill-rule="evenodd" clip-rule="evenodd" d="M53.8401 90.5C53.8401 91.8261 54.3669 93.0979 55.3046 94.0355C56.2422 94.9732 57.514 95.5 58.8401 95.5C60.1662 95.5 61.4379 94.9732 62.3756 94.0355C63.3133 93.0979 63.8401 91.8261 63.8401 90.5C63.8401 87.74 58.8401 80.5 58.8401 80.5C58.8401 80.5 53.8401 87.74 53.8401 90.5Z" fill="#4469E4"/>
<path fill-rule="evenodd" clip-rule="evenodd" d="M69 85.5C69 86.8261 69.5268 88.0979 70.4645 89.0355C71.4021 89.9732 72.6739 90.5 74 90.5C75.3261 90.5 76.5979 89.9732 77.5355 89.0355C78.4732 88.0979 79 86.8261 79 85.5C79 82.74 74 75.5 74 75.5C74 75.5 69 82.74 69 85.5Z" fill="#4469E4"/>
<path fill-rule="evenodd" clip-rule="evenodd" d="M45 73.62C45 74.9461 45.5268 76.2178 46.4645 77.1555C47.4021 78.0932 48.6739 78.62 50 78.62C51.3261 78.62 52.5979 78.0932 53.5355 77.1555C54.4732 76.2178 55 74.9461 55 73.62C55 70.86 50 63.62 50 63.62C50 63.62 45 70.89 45 73.62Z" fill="#4469E4"/>
<path d="M68.78 36.5028C69.545 36.3914 70.3169 36.3346 71.09 36.3328C75.4422 36.3328 79.6161 38.0617 82.6936 41.1391C85.7711 44.2166 87.5 48.3906 87.5 52.7428C87.5 57.095 85.7711 61.2689 82.6936 64.3464C79.6161 67.4238 75.4422 69.1528 71.09 69.1528C69.1034 69.1534 67.1337 68.7873 65.28 68.0728C63.9393 69.2508 62.477 70.2611 60.9256 71.0915L58.8032 66.9293C60.9417 65.7731 62.8342 64.2052 64.37 62.3128C66.333 63.7086 68.6813 64.4599 71.09 64.4628C72.8236 64.4657 74.5362 64.084 76.1045 63.3452C77.6727 62.6065 79.0576 61.529 80.1592 60.1905C81.2608 58.8519 82.0518 57.2857 82.4751 55.6046C82.8984 53.9235 82.9435 52.1694 82.6071 50.4688C82.2708 48.7682 81.5614 47.1634 80.53 45.77C79.4986 44.3766 78.171 43.2294 76.6427 42.411C75.1145 41.5926 73.4237 41.1234 71.6923 41.0373C69.9609 40.9511 68.2319 41.2501 66.63 41.9128C65.0797 38.83 62.7033 36.2386 59.7659 34.4278C56.8285 32.6171 53.4457 31.6582 49.995 31.6582C46.5443 31.6582 43.1615 32.6171 40.2241 34.4278C37.2867 36.2386 34.9103 38.83 33.36 41.9128C31.9501 41.3247 30.4376 41.0222 28.91 41.0228C27.0696 41.0221 25.255 41.4553 23.6133 42.2871C21.9716 43.1189 20.5491 44.326 19.4611 45.8104C18.3732 47.2948 17.6504 49.0147 17.3514 50.8306C17.0525 52.6466 17.1858 54.5075 17.7405 56.2623C18.2952 58.0171 19.2557 59.6164 20.5442 60.9306C21.8326 62.2448 23.4126 63.2368 25.1561 63.8261C26.8996 64.4155 28.7574 64.5856 30.5789 64.3226C32.4005 64.0597 34.1344 63.3711 35.64 62.3128C37.2275 64.269 39.1963 65.8785 41.424 67.0448L39.1601 71.1372C37.5769 70.2982 36.0854 69.2724 34.72 68.0728C32.8661 68.7864 30.8965 69.1525 28.91 69.1528C24.5578 69.1528 20.3838 67.4238 17.3064 64.3464C14.2289 61.2689 12.5 57.095 12.5 52.7428C12.5 48.3906 14.2289 44.2166 17.3064 41.1391C20.3838 38.0617 24.5578 36.3328 28.91 36.3328C29.6831 36.3343 30.455 36.3911 31.22 36.5028C33.378 33.546 36.2038 31.1405 39.4672 29.4822C42.7306 27.8238 46.3394 26.9595 50 26.9595C53.6606 26.9595 57.2694 27.8238 60.5328 29.4822C63.7962 31.1405 66.622 33.546 68.78 36.5028Z" fill="#4469E4"/>
<path d="M49.9962 26.9612C53.6567 26.9612 57.2656 27.8256 60.529 29.4839C63.7924 31.1423 66.6181 33.5477 68.7762 36.5045C69.5412 36.3932 70.3131 36.3364 71.0862 36.3345C72.8745 36.3345 74.6327 36.6264 76.2971 37.1838C77.0066 36.6841 77.6782 36.1325 78.3063 35.5334C80.269 33.5569 81.7624 31.1647 82.6763 28.5334C82.829 28.1147 82.8589 27.6611 82.7625 27.226C82.6662 26.7909 82.4476 26.3923 82.1325 26.0772C81.8174 25.7621 81.4188 25.5435 80.9837 25.4472C80.5486 25.3508 80.095 25.3807 79.6763 25.5334C77.1812 26.4211 74.4854 26.5828 71.9021 25.9998C69.3187 25.4169 66.9537 24.1131 65.0816 22.2399C63.2095 20.3668 61.9071 18.001 61.3255 15.4173C60.744 12.8337 60.9072 10.138 61.7963 7.64341C61.9446 7.22496 61.9713 6.77307 61.8734 6.34006C61.7755 5.90705 61.5569 5.51064 61.243 5.19672C60.9291 4.88281 60.5326 4.66423 60.0996 4.56631C59.6666 4.46838 59.2147 4.49511 58.7963 4.64341C54.3264 6.17822 50.6133 9.36555 48.4191 13.5514C46.2248 17.7372 45.7157 22.6041 46.9963 27.1534L49.9962 26.9612Z" fill="#EAB359"/>
</svg>
