<svg width="100" height="100" viewBox="0 0 100 100" fill="none" xmlns="http://www.w3.org/2000/svg">
<path fill-rule="evenodd" clip-rule="evenodd" d="M71.0499 23.57C70.2735 23.5715 69.4982 23.6283 68.7299 23.74C66.5619 20.7914 63.7287 18.3959 60.4607 16.7484C57.1926 15.1009 53.5818 14.2479 49.922 14.2586C46.2621 14.2693 42.6565 15.1435 39.3981 16.8101C36.1397 18.4767 33.3206 20.8887 31.1699 23.85C30.4042 23.7463 29.6326 23.6928 28.8599 23.69C24.5077 23.7086 20.3411 25.4553 17.2768 28.5459C14.2125 31.6365 12.5014 35.8178 12.5199 40.17C12.5385 44.5222 14.2852 48.6888 17.3758 51.7531C20.4664 54.8175 24.6477 56.5286 28.9999 56.51C30.991 56.5039 32.9639 56.131 34.8199 55.41C39.0521 59.1128 44.4886 61.1462 50.1119 61.1297C55.7352 61.1131 61.1597 59.0477 65.3699 55.32C67.2272 56.032 69.2009 56.3915 71.1899 56.38C75.4708 56.2632 79.5365 54.4775 82.5188 51.4043C85.5012 48.331 87.1641 44.2136 87.1523 39.9311C87.1406 35.6486 85.4552 31.5404 82.456 28.4835C79.4568 25.4266 75.3814 23.6633 71.0999 23.57H71.0499ZM71.1299 51.7C68.7183 51.696 66.3659 50.9526 64.3899 49.57C62.6614 51.7122 60.4765 53.4417 57.9947 54.6324C55.5129 55.8231 52.7966 56.4449 50.044 56.4526C47.2913 56.4602 44.5717 55.8535 42.0833 54.6767C39.5948 53.4999 37.4004 51.7826 35.6599 49.65C33.9988 50.8309 32.0585 51.5582 30.0305 51.7602C28.0025 51.9621 25.9569 51.6318 24.0955 50.8017C22.2342 49.9716 20.6215 48.6704 19.4166 47.0267C18.2117 45.3829 17.4563 43.4534 17.2249 41.4285C16.9935 39.4036 17.2941 37.3534 18.0971 35.4802C18.9001 33.607 20.1777 31.9755 21.8038 30.7469C23.4299 29.5183 25.3483 28.735 27.3696 28.4742C29.3909 28.2134 31.4453 28.4843 33.3299 29.26C34.8709 26.1725 37.2396 23.574 40.1715 21.7544C43.1035 19.9348 46.4834 18.9657 49.9341 18.9554C53.3848 18.945 56.7705 19.8937 59.7133 21.6956C62.6562 23.4976 65.0404 26.0818 66.5999 29.16C68.377 28.4203 70.3089 28.1301 72.2249 28.315C74.1408 28.4999 75.9816 29.1542 77.5844 30.2201C79.1872 31.286 80.5025 32.7305 81.4139 34.4259C82.3254 36.1213 82.8049 38.0152 82.8099 39.94C82.8152 41.4791 82.5173 43.0041 81.9331 44.4281C81.349 45.852 80.4901 47.147 79.4055 48.239C78.3209 49.331 77.0319 50.1987 75.6119 50.7926C74.192 51.3864 72.669 51.6948 71.1299 51.7Z" fill="#4469E4"/>
<path fill-rule="evenodd" clip-rule="evenodd" d="M45.4299 81.07C45.4299 82.3139 45.9241 83.5068 46.8036 84.3863C47.6831 85.2659 48.8761 85.76 50.1199 85.76C51.3638 85.76 52.5567 85.2659 53.4363 84.3863C54.3158 83.5068 54.8099 82.3139 54.8099 81.07C54.8099 78.48 50.0899 71.71 50.0899 71.71C50.0899 71.71 45.4299 78.48 45.4299 81.07Z" fill="#4469E4"/>
<path fill-rule="evenodd" clip-rule="evenodd" d="M17.0001 68.26C16.9708 68.8934 17.0703 69.5263 17.2926 70.1202C17.5148 70.7141 17.8552 71.2567 18.2931 71.7154C18.731 72.174 19.2574 72.5391 19.8404 72.7885C20.4234 73.0379 21.051 73.1665 21.6851 73.1665C22.3192 73.1665 22.9468 73.0379 23.5298 72.7885C24.1128 72.5391 24.6392 72.174 25.0771 71.7154C25.5151 71.2567 25.8554 70.7141 26.0777 70.1202C26.2999 69.5263 26.3994 68.8934 26.3701 68.26C26.3701 65.67 21.6601 58.9 21.6601 58.9C21.6601 58.9 17.0001 65.67 17.0001 68.26Z" fill="#4469E4"/>
<path fill-rule="evenodd" clip-rule="evenodd" d="M73.78 68.09C73.78 69.3339 74.2742 70.5268 75.1537 71.4063C76.0332 72.2859 77.2262 72.78 78.47 72.78C79.7139 72.78 80.9068 72.2859 81.7864 71.4063C82.6659 70.5268 83.16 69.3339 83.16 68.09C83.16 65.5 78.44 58.73 78.44 58.73C78.44 58.73 73.78 65.5 73.78 68.09Z" fill="#4469E4"/>
<path fill-rule="evenodd" clip-rule="evenodd" d="M59.6 70.48C59.5707 71.1135 59.6702 71.7463 59.8924 72.3402C60.1147 72.9341 60.455 73.4768 60.893 73.9354C61.3309 74.394 61.8573 74.7591 62.4403 75.0085C63.0233 75.2579 63.6508 75.3865 64.285 75.3865C64.9191 75.3865 65.5466 75.2579 66.1297 75.0085C66.7127 74.7591 67.2391 74.394 67.677 73.9354C68.1149 73.4768 68.4553 72.9341 68.6775 72.3402C68.8998 71.7463 68.9992 71.1135 68.97 70.48C68.97 67.89 64.26 61.12 64.26 61.12C64.26 61.12 59.59 67.89 59.6 70.48Z" fill="#4469E4"/>
<path fill-rule="evenodd" clip-rule="evenodd" d="M31.2101 70.56C31.1808 71.1935 31.2803 71.8263 31.5025 72.4202C31.7248 73.0141 32.0651 73.5568 32.5031 74.0154C32.941 74.474 33.4674 74.8391 34.0504 75.0885C34.6334 75.3379 35.261 75.4665 35.8951 75.4665C36.5292 75.4665 37.1568 75.3379 37.7398 75.0885C38.3228 74.8391 38.8492 74.474 39.2871 74.0154C39.725 73.5568 40.0654 73.0141 40.2876 72.4202C40.5099 71.8263 40.6094 71.1935 40.5801 70.56C40.5801 67.97 35.8701 61.19 35.8701 61.19C35.8701 61.19 31.2001 68 31.2101 70.56Z" fill="#4469E4"/>
</svg>
