<?xml version="1.0" encoding="UTF-8" standalone="no"?>
<!DOCTYPE svg PUBLIC "-//W3C//DTD SVG 1.1//EN" "http://www.w3.org/Graphics/SVG/1.1/DTD/svg11.dtd">
<svg width="100%" height="100%" viewBox="0 0 256 249" version="1.1" xmlns="http://www.w3.org/2000/svg" xmlns:xlink="http://www.w3.org/1999/xlink" xml:space="preserve" xmlns:serif="http://www.serif.com/" style="fill-rule:evenodd;clip-rule:evenodd;stroke-linejoin:round;stroke-miterlimit:2;">
    <g transform="matrix(3.125,0,0,3.125,0,0)">
        <g transform="matrix(1,0,0,1,-9.1921,-10.2455)">
            <path d="M32.164,53.59C34.898,51.766 38.437,50.731 42.059,50.488L42.062,81.3C42.062,85.797 36.586,88.113 33.371,84.898C30.973,82.5 32.773,79.621 30.195,79.621C26.383,79.621 29.133,89.754 36.969,89.754C41.613,89.754 45.422,85.945 45.422,81.301L45.422,50.489C49.047,50.731 52.582,51.766 55.316,53.59C54.996,45.079 53.633,37.473 51.59,31.789C46.926,18.809 40.555,18.809 35.891,31.789C33.848,37.473 32.484,45.082 32.164,53.59L32.164,53.59ZM76.898,31.074C75.164,30.078 74.617,27.82 75.531,26.058C76.394,24.394 79.761,22.988 81.617,22.078C82.078,25.367 83.347,30.18 79.64,31.363C78.73,31.656 77.73,31.555 76.898,31.074L76.898,31.074ZM68.129,30.051C65.23,33.992 59.593,29.465 62.543,25.543C63.511,24.258 66.672,22.871 68.293,22.078C68.632,24.516 69.464,28.234 68.129,30.051L68.129,30.051ZM85.504,19.242C83.769,18.246 83.222,15.992 84.136,14.226C85,12.562 88.367,11.156 90.222,10.246C90.683,13.535 91.949,18.347 88.246,19.531C87.328,19.824 86.339,19.714 85.503,19.242L85.504,19.242ZM72.184,19.242C70.449,18.246 69.902,15.988 70.816,14.226C71.68,12.562 75.047,11.156 76.902,10.246C77.363,13.535 78.629,18.347 74.926,19.531C74.015,19.824 73.012,19.722 72.183,19.242L72.184,19.242ZM58.856,19.242C57.121,18.246 56.574,15.988 57.488,14.226C58.352,12.562 61.719,11.156 63.574,10.246C64.035,13.535 65.301,18.347 61.598,19.531C60.684,19.824 59.691,19.714 58.855,19.242L58.856,19.242ZM60.356,26.335C59.676,28.703 60.676,31.367 62.844,32.527L62.844,32.531C64.574,33.464 66.582,33.331 68.156,32.253C73.852,37.984 77.434,45.487 78.289,53.624C72.504,49.804 64.613,49.628 58.684,53.816C58.321,43.32 56.102,29.75 50.614,22.73C54.044,23.425 57.325,24.652 60.356,26.335L60.356,26.335ZM36.864,22.73C31.379,29.746 29.16,43.316 28.797,53.808C22.867,49.62 14.977,49.796 9.192,53.616C10.802,38.374 21.977,25.772 36.864,22.729L36.864,22.73Z"/>
        </g>
    </g>
</svg>
