<svg width="100" height="100" viewBox="0 0 100 100" fill="none" xmlns="http://www.w3.org/2000/svg">
<path d="M38.05 91.11C38.05 92.4361 38.5768 93.7078 39.5145 94.6455C40.4522 95.5832 41.724 96.11 43.05 96.11C44.3761 96.11 45.6479 95.5832 46.5856 94.6455C47.5233 93.7078 48.05 92.4361 48.05 91.11C48.05 88.35 43.05 81.11 43.05 81.11C43.05 81.11 38.05 88.35 38.05 91.11Z" fill="#4469E4"/>
<path d="M22.8601 86.11C22.8601 87.4361 23.3869 88.7078 24.3246 89.6455C25.2623 90.5832 26.534 91.11 27.8601 91.11C29.1862 91.11 30.458 90.5832 31.3956 89.6455C32.3333 88.7078 32.8601 87.4361 32.8601 86.11C32.8601 83.35 27.8601 76.11 27.8601 76.11C27.8601 76.11 22.8601 83.35 22.8601 86.11Z" fill="#4469E4"/>
<path d="M53.24 91.11C53.24 92.4361 53.7668 93.7078 54.7045 94.6455C55.6421 95.5832 56.9139 96.11 58.24 96.11C59.5661 96.11 60.8378 95.5832 61.7755 94.6455C62.7132 93.7078 63.24 92.4361 63.24 91.11C63.24 88.35 58.24 81.11 58.24 81.11C58.24 81.11 53.24 88.35 53.24 91.11Z" fill="#4469E4"/>
<path d="M68.4299 86.11C68.4299 87.4361 68.9567 88.7078 69.8944 89.6455C70.8321 90.5832 72.1038 91.11 73.4299 91.11C74.756 91.11 76.0278 90.5832 76.9655 89.6455C77.9031 88.7078 78.4299 87.4361 78.4299 86.11C78.4299 83.35 73.4299 76.11 73.4299 76.11C73.4299 76.11 68.4299 83.35 68.4299 86.11Z" fill="#4469E4"/>
<path fill-rule="evenodd" clip-rule="evenodd" d="M45 74.21C45 75.5361 45.5268 76.8078 46.4645 77.7455C47.4021 78.6832 48.6739 79.21 50 79.21C51.3261 79.21 52.5979 78.6832 53.5355 77.7455C54.4732 76.8078 55 75.5361 55 74.21C55 71.44 50 64.21 50 64.21C50 64.21 45 71.44 45 74.21Z" fill="#4469E4"/>
<path d="M42.996 13.4032C43.305 13.3993 43.6102 13.3343 43.894 13.2118C44.1777 13.0893 44.4343 12.9118 44.6491 12.6896C44.8639 12.4674 45.0325 12.2049 45.1453 11.9171C45.258 11.6294 45.3127 11.3222 45.306 11.0132V6.37322C45.306 5.75261 45.0595 5.15742 44.6207 4.71859C44.1818 4.27975 43.5866 4.03322 42.966 4.03322C42.3454 4.03322 41.7502 4.27975 41.3114 4.71859C40.8726 5.15742 40.626 5.75261 40.626 6.37322V11.0132C40.6193 11.3272 40.6758 11.6394 40.7923 11.9311C40.9088 12.2228 41.0828 12.4881 41.3039 12.7111C41.5251 12.9341 41.7889 13.1103 42.0796 13.2292C42.3703 13.3481 42.682 13.4073 42.996 13.4032Z" fill="#ED6C3A"/>
<path d="M61.1962 19.5732L64.5062 16.2632C64.9465 15.8243 65.1943 15.2285 65.1953 14.6068C65.1962 13.9851 64.9501 13.3885 64.5112 12.9482C64.0723 12.508 63.4764 12.2601 62.8547 12.2592C62.2331 12.2582 61.6365 12.5043 61.1962 12.9432L57.8762 16.2632C57.4373 16.7035 57.1912 17.3001 57.1921 17.9218C57.1931 18.5435 57.4409 19.1393 57.8812 19.5782C58.3215 20.0172 58.9181 20.2632 59.5397 20.2623C60.1614 20.2614 60.7573 20.0135 61.1962 19.5732Z" fill="#ED6C3A"/>
<path d="M14.8362 36.8432H19.5262C19.847 36.8642 20.1687 36.8191 20.4714 36.7107C20.7741 36.6024 21.0514 36.4331 21.286 36.2133C21.5207 35.9934 21.7077 35.7278 21.8356 35.4328C21.9634 35.1378 22.0294 34.8198 22.0294 34.4982C22.0294 34.1767 21.9634 33.8586 21.8356 33.5636C21.7077 33.2687 21.5207 33.003 21.286 32.7832C21.0514 32.5634 20.7741 32.3941 20.4714 32.2857C20.1687 32.1774 19.847 32.1323 19.5262 32.1532H14.8362C14.2407 32.1921 13.6824 32.4561 13.2744 32.8916C12.8664 33.3271 12.6394 33.9015 12.6394 34.4982C12.6394 35.095 12.8664 35.6694 13.2744 36.1049C13.6824 36.5404 14.2407 36.8043 14.8362 36.8432Z" fill="#ED6C3A"/>
<path d="M64.0562 34.4932C64.0562 35.1165 64.3037 35.7142 64.7445 36.1549C65.1852 36.5957 65.7829 36.8432 66.4062 36.8432H71.0862C71.407 36.8642 71.7287 36.8191 72.0314 36.7107C72.3341 36.6024 72.6113 36.4331 72.846 36.2133C73.0806 35.9934 73.2677 35.7278 73.3955 35.4328C73.5234 35.1378 73.5894 34.8198 73.5894 34.4982C73.5894 34.1767 73.5234 33.8586 73.3955 33.5636C73.2677 33.2687 73.0806 33.003 72.846 32.7832C72.6113 32.5634 72.3341 32.3941 72.0314 32.2857C71.7287 32.1774 71.407 32.1323 71.0862 32.1532H66.4062C65.7846 32.1532 65.1884 32.3995 64.748 32.838C64.3076 33.2766 64.0588 33.8717 64.0562 34.4932Z" fill="#ED6C3A"/>
<path d="M24.736 19.5732C25.175 20.0122 25.7703 20.2587 26.391 20.2587C27.0118 20.2587 27.6071 20.0122 28.046 19.5732C28.485 19.1343 28.7316 18.539 28.7316 17.9182C28.7316 17.2975 28.485 16.7022 28.046 16.2632L24.736 12.9432C24.5219 12.7087 24.2624 12.5201 23.9733 12.3887C23.6842 12.2573 23.3715 12.1858 23.054 12.1787C22.7366 12.1715 22.4209 12.2287 22.1262 12.3469C21.8315 12.4651 21.5637 12.6418 21.3392 12.8664C21.1146 13.0909 20.9379 13.3586 20.8197 13.6534C20.7015 13.9481 20.6443 14.2637 20.6515 14.5812C20.6587 14.8987 20.7301 15.2114 20.8615 15.5005C20.9929 15.7896 21.1816 16.0491 21.416 16.2632L24.736 19.5732Z" fill="#ED6C3A"/>
<path d="M59.3354 34.1048C59.279 29.7719 57.509 25.6369 54.4116 22.605C51.3051 19.5641 47.1178 17.8818 42.7709 17.9282C38.424 17.9746 34.2735 19.746 31.2326 22.8525C28.1917 25.959 26.5095 30.1463 26.5559 34.4932C26.5685 36.9368 27.1369 39.3451 28.2176 41.5361C28.4477 41.5264 28.6786 41.5215 28.9099 41.5215C29.683 41.523 30.4549 41.5798 31.2199 41.6915C31.6663 41.0799 32.1413 40.4918 32.6428 39.9291C31.7393 38.2589 31.2595 36.3924 31.2459 34.4932C31.2452 31.5521 32.3523 28.7187 34.3466 26.557C36.341 24.3954 39.0762 23.0642 42.0079 22.8284C44.9395 22.5926 47.8524 23.4695 50.1666 25.2846C52.4708 27.092 54.0132 29.6974 54.4898 32.5859C56.1525 32.9131 57.7776 33.4218 59.3354 34.1048Z" fill="#ED6C3A"/>
<path d="M68.78 41.6915C69.545 41.5802 70.3169 41.5234 71.09 41.5215C75.4422 41.5215 79.6161 43.2504 82.6936 46.3279C85.7711 49.4054 87.5 53.5793 87.5 57.9315C87.5 62.2837 85.7711 66.4577 82.6936 69.5351C79.6161 72.6126 75.4422 74.3415 71.09 74.3415C69.1034 74.3422 67.1337 73.976 65.28 73.2615C63.9393 74.4395 62.477 75.4499 60.9256 76.2803L58.8032 72.118C60.9417 70.9619 62.8342 69.394 64.37 67.5015C66.333 68.8974 68.6813 69.6487 71.09 69.6515C72.8236 69.6545 74.5362 69.2728 76.1045 68.534C77.6727 67.7952 79.0576 66.7178 80.1592 65.3792C81.2608 64.0407 82.0518 62.4744 82.4751 60.7933C82.8984 59.1123 82.9435 57.3582 82.6071 55.6576C82.2708 53.957 81.5614 52.3521 80.53 50.9587C79.4986 49.5654 78.171 48.4181 76.6427 47.5998C75.1145 46.7814 73.4237 46.3122 71.6923 46.226C69.9609 46.1399 68.2319 46.4389 66.63 47.1015C65.0797 44.0187 62.7033 41.4273 59.7659 39.6166C56.8285 37.8059 53.4457 36.847 49.995 36.847C46.5443 36.847 43.1615 37.8059 40.2241 39.6166C37.2867 41.4273 34.9103 44.0187 33.36 47.1015C31.9501 46.5135 30.4376 46.211 28.91 46.2115C27.0696 46.2109 25.255 46.644 23.6133 47.4759C21.9716 48.3077 20.5491 49.5147 19.4611 50.9991C18.3732 52.4835 17.6504 54.2035 17.3514 56.0194C17.0525 57.8354 17.1858 59.6962 17.7405 61.451C18.2952 63.2058 19.2557 64.8052 20.5442 66.1194C21.8326 67.4336 23.4126 68.4255 25.1561 69.0149C26.8996 69.6042 28.7574 69.7743 30.5789 69.5114C32.4005 69.2485 34.1344 68.5599 35.64 67.5015C37.2275 69.4578 39.1963 71.0672 41.424 72.2335L39.1601 76.326C37.5769 75.487 36.0854 74.4612 34.72 73.2615C32.8661 73.9751 30.8965 74.3412 28.91 74.3415C24.5578 74.3415 20.3838 72.6126 17.3064 69.5351C14.2289 66.4577 12.5 62.2837 12.5 57.9315C12.5 53.5793 14.2289 49.4054 17.3064 46.3279C20.3838 43.2504 24.5578 41.5215 28.91 41.5215C29.6831 41.523 30.455 41.5798 31.22 41.6915C33.378 38.7347 36.2038 36.3293 39.4672 34.6709C42.7306 33.0126 46.3394 32.1482 50 32.1482C53.6606 32.1482 57.2694 33.0126 60.5328 34.6709C63.7962 36.3293 66.622 38.7347 68.78 41.6915Z" fill="#4469E4"/>
</svg>
