<svg width="100" height="100" viewBox="0 0 100 100" fill="none" xmlns="http://www.w3.org/2000/svg">
<path fill-rule="evenodd" clip-rule="evenodd" d="M71.0901 24.22C70.3172 24.2178 69.5453 24.2713 68.7801 24.38C66.622 21.4232 63.7963 19.0177 60.5329 17.3594C57.2695 15.7011 53.6607 14.8367 50.0001 14.8367C46.3395 14.8367 42.7307 15.7011 39.4673 17.3594C36.2039 19.0177 33.3781 21.4232 31.2201 24.38C28.7454 24.0361 26.2249 24.2617 23.8507 25.0398C21.4765 25.8178 19.3113 27.1277 17.5202 28.8696C15.7291 30.6115 14.3593 32.7394 13.5155 35.091C12.6716 37.4426 12.3758 39.9559 12.6506 42.4391C12.9255 44.9224 13.7638 47.3102 15.1016 49.4203C16.4393 51.5304 18.2412 53.3072 20.3699 54.6152C22.4986 55.9232 24.8979 56.7279 27.3848 56.9679C29.8717 57.2079 32.3806 56.8768 34.7201 56C36.5198 57.5372 38.543 58.7915 40.7201 59.72L44.3601 56C40.9591 54.9123 37.9335 52.8883 35.6301 50.16C33.9663 51.3309 32.0261 52.048 30.0008 52.2409C27.9754 52.4337 25.9348 52.0955 24.0799 51.2597C22.2251 50.4238 20.62 49.1191 19.4228 47.4742C18.2257 45.8292 17.4777 43.9007 17.2527 41.8786C17.0277 39.8566 17.3334 37.8109 18.1397 35.9429C18.946 34.075 20.225 32.4494 21.8507 31.2262C23.4765 30.0031 25.3929 29.2246 27.4111 28.9675C29.4292 28.7104 31.4796 28.9835 33.3601 29.76C34.9078 26.6742 37.2833 24.0797 40.221 22.2665C43.1587 20.4534 46.5429 19.4932 49.9951 19.4932C53.4473 19.4932 56.8314 20.4534 59.7692 22.2665C62.7069 24.0797 65.0824 26.6742 66.6301 29.76C68.5124 28.9793 70.5657 28.703 72.5875 28.9581C74.6092 29.2133 76.5295 29.9912 78.1588 31.2151C79.7881 32.4389 81.0702 34.0665 81.8785 35.9371C82.6868 37.8077 82.9934 39.8568 82.768 41.882C82.5426 43.9073 81.7931 45.8388 80.5934 47.486C79.3937 49.1332 77.7852 50.4391 75.9267 51.2748C74.0682 52.1106 72.0239 52.4473 69.9955 52.2518C67.9671 52.0563 66.0248 51.3353 64.3601 50.16C62.8204 51.9828 60.9511 53.4992 58.8501 54.63L56.8501 60.54C59.943 59.6239 62.813 58.0782 65.2801 56C67.5278 56.8499 69.9347 57.1955 72.3307 57.0123C74.7267 56.8291 77.0532 56.1216 79.1455 54.9399C81.2379 53.7582 83.0449 52.1311 84.4389 50.1737C85.8329 48.2164 86.7797 45.9767 87.2124 43.6129C87.6451 41.2492 87.5531 38.8193 86.9428 36.4951C86.3326 34.1709 85.219 32.0092 83.6809 30.1629C82.1429 28.3167 80.2179 26.831 78.0421 25.8109C75.8664 24.7909 73.4931 24.2614 71.0901 24.26V24.22Z" fill="#4469E4"/>
<path fill-rule="evenodd" clip-rule="evenodd" d="M40.8401 66.41L45.5201 71.09L40.8401 85.16L54.9001 71.09L50.2101 66.41L54.9001 52.34L40.8401 66.41Z" fill="#ED6C3A"/>
<path fill-rule="evenodd" clip-rule="evenodd" d="M59.0001 71.13C58.9708 71.7635 59.0703 72.3963 59.2926 72.9902C59.5148 73.5841 59.8552 74.1268 60.2931 74.5854C60.731 75.044 61.2574 75.4091 61.8404 75.6585C62.4234 75.9079 63.051 76.0365 63.6851 76.0365C64.3192 76.0365 64.9468 75.9079 65.5298 75.6585C66.1128 75.4091 66.6392 75.044 67.0771 74.5854C67.5151 74.1268 67.8554 73.5841 68.0777 72.9902C68.2999 72.3963 68.3994 71.7635 68.3701 71.13C68.3701 68.54 63.6801 61.76 63.6801 61.76C63.6801 61.76 59.0001 68.54 59.0001 71.13Z" fill="#4469E4"/>
<path fill-rule="evenodd" clip-rule="evenodd" d="M30.12 71.13C30.0907 71.7635 30.1902 72.3963 30.4124 72.9902C30.6347 73.5841 30.9751 74.1268 31.413 74.5854C31.8509 75.044 32.3773 75.4091 32.9603 75.6585C33.5433 75.9079 34.1709 76.0365 34.805 76.0365C35.4391 76.0365 36.0667 75.9079 36.6497 75.6585C37.2327 75.4091 37.7591 75.044 38.197 74.5854C38.6349 74.1268 38.9753 73.5841 39.1975 72.9902C39.4198 72.3963 39.5193 71.7635 39.49 71.13C39.49 68.54 34.81 61.76 34.81 61.76C34.81 61.76 30.12 68.54 30.12 71.13Z" fill="#4469E4"/>
<path fill-rule="evenodd" clip-rule="evenodd" d="M15.3201 66.44C15.3201 67.6839 15.8142 68.8768 16.6937 69.7563C17.5733 70.6359 18.7662 71.13 20.0101 71.13C21.2539 71.13 22.4469 70.6359 23.3264 69.7563C24.2059 68.8768 24.7001 67.6839 24.7001 66.44C24.7001 63.85 20.0101 57.07 20.0101 57.07C20.0101 57.07 15.3201 63.85 15.3201 66.44Z" fill="#4469E4"/>
<path fill-rule="evenodd" clip-rule="evenodd" d="M73.77 66.44C73.77 67.6839 74.2641 68.8768 75.1437 69.7563C76.0232 70.6359 77.2162 71.13 78.46 71.13C79.7039 71.13 80.8968 70.6359 81.7764 69.7563C82.6559 68.8768 83.15 67.6839 83.15 66.44C83.15 63.85 78.46 57.07 78.46 57.07C78.46 57.07 73.77 63.85 73.77 66.44Z" fill="#4469E4"/>
</svg>
