<svg width="100" height="100" viewBox="0 0 100 100" fill="none" xmlns="http://www.w3.org/2000/svg">
<path d="M71.09 25.87C70.3169 25.8719 69.545 25.9287 68.78 26.04C66.622 23.0832 63.7962 20.6777 60.5328 19.0194C57.2694 17.361 53.6606 16.4967 50 16.4967C46.3394 16.4967 42.7306 17.361 39.4672 19.0194C36.2038 20.6777 33.378 23.0832 31.22 26.04C30.455 25.9283 29.6831 25.8715 28.91 25.87C24.5578 25.87 20.3838 27.5989 17.3064 30.6764C14.2289 33.7538 12.5 37.9278 12.5 42.28C12.5 46.6322 14.2289 50.8061 17.3064 53.8836C20.3838 56.9611 24.5578 58.69 28.91 58.69C30.8965 58.6897 32.8661 58.3236 34.72 57.61C38.9447 61.3219 44.3762 63.3691 50 63.3691C55.6238 63.3691 61.0553 61.3219 65.28 57.61C67.1337 58.3245 69.1034 58.6906 71.09 58.69C75.4422 58.69 79.6161 56.9611 82.6936 53.8836C85.7711 50.8061 87.5 46.6322 87.5 42.28C87.5 37.9278 85.7711 33.7538 82.6936 30.6764C79.6161 27.5989 75.4422 25.87 71.09 25.87ZM71.09 54C68.6813 53.9971 66.333 53.2458 64.37 51.85C62.6355 53.9874 60.4458 55.7108 57.9607 56.8945C55.4756 58.0783 52.7576 58.6925 50.005 58.6925C47.2524 58.6925 44.5344 58.0783 42.0493 56.8945C39.5642 55.7108 37.3745 53.9874 35.64 51.85C34.1344 52.9083 32.4005 53.5969 30.5789 53.8599C28.7574 54.1228 26.8996 53.9527 25.1561 53.3633C23.4126 52.774 21.8326 51.782 20.5442 50.4678C19.2557 49.1537 18.2952 47.5543 17.7405 45.7995C17.1858 44.0447 17.0525 42.1838 17.3514 40.3679C17.6504 38.5519 18.3732 36.832 19.4611 35.3476C20.5491 33.8632 21.9716 32.6561 23.6133 31.8243C25.255 30.9925 27.0696 30.5593 28.91 30.56C30.4376 30.5595 31.9501 30.862 33.36 31.45C34.9103 28.3672 37.2867 25.7758 40.2241 23.9651C43.1615 22.1543 46.5443 21.1955 49.995 21.1955C53.4457 21.1955 56.8285 22.1543 59.7659 23.9651C62.7033 25.7758 65.0797 28.3672 66.63 31.45C68.2319 30.7873 69.9609 30.4883 71.6923 30.5745C73.4237 30.6606 75.1145 31.1298 76.6427 31.9482C78.171 32.7666 79.4986 33.9138 80.53 35.3072C81.5614 36.7006 82.2708 38.3054 82.6071 40.006C82.9435 41.7067 82.8984 43.4607 82.4751 45.1418C82.0518 46.8229 81.2608 48.3892 80.1592 49.7277C79.0576 51.0662 77.6727 52.1437 76.1045 52.8825C74.5362 53.6213 72.8236 54.0029 71.09 54Z" fill="#4469E4"/>
<path d="M56 75.37H52.5801L54.2701 72.45C54.3939 72.2799 54.4803 72.0855 54.5236 71.8797C54.5668 71.6738 54.566 71.4611 54.5212 71.2555C54.4764 71.05 54.3885 70.8563 54.2634 70.6871C54.1383 70.518 53.9788 70.3772 53.7954 70.2742C53.612 70.1711 53.4089 70.108 53.1994 70.0891C52.9898 70.0702 52.7787 70.0959 52.5798 70.1644C52.3809 70.233 52.1988 70.3429 52.0454 70.4869C51.8921 70.6309 51.771 70.8058 51.69 71L50 73.88L48.3101 71C48.2145 70.8262 48.0852 70.6733 47.9298 70.5502C47.7744 70.427 47.596 70.3361 47.405 70.2828C47.214 70.2295 47.0142 70.2149 46.8175 70.2397C46.6208 70.2646 46.431 70.3285 46.2593 70.4277C46.0876 70.5268 45.9374 70.6593 45.8175 70.8173C45.6976 70.9752 45.6105 71.1555 45.5612 71.3476C45.5119 71.5397 45.5015 71.7397 45.5304 71.9358C45.5594 72.132 45.6273 72.3204 45.73 72.49L47.42 75.41H44.05C43.6522 75.41 43.2707 75.568 42.9894 75.8493C42.7081 76.1307 42.55 76.5122 42.55 76.91C42.55 77.3078 42.7081 77.6894 42.9894 77.9707C43.2707 78.252 43.6522 78.41 44.05 78.41H47.42L45.73 81.34C45.5422 81.6815 45.4957 82.0831 45.6005 82.4585C45.7053 82.8339 45.953 83.1533 46.2905 83.3482C46.628 83.5432 47.0285 83.5981 47.406 83.5012C47.7836 83.4043 48.1081 83.1634 48.3101 82.83L50 79.83L51.69 82.76C51.892 83.0934 52.2165 83.3343 52.5941 83.4312C52.9716 83.5281 53.3721 83.4732 53.7096 83.2782C54.0471 83.0833 54.2948 82.7639 54.3996 82.3885C54.5044 82.0131 54.4579 81.6115 54.2701 81.27L52.5801 78.34H56C56.3979 78.34 56.7794 78.182 57.0607 77.9007C57.342 77.6194 57.5 77.2378 57.5 76.84C57.5 76.4422 57.342 76.0607 57.0607 75.7793C56.7794 75.498 56.3979 75.34 56 75.34V75.37Z" fill="#4469E4"/>
</svg>
