<svg width="100" height="100" viewBox="0 0 100 100" fill="none" xmlns="http://www.w3.org/2000/svg">
<path d="M85.72 32.1C85.72 23.65 70.72 17.03 51.46 17.03C32.2 17.03 17.2 23.65 17.2 32.1C17.2 34.78 18.72 37.28 21.41 39.44C20.5945 40.6149 20.1551 42.0098 20.15 43.44C20.15 46.44 22.15 49.04 25.57 51.19C25.2407 51.9719 25.0707 52.8116 25.07 53.66C25.07 57.23 28.07 60.32 32.98 62.46C32.98 62.59 32.98 62.71 32.98 62.84C32.98 65.35 34.63 67.6 37.44 69.32C37.44 69.43 37.44 69.54 37.44 69.66C37.44 73.36 41.12 76.42 46.73 77.94C47.49 80.47 51.38 82.68 56.05 83.33C55.992 83.47 55.9582 83.6187 55.95 83.77C55.95 85.33 58.6 86.59 61.86 86.59C65.12 86.59 67.77 85.33 67.77 83.77C67.7335 83.4214 67.61 83.0877 67.4108 82.7993C67.2116 82.511 66.9431 82.2774 66.63 82.12C69.16 81 71 79.28 71 77C70.9885 76.065 70.6725 75.1593 70.1 74.42C70.8119 73.8352 71.3914 73.1056 71.8 72.2798C72.2086 71.454 72.437 70.5508 72.47 69.63C72.4521 68.4105 72.0574 67.2263 71.34 66.24C72.0565 65.2381 72.4506 64.0416 72.47 62.81C72.4483 61.8229 72.1802 60.857 71.69 60C74.03 58.18 75.38 56 75.38 53.63C75.372 52.6999 75.164 51.7825 74.77 50.94C77.97 48.83 79.77 46.25 79.77 43.41C79.7718 42.5856 79.6192 41.7682 79.32 41C83.34 38.48 85.72 35.44 85.72 32.1ZM23.72 43.39C23.7428 42.6721 23.9757 41.9767 24.39 41.39C27.1103 42.8806 30.0014 44.0357 33 44.83C31.0375 45.6405 29.2359 46.7953 27.68 48.24C25.13 46.72 23.71 45 23.71 43.39H23.72ZM68.87 69.61C68.8004 70.1381 68.6123 70.6437 68.3196 71.0887C68.0269 71.5338 67.6373 71.9069 67.18 72.18C66.1637 71.6997 65.0971 71.3341 64 71.09C65.6565 70.5454 67.2285 69.7712 68.67 68.79C68.7885 69.048 68.8563 69.3264 68.87 69.61ZM58.73 74.06C59.9471 74.0573 61.162 74.1644 62.36 74.38C59.9302 75.0503 57.4205 75.3867 54.9 75.38C53.98 75.38 53.1 75.38 52.24 75.26C54.3035 74.4376 56.5088 74.0298 58.73 74.06ZM52.73 69.24C49.1107 69.284 45.511 68.7021 42.09 67.52C43.2121 66.5503 44.5132 65.8097 45.92 65.34C47.33 65.44 48.77 65.51 50.26 65.51C53.8269 65.5306 57.3862 65.1787 60.88 64.46C62.6645 64.8151 64.3888 65.4246 66 66.27C63.13 68 58.35 69.24 52.69 69.24H52.73ZM54.9 60.3C51.6682 60.2659 48.4514 60.7452 45.37 61.72C42.8376 61.4976 40.3306 61.0457 37.88 60.37C39.88 58.61 43.81 57.09 48.82 56.55H49.98C51.62 56.55 53.21 56.49 54.77 56.38C58.6301 56.4938 62.4173 57.4603 65.86 59.21C64.2405 59.8783 62.568 60.4102 60.86 60.8C58.8921 60.4567 56.8975 60.2894 54.9 60.3ZM52.69 52.77C51.25 52.77 49.87 52.85 48.53 52.98C42.5881 52.9818 36.6897 51.9672 31.09 49.98C33.8158 48.182 36.8772 46.9541 40.09 46.37C43.8666 46.9391 47.6807 47.2232 51.5 47.22C54.8064 47.2228 58.1097 47.0157 61.39 46.6C64.1714 47.1925 66.8193 48.2943 69.2 49.85C64.5981 51.5778 59.7585 52.5896 54.85 52.85C54.12 52.79 53.41 52.77 52.69 52.77ZM50.22 41.72C46.7521 41.7115 43.2918 42.0465 39.89 42.72C35.4594 42.0832 31.1486 40.789 27.1 38.88C31.44 36 39.65 33.76 50 33.76C61.31 33.76 70.1 36.47 74 39.76C70.0091 41.3622 65.8278 42.4412 61.56 42.97C57.8375 42.1375 54.0344 41.7183 50.22 41.72ZM28.63 53.61C28.6354 53.3458 28.6758 53.0836 28.75 52.83C31.906 54.1561 35.2096 55.0995 38.59 55.64C36.901 56.438 35.4192 57.6152 34.26 59.08C30.7 57.51 28.63 55.52 28.63 53.61ZM36.75 63.76C37.75 64.06 38.88 64.33 40.03 64.56C39.5563 64.9481 39.127 65.3874 38.75 65.87C37.9067 65.358 37.2161 64.6294 36.75 63.76ZM41.55 71.16C44.091 71.9699 46.7196 72.4734 49.38 72.66C48.6112 73.0984 47.9325 73.6787 47.38 74.37C44.62 73.58 42.53 72.41 41.55 71.16ZM67.39 77C67.39 77.88 64.45 79.93 58.73 79.93C56.8077 79.9468 54.8989 79.6078 53.1 78.93C53.69 78.93 54.29 78.93 54.9 78.93C59.0939 79.0328 63.2561 78.1777 67.07 76.43C67.2375 76.5788 67.3502 76.7795 67.39 77ZM68.87 62.81C68.859 63.1251 68.7841 63.4347 68.65 63.72C68.0638 63.3506 67.4561 63.0166 66.83 62.72C67.47 62.46 68.07 62.19 68.64 61.91C68.7774 62.184 68.8557 62.4838 68.87 62.79V62.81ZM71.82 53.63C71.82 54.87 70.95 56.14 69.37 57.32C68.0416 56.293 66.5691 55.4674 65 54.87C67.2575 54.3272 69.4601 53.5773 71.58 52.63C71.7164 52.9402 71.7976 53.2718 71.82 53.61V53.63ZM76.25 43.41C76.25 44.97 74.94 46.6 72.63 48.07C71.3739 46.9247 69.951 45.9772 68.41 45.26C71.0624 44.6329 73.6503 43.7591 76.14 42.65C76.2051 42.8916 76.242 43.1399 76.25 43.39V43.41ZM77.39 38C72.91 33.32 62.6 30.2 50 30.2C38.45 30.2 28.84 32.82 23.85 36.85C21.85 35.32 20.78 33.69 20.78 32.1C20.78 26.65 33.38 20.59 51.48 20.59C69.58 20.59 82.15 26.65 82.15 32.1C82.15 34.1 80.44 36.18 77.39 38ZM16.07 39.53C16.0719 39.8844 15.9686 40.2315 15.7732 40.5272C15.5777 40.8228 15.2988 41.0538 14.9719 41.1908C14.645 41.3279 14.2848 41.3647 13.9369 41.2968C13.589 41.2289 13.2692 41.0592 13.0178 40.8092C12.7665 40.5593 12.595 40.2404 12.5251 39.8929C12.4552 39.5454 12.4901 39.185 12.6253 38.8573C12.7605 38.5297 12.9899 38.2495 13.2845 38.0524C13.579 37.8552 13.9255 37.75 14.28 37.75C14.753 37.75 15.2068 37.9372 15.5422 38.2707C15.8776 38.6043 16.0673 39.057 16.07 39.53ZM72.51 15.24C72.5119 15.5944 72.4086 15.9415 72.2132 16.2372C72.0177 16.5328 71.7388 16.7638 71.4119 16.9008C71.085 17.0379 70.7248 17.0747 70.3769 17.0068C70.029 16.9389 69.7092 16.7692 69.4578 16.5193C69.2065 16.2693 69.035 15.9504 68.9651 15.6029C68.8952 15.2554 68.9301 14.895 69.0653 14.5673C69.2005 14.2397 69.4299 13.9595 69.7245 13.7624C70.019 13.5652 70.3655 13.46 70.72 13.46C71.193 13.46 71.6468 13.6472 71.9822 13.9807C72.3176 14.3143 72.5073 14.767 72.51 15.24ZM42.5 26C42.5 26.352 42.3956 26.6962 42.2 26.9889C42.0044 27.2816 41.7264 27.5098 41.4011 27.6445C41.0759 27.7792 40.718 27.8145 40.3727 27.7458C40.0274 27.6771 39.7103 27.5076 39.4613 27.2586C39.2124 27.0097 39.0428 26.6925 38.9742 26.3472C38.9055 26.002 38.9407 25.6441 39.0755 25.3188C39.2102 24.9936 39.4383 24.7156 39.7311 24.52C40.0238 24.3244 40.3679 24.22 40.72 24.22C41.1921 24.22 41.6448 24.4075 41.9786 24.7413C42.3124 25.0752 42.5 25.5279 42.5 26ZM56.73 37.52C56.7318 37.877 56.6268 38.2263 56.4285 38.5231C56.2303 38.82 55.9478 39.0508 55.6174 39.1859C55.2869 39.321 54.9237 39.3542 54.5742 39.2812C54.2248 39.2083 53.9052 39.0325 53.6564 38.7765C53.4076 38.5206 53.241 38.196 53.178 37.8447C53.1151 37.4933 53.1586 37.1311 53.3031 36.8047C53.4475 36.4783 53.6862 36.2025 53.9886 36.0127C54.291 35.823 54.6432 35.728 55 35.74C55.4625 35.7555 55.9011 35.9495 56.2236 36.2814C56.5462 36.6133 56.7276 37.0572 56.73 37.52ZM28.6 15.24C28.6019 15.5949 28.4984 15.9423 28.3025 16.2382C28.1065 16.5341 27.8271 16.7651 27.4996 16.9018C27.1721 17.0385 26.8114 17.0748 26.4632 17.0061C26.1151 16.9373 25.7952 16.7666 25.5443 16.5157C25.2933 16.2647 25.1227 15.9449 25.0539 15.5967C24.9852 15.2486 25.0214 14.8878 25.1582 14.5604C25.2949 14.2329 25.5259 13.9534 25.8217 13.7575C26.1176 13.5616 26.4651 13.458 26.82 13.46C27.2912 13.4626 27.7425 13.651 28.0757 13.9842C28.409 14.3175 28.5973 14.7687 28.6 15.24ZM21.12 53.56C21.1219 53.9144 21.0186 54.2615 20.8232 54.5572C20.6277 54.8528 20.3488 55.0838 20.0219 55.2208C19.695 55.3579 19.3348 55.3947 18.9869 55.3268C18.639 55.2589 18.3192 55.0892 18.0678 54.8392C17.8165 54.5893 17.645 54.2704 17.5751 53.9229C17.5052 53.5754 17.5401 53.215 17.6753 52.8873C17.8105 52.5597 18.0399 52.2795 18.3345 52.0824C18.629 51.8852 18.9755 51.78 19.33 51.78C19.803 51.78 20.2568 51.9672 20.5922 52.3007C20.9276 52.6343 21.1173 53.087 21.12 53.56ZM82.33 53.56C82.33 53.912 82.2256 54.2562 82.03 54.5489C81.8344 54.8416 81.5564 55.0698 81.2311 55.2045C80.9059 55.3392 80.548 55.3745 80.2027 55.3058C79.8574 55.2371 79.5403 55.0676 79.2913 54.8186C79.0424 54.5697 78.8728 54.2525 78.8042 53.9072C78.7355 53.562 78.7707 53.2041 78.9055 52.8788C79.0402 52.5536 79.2683 52.2756 79.5611 52.08C79.8538 51.8844 80.1979 51.78 80.55 51.78C81.0212 51.7826 81.4725 51.971 81.8057 52.3042C82.139 52.6375 82.3273 53.0887 82.33 53.56ZM78.15 67.28C78.15 67.632 78.0456 67.9762 77.85 68.2689C77.6544 68.5616 77.3764 68.7898 77.0511 68.9245C76.7259 69.0592 76.368 69.0945 76.0227 69.0258C75.6774 68.9571 75.3602 68.7876 75.1113 68.5386C74.8624 68.2897 74.6928 67.9725 74.6242 67.6272C74.5555 67.282 74.5907 66.9241 74.7255 66.5988C74.8602 66.2736 75.0883 65.9956 75.3811 65.8C75.6738 65.6044 76.0179 65.5 76.37 65.5C76.842 65.5 77.2948 65.6875 77.6286 66.0213C77.9624 66.3552 78.15 66.8079 78.15 67.28ZM87.5 41.09C87.5 41.442 87.3956 41.7862 87.2 42.0789C87.0044 42.3716 86.7264 42.5998 86.4011 42.7345C86.0759 42.8692 85.718 42.9045 85.3727 42.8358C85.0274 42.7671 84.7103 42.5976 84.4613 42.3486C84.2124 42.0997 84.0428 41.7825 83.9742 41.4372C83.9055 41.092 83.9407 40.7341 84.0755 40.4088C84.2102 40.0836 84.4383 39.8056 84.731 39.61C85.0238 39.4144 85.3679 39.31 85.72 39.31C86.192 39.31 86.6448 39.4975 86.9786 39.8313C87.3124 40.1652 87.5 40.6179 87.5 41.09ZM30.92 64.26C30.9219 64.6149 30.8184 64.9623 30.6225 65.2582C30.4265 65.5541 30.1471 65.7851 29.8196 65.9218C29.4921 66.0585 29.1314 66.0948 28.7832 66.0261C28.4351 65.9573 28.1152 65.7866 27.8643 65.5357C27.6133 65.2847 27.4426 64.9649 27.3739 64.6167C27.3052 64.2686 27.3414 63.9078 27.4782 63.5804C27.6149 63.2529 27.8459 62.9734 28.1417 62.7775C28.4376 62.5816 28.7851 62.478 29.14 62.48C29.612 62.48 30.0648 62.6675 30.3986 63.0013C30.7324 63.3352 30.92 63.7879 30.92 64.26ZM36.86 76.74C36.8699 77.0964 36.7732 77.4477 36.5822 77.7488C36.3912 78.0499 36.1147 78.287 35.788 78.4299C35.4613 78.5728 35.0994 78.6149 34.7487 78.5508C34.398 78.4866 34.0744 78.3192 33.8194 78.07C33.5644 77.8208 33.3897 77.501 33.3176 77.1519C33.2455 76.8027 33.2794 76.4399 33.4148 76.1101C33.5502 75.7802 33.7811 75.4984 34.0778 75.3006C34.3744 75.1028 34.7234 74.9981 35.08 75C35.5452 74.9999 35.992 75.1819 36.3247 75.5071C36.6574 75.8323 36.8495 76.2749 36.86 76.74ZM47.26 82.67C47.26 83.024 47.155 83.3701 46.9583 83.6645C46.7616 83.9588 46.482 84.1883 46.155 84.3237C45.8279 84.4592 45.468 84.4947 45.1208 84.4256C44.7735 84.3565 44.4546 84.1861 44.2042 83.9357C43.9539 83.6854 43.7834 83.3664 43.7144 83.0192C43.6453 82.672 43.6807 82.3121 43.8162 81.985C43.9517 81.6579 44.1811 81.3783 44.4755 81.1817C44.7699 80.985 45.1159 80.88 45.47 80.88C45.9447 80.88 46.4 81.0686 46.7357 81.4043C47.0714 81.74 47.26 82.1953 47.26 82.67Z" fill="#83836F"/>
</svg>
