<?xml version="1.0" encoding="UTF-8" standalone="no"?>
<!DOCTYPE svg PUBLIC "-//W3C//DTD SVG 1.1//EN" "http://www.w3.org/Graphics/SVG/1.1/DTD/svg11.dtd">
<svg width="100%" height="100%" viewBox="0 0 827 827" version="1.1" xmlns="http://www.w3.org/2000/svg" xmlns:xlink="http://www.w3.org/1999/xlink" xml:space="preserve" xmlns:serif="http://www.serif.com/" style="fill-rule:evenodd;clip-rule:evenodd;stroke-linejoin:round;stroke-miterlimit:2;">
    <g transform="matrix(1,0,0,1,-4508,-7318.16)">
        <g transform="matrix(0.959371,0,0,1.08238,1101.27,-602.9)">
            <g transform="matrix(1,0,0,1,-27.10109,0.13469)">
                <rect x="3551" y="7318.16" width="861.785" height="763.843" style="fill:rgb(235,235,235);fill-opacity:0;"/>
            </g>
            <g transform="matrix(2.289154,0,0,0.92389,3177.740113,7284.003769)">
                <path d="M413.5,428C413.5,426.896 413.092,426 412.589,426L286.911,426C286.408,426 286,426.896 286,428C286,429.104 286.408,430 286.911,430L412.589,430C413.092,430 413.5,429.104 413.5,428Z"/>
            </g>
            <g transform="matrix(1.455274,0,0,0.957563,3408.933259,7287.540422)">
                <path d="M413.5,428C413.5,426.896 412.835,426 412.015,426L287.485,426C286.665,426 286,426.896 286,428C286,429.104 286.665,430 287.485,430L412.015,430C412.835,430 413.5,429.104 413.5,428Z"/>
            </g>
            <g transform="matrix(1.504326,0,0,0.92389,3388.650362,7320.216397)">
                <path d="M413.5,428C413.5,426.896 412.879,426 412.114,426L287.386,426C286.621,426 286,426.896 286,428C286,429.104 286.621,430 287.386,430L412.114,430C412.879,430 413.5,429.104 413.5,428Z"/>
            </g>
            <g transform="matrix(1.537027,0,0,0.92389,3375.12843,7338.097561)">
                <path d="M413.5,428C413.5,426.896 412.892,426 412.144,426L287.356,426C286.608,426 286,426.896 286,428C286,429.104 286.608,430 287.356,430L412.144,430C412.892,430 413.5,429.104 413.5,428Z"/>
            </g>
            <g transform="matrix(1.577904,0,0,0.92389,3358.226016,7356.57536)">
                <path d="M413.5,428C413.5,426.896 412.908,426 412.179,426L287.321,426C286.592,426 286,426.896 286,428C286,429.104 286.592,430 287.321,430L412.179,430C412.908,430 413.5,429.104 413.5,428Z"/>
            </g>
            <g transform="matrix(2.796022,0,0,0.92389,3002.547711,7374.129269)">
                <path d="M413.5,428C413.5,426.896 413.166,426 412.754,426L286.746,426C286.334,426 286,426.896 286,428C286,429.104 286.334,430 286.746,430L412.754,430C413.166,430 413.5,429.104 413.5,428Z"/>
            </g>
        </g>
        <g transform="matrix(1.925593,0,0,1.734509,-5702.883486,-4661.180372)">
            <g transform="matrix(4.16667,0,0,4.16667,5323.587577,6940.13)">
                <path d="M24.027,15.733C22.38,15.733 20.884,14.888 20.018,13.484C19.129,12.045 19.053,10.285 19.805,8.772L19.806,8.77L22.22,3.946C22.563,3.26 23.259,2.81 24.027,2.81C24.795,2.81 25.491,3.26 25.834,3.946L28.248,8.77C29.005,10.284 28.929,12.045 28.036,13.484C27.171,14.888 25.674,15.733 24.027,15.733ZM24.029,9.483L23.425,10.694L23.423,10.697C23.3,10.941 23.4,11.147 23.448,11.225C23.509,11.321 23.688,11.537 24.031,11.537C24.369,11.537 24.55,11.329 24.608,11.231L24.613,11.224C24.661,11.147 24.761,10.94 24.638,10.696L24.029,9.483Z" style="fill-rule:nonzero;"/>
            </g>
            <g transform="matrix(4.16667,0,0,4.16667,5198.305977,7027.66485)">
                <path d="M75.973,15.733C74.326,15.733 72.83,14.888 71.964,13.484C71.075,12.045 70.999,10.285 71.751,8.772L71.752,8.77L74.166,3.946C74.509,3.26 75.205,2.81 75.973,2.81C76.741,2.81 77.437,3.26 77.78,3.946L80.194,8.77C80.951,10.284 80.871,12.044 79.982,13.484C79.117,14.888 77.62,15.733 75.973,15.733ZM75.975,9.483L75.371,10.694L75.369,10.697C75.246,10.941 75.346,11.147 75.394,11.225C75.455,11.321 75.634,11.537 75.977,11.537C76.317,11.537 76.498,11.322 76.558,11.226L76.559,11.224C76.607,11.147 76.707,10.94 76.584,10.696L75.975,9.483Z" style="fill-rule:nonzero;"/>
            </g>
            <g transform="matrix(4.16667,0,0,4.16667,5314.759128,6940.13)">
                <path d="M50,15.733C48.353,15.733 46.857,14.888 45.991,13.484C45.102,12.045 45.026,10.285 45.778,8.772L45.779,8.77L48.193,3.946C48.536,3.26 49.232,2.81 50,2.81C50.768,2.81 51.464,3.26 51.807,3.946L54.221,8.77C54.978,10.284 54.902,12.044 54.013,13.484L54.012,13.485C53.143,14.889 51.646,15.733 50,15.733ZM50,9.486L49.398,10.694L49.396,10.697C49.273,10.942 49.374,11.149 49.422,11.226L49.43,11.238C49.486,11.334 49.666,11.541 50,11.541C50.339,11.541 50.52,11.331 50.58,11.233L50.582,11.23C50.63,11.153 50.731,10.946 50.608,10.702L50.607,10.699L50,9.486Z" style="fill-rule:nonzero;"/>
            </g>
            <g transform="matrix(4.16667,0,0,4.16667,5317.794117,6927.446292)">
                <path d="M37.012,30.28C35.365,30.28 33.869,29.435 33.003,28.031C32.114,26.592 32.038,24.832 32.79,23.319L32.791,23.317L35.205,18.493C35.548,17.807 36.244,17.357 37.012,17.357C37.78,17.357 38.476,17.807 38.819,18.493L41.233,23.317C41.99,24.831 41.914,26.591 41.02,28.032C40.155,29.431 38.659,30.28 37.012,30.28ZM37.014,24.03L36.41,25.241L36.408,25.244C36.285,25.488 36.385,25.694 36.433,25.772C36.494,25.868 36.673,26.084 37.016,26.084C37.354,26.084 37.535,25.876 37.593,25.778L37.598,25.771C37.646,25.694 37.746,25.487 37.623,25.243L37.014,24.03Z" style="fill-rule:nonzero;"/>
            </g>
            <g transform="matrix(4.16667,0,0,4.16667,5161.247454,6965.148002)">
                <path d="M62.988,30.28C61.341,30.28 59.845,29.435 58.979,28.031C58.09,26.591 58.014,24.831 58.771,23.317L61.185,18.493C61.528,17.807 62.224,17.357 62.992,17.357C63.76,17.357 64.456,17.807 64.799,18.493L67.213,23.317C67.97,24.831 67.89,26.591 67.001,28.031L67,28.033C66.131,29.432 64.634,30.28 62.988,30.28ZM62.99,24.03L62.386,25.241L62.384,25.244C62.261,25.488 62.361,25.694 62.409,25.772C62.47,25.868 62.649,26.084 62.992,26.084C63.332,26.084 63.513,25.869 63.573,25.773L63.574,25.771C63.622,25.694 63.722,25.487 63.599,25.243L62.99,24.03Z" style="fill-rule:nonzero;"/>
            </g>
            <g transform="matrix(3.999222,0,0,4.848397,5314.762667,6866.954005)">
                <path d="M78.431,96.945C78.431,96.945 78.431,96.945 78.431,96.945C78.403,96.824 78.342,96.713 78.258,96.621C78.342,96.712 78.403,96.823 78.431,96.945ZM77.034,96.355L22.364,96.355C21.669,96.355 21.12,95.785 21.12,95.094L21.12,70.364C21.12,70.084 21.211,69.809 21.382,69.587C21.421,69.536 21.453,69.481 21.477,69.423L29.249,50.656C29.483,50.39 29.822,50.234 30.176,50.234L69.824,50.234C70.182,50.234 70.519,50.389 70.752,50.655L78.523,69.422C78.547,69.48 78.579,69.535 78.618,69.586C78.789,69.809 78.881,70.084 78.881,70.364L78.881,95.091C78.881,95.673 78.496,96.167 77.963,96.313C77.811,96.16 77.64,95.995 77.551,95.938L77.407,96.355L77.078,96.355L77.074,95.803L77.035,95.803L77.034,96.355ZM23.608,93.085C23.608,93.496 23.971,93.829 24.42,93.829L75.577,93.829C76.025,93.829 76.389,93.496 76.389,93.085L76.393,71.035C76.393,70.95 76.377,70.866 76.346,70.786L69.558,53.259C69.443,52.963 69.137,52.764 68.793,52.764L31.208,52.764C30.864,52.764 30.558,52.963 30.443,53.259L23.655,70.786C23.624,70.866 23.608,70.95 23.608,71.035L23.608,93.085Z" style="fill-rule:nonzero;"/>
            </g>
            <g transform="matrix(3.999222,0,0,4.848397,5314.762667,6866.954005)">
                <path d="M77.637,71.624L22.364,71.624C21.669,71.624 21.12,71.054 21.12,70.363C21.12,69.668 21.673,69.102 22.364,69.102L77.637,69.102C78.332,69.102 78.881,69.672 78.881,70.363C78.881,71.058 78.332,71.624 77.637,71.624Z" style="fill-rule:nonzero;"/>
            </g>
            <g transform="matrix(4.757483,0,0,4.297151,5322.158113,6914.241088)">
                <path d="M52.91,62.027C51.913,62.027 51.14,61.176 51.14,60.184L51.14,57.05C51.14,56.587 50.834,56.211 50.457,56.211L49.547,56.211C49.17,56.211 48.864,56.587 48.864,57.05L48.864,60.184C48.864,61.181 48.085,62.027 47.094,62.027C46.098,62.027 45.323,61.176 45.323,60.184L45.323,54.368C45.323,53.371 46.102,52.524 47.094,52.524L52.91,52.524C53.907,52.524 54.68,53.376 54.68,54.368L54.68,60.184C54.68,61.176 53.902,62.027 52.91,62.027Z" style="fill-rule:nonzero;"/>
            </g>
            <g transform="matrix(3.999222,0,0,4.848397,5314.762667,6866.954005)">
                <path d="M52.91,90.535L47.094,90.535C46.399,90.535 45.849,89.965 45.849,89.274L45.849,76.184C45.849,75.489 46.403,74.923 47.094,74.923L52.91,74.923C53.605,74.923 54.154,75.493 54.154,76.184L54.154,89.274C54.154,89.965 53.601,90.535 52.91,90.535ZM48.338,87.265C48.338,87.676 48.701,88.009 49.15,88.009L50.854,88.009C51.303,88.009 51.666,87.676 51.666,87.265L51.666,78.185C51.666,77.774 51.303,77.441 50.854,77.441L49.15,77.441C48.701,77.441 48.338,77.774 48.338,78.185L48.338,87.265Z" style="fill-rule:nonzero;"/>
            </g>
            <g transform="matrix(3.999222,0,0,4.848397,5314.762667,6866.954005)">
                <path d="M68.91,90.535L63.094,90.535C62.399,90.535 61.849,89.965 61.849,89.274L61.849,76.184C61.849,75.489 62.403,74.923 63.094,74.923L68.91,74.923C69.605,74.923 70.154,75.493 70.154,76.184L70.154,89.274C70.154,89.965 69.601,90.535 68.91,90.535ZM64.338,87.265C64.338,87.676 64.701,88.009 65.15,88.009L66.854,88.009C67.303,88.009 67.666,87.676 67.666,87.265L67.666,78.185C67.666,77.774 67.303,77.441 66.854,77.441L65.15,77.441C64.701,77.441 64.338,77.774 64.338,78.185L64.338,87.265Z" style="fill-rule:nonzero;"/>
            </g>
            <g transform="matrix(3.999222,0,0,4.848397,5314.762667,6866.954005)">
                <path d="M38.363,90.535L32.547,90.535C31.852,90.535 31.302,89.965 31.302,89.274L31.302,76.184C31.302,75.489 31.856,74.923 32.547,74.923L38.363,74.923C39.058,74.923 39.607,75.493 39.607,76.184L39.607,89.274C39.607,89.965 39.058,90.535 38.363,90.535ZM33.791,87.265C33.791,87.676 34.154,88.009 34.603,88.009L36.307,88.009C36.756,88.009 37.119,87.676 37.119,87.265L37.119,78.185C37.119,77.774 36.756,77.441 36.307,77.441L34.603,77.441C34.154,77.441 33.791,77.774 33.791,78.185L33.791,87.265Z" style="fill-rule:nonzero;"/>
            </g>
        </g>
        <g transform="matrix(7.33823,0,0,7.33823,4511.932634,7300.44)">
            <path d="M75.549,46.43C74.038,46.408 74.037,44.159 75.548,44.133C79.762,44.045 83.502,47.782 83.414,51.999C83.392,53.509 81.139,53.504 81.117,51.998L81.117,51.993C81.178,49.015 78.532,46.369 75.554,46.43L75.549,46.43Z" style="fill-rule:nonzero;"/>
        </g>
        <g transform="matrix(7.33823,0,0,7.33823,4511.932634,7300.44)">
            <path d="M75.577,40.709C73.386,40.549 73.438,37.241 75.702,37.201C83.593,37.06 90.475,43.947 90.339,51.834C90.309,54.148 86.865,54.138 86.826,51.842L86.826,51.816C86.928,45.828 81.716,40.616 75.728,40.718L75.715,40.718C75.698,40.718 75.682,40.718 75.665,40.717C75.686,40.717 75.7,40.716 75.707,40.715L75.705,40.714L75.696,40.714C75.666,40.714 75.637,40.713 75.609,40.711C75.467,40.691 75.339,40.63 75.235,40.542C75.362,40.652 75.487,40.694 75.577,40.709ZM75.665,40.717C75.643,40.717 75.613,40.715 75.577,40.709L75.609,40.711C75.627,40.714 75.646,40.716 75.665,40.717Z" style="fill-rule:nonzero;"/>
        </g>
    </g>
</svg>
