<?xml version="1.0" encoding="UTF-8" standalone="no"?>
<!DOCTYPE svg PUBLIC "-//W3C//DTD SVG 1.1//EN" "http://www.w3.org/Graphics/SVG/1.1/DTD/svg11.dtd">
<svg width="100%" height="100%" viewBox="0 0 827 827" version="1.1" xmlns="http://www.w3.org/2000/svg" xmlns:xlink="http://www.w3.org/1999/xlink" xml:space="preserve" xmlns:serif="http://www.serif.com/" style="fill-rule:evenodd;clip-rule:evenodd;stroke-linejoin:round;stroke-miterlimit:2;">
    <g transform="matrix(1,0,0,1,-3551,-7318.16)">
        <g transform="matrix(0.959371,0,0,1.08238,145.274,-600.9)">
            <rect x="3551" y="7318.16" width="861.785" height="763.843" style="fill:rgb(235,235,235);fill-opacity:0;"/>
        </g>
        <g>
            <g transform="matrix(7.33823,0,0,7.33823,3597.51,7393.75)">
                <path d="M49.992,32.438C47.387,32.438 45.265,30.316 45.265,27.711C45.265,24.781 47.49,21.871 48.834,20.404L48.834,20.403C49.434,19.749 50.558,19.749 51.158,20.403C52.503,21.871 54.727,24.781 54.727,27.711C54.727,30.316 52.605,32.438 50,32.438L50,31.879L49.999,31.879L50,32.438L49.992,32.438L49.995,31.879L49.992,31.879L49.992,32.438Z" style="fill-rule:nonzero;"/>
            </g>
            <g transform="matrix(7.33823,0,0,7.33823,3541.65,7099.44)">
                <path d="M75.549,46.43C74.038,46.408 74.037,44.159 75.548,44.133C79.762,44.045 83.502,47.782 83.414,51.999C83.392,53.509 81.139,53.504 81.117,51.998L81.117,51.993C81.178,49.015 78.532,46.369 75.554,46.43L75.549,46.43Z" style="fill-rule:nonzero;"/>
            </g>
            <g transform="matrix(7.33823,0,0,7.33823,3541.65,7099.44)">
                <path d="M75.577,40.709C73.386,40.549 73.438,37.241 75.702,37.201C83.593,37.06 90.475,43.947 90.339,51.834C90.309,54.148 86.865,54.138 86.826,51.842L86.826,51.816C86.928,45.828 81.716,40.616 75.728,40.718L75.715,40.718C75.698,40.718 75.682,40.718 75.665,40.717C75.686,40.717 75.7,40.716 75.707,40.715L75.705,40.714L75.696,40.714C75.666,40.714 75.637,40.713 75.609,40.711C75.467,40.691 75.339,40.63 75.235,40.542C75.362,40.652 75.487,40.694 75.577,40.709ZM75.665,40.717C75.643,40.717 75.613,40.715 75.577,40.709L75.609,40.711C75.627,40.714 75.646,40.716 75.665,40.717Z" style="fill-rule:nonzero;"/>
            </g>
            <g transform="matrix(7.33823,0,0,7.33823,3597.46,7393.8)">
                <path d="M61.289,40.777C61.323,40.739 61.358,40.701 61.394,40.663L61.471,40.849C61.402,40.849 61.337,40.823 61.289,40.777ZM61.399,40.658L61.476,40.844L61.399,40.658ZM31.074,38.644L31.073,38.643C31.097,38.618 31.117,38.589 31.13,38.557C31.171,38.458 31.149,38.344 31.074,38.268C31.15,38.344 31.172,38.458 31.131,38.557C31.118,38.59 31.098,38.619 31.074,38.644ZM31.074,38.268L31.073,38.267C30.065,37.26 29.49,35.874 29.49,34.457L29.49,34.44L29.081,27.989L29.081,27.986C29.111,25.74 32.436,25.836 32.444,27.994C32.444,27.935 32.679,28.225 32.706,28.259C32.687,28.257 32.563,28.239 32.492,28.148C32.462,28.104 32.444,28.052 32.444,27.995L32.444,28.014L32.853,34.466C32.855,34.994 33.07,35.511 33.446,35.888L33.447,35.889L38.314,40.743L38.324,40.753C39.351,41.675 39.755,42.956 39.883,44.324C39.965,45.213 39.928,46.137 39.915,46.991C39.913,47.062 39.941,47.13 39.991,47.181C40.041,47.232 40.109,47.26 40.18,47.26L59.823,47.26C59.97,47.26 60.088,47.142 60.088,46.995L60.088,44.574C60.088,43.149 60.644,41.799 61.66,40.771C61.61,40.821 61.542,40.849 61.471,40.849L61.664,40.767L66.555,35.886L66.556,35.885C66.932,35.505 67.15,34.985 67.15,34.453L67.15,13.699C67.15,13.24 66.772,12.869 66.312,12.869L33.691,12.869C33.231,12.869 32.853,13.24 32.853,13.699L32.853,19.435C32.838,21.612 29.519,21.667 29.49,19.439L29.49,13.699C29.49,11.387 31.375,9.506 33.691,9.506L66.312,9.506C68.629,9.506 70.513,11.387 70.513,13.699L70.513,34.453C70.513,35.865 69.942,37.247 68.946,38.254C68.935,38.264 68.925,38.274 68.918,38.284C68.858,38.359 68.842,38.462 68.88,38.552C68.893,38.584 68.913,38.613 68.937,38.637L68.934,38.639C68.91,38.615 68.89,38.586 68.877,38.553C68.836,38.454 68.858,38.34 68.935,38.264L64.046,43.141L64.044,43.142C63.663,43.527 63.451,44.038 63.451,44.574L63.451,58.135C63.451,58.282 63.569,58.4 63.716,58.4L84.48,58.4C84.502,58.4 84.524,58.402 84.546,58.404C84.553,58.405 84.561,58.405 84.569,58.405C84.671,58.407 84.772,58.404 84.873,58.414C85.555,58.481 84.941,58.376 85.521,58.473C89.361,58.982 92.333,62.277 92.333,66.254L92.333,82.656C92.333,86.98 88.813,90.497 84.484,90.497L70.86,90.497C68.664,90.478 68.643,87.155 70.86,87.134L84.484,87.134C86.956,87.134 88.97,85.125 88.97,82.656L88.97,66.254C88.97,63.781 86.956,61.767 84.484,61.767L63.72,61.767C63.573,61.767 63.455,61.885 63.455,62.032L63.455,73.785C63.455,74.056 63.389,74.323 63.265,74.561L60.081,80.696L60.078,80.702C59.785,81.306 59.177,81.613 58.565,81.607C57.955,81.599 57.356,81.277 57.073,80.679L57.071,80.674L54.006,74.536L53.841,74.802L53.841,74.801L54.004,74.534C53.889,74.301 53.83,74.044 53.83,73.785L53.83,62.032C53.83,61.885 53.712,61.767 53.565,61.767L46.442,61.767C46.295,61.767 46.177,61.885 46.177,62.032L46.177,73.785C46.177,74.045 46.118,74.297 46.002,74.529L42.971,80.663L42.968,80.669C42.685,81.277 42.085,81.598 41.472,81.605C40.863,81.611 40.258,81.302 39.962,80.707L39.959,80.702L36.747,74.571L36.745,74.568C36.615,74.327 36.548,74.055 36.548,73.781L36.548,62.028C36.548,61.881 36.43,61.763 36.283,61.763L15.519,61.763C13.047,61.763 11.033,63.777 11.033,66.25L11.033,82.652C11.033,85.121 13.047,87.13 15.519,87.13L63.82,87.13C66.04,87.185 66.023,90.429 63.824,90.492L15.519,90.493C11.19,90.493 7.67,86.976 7.67,82.652L7.67,66.25C7.67,61.922 11.191,58.4 15.519,58.4L36.291,58.404C36.361,58.404 36.429,58.377 36.479,58.327C36.529,58.277 36.556,58.209 36.556,58.139L36.556,44.578C36.556,44.038 36.339,43.529 35.953,43.138L35.952,43.136L31.074,38.268ZM68.918,38.284C68.923,38.277 68.93,38.27 68.937,38.263L68.946,38.254C68.955,38.245 68.966,38.237 68.978,38.229C69.016,38.203 69.056,38.351 69.083,38.49L68.987,38.587C68.91,38.5 68.845,38.382 68.918,38.284ZM28.833,28.262L28.832,28.247L29.081,27.997C29.082,28.064 29.056,28.129 29.01,28.179C28.963,28.228 28.9,28.258 28.833,28.262ZM32.726,28.259L32.726,28.262L32.709,28.262L32.712,28.259L32.726,28.259ZM32.709,28.262C32.601,28.262 32.508,28.198 32.466,28.104C32.474,28.12 32.482,28.135 32.492,28.148C32.54,28.215 32.618,28.259 32.707,28.259L32.709,28.262ZM32.444,28.014C32.446,28.046 32.454,28.076 32.466,28.104C32.454,28.079 32.446,28.049 32.444,28.014ZM53.561,58.4C53.708,58.4 53.826,58.282 53.826,58.135L53.826,50.888C53.826,50.741 53.708,50.623 53.561,50.623L46.439,50.623C46.292,50.623 46.174,50.741 46.174,50.888L46.174,58.135C46.174,58.282 46.292,58.4 46.439,58.4L53.561,58.4ZM42.779,73.451C42.797,73.414 42.806,73.374 42.806,73.333L42.806,50.748C42.806,50.601 42.688,50.483 42.541,50.483L40.177,50.483C40.03,50.483 39.912,50.601 39.912,50.748L39.912,73.298C39.912,73.341 39.922,73.383 39.942,73.421L41.166,75.76C41.212,75.849 41.304,75.904 41.404,75.902C41.504,75.901 41.595,75.844 41.639,75.755L42.779,73.451ZM60.059,73.426C60.078,73.388 60.088,73.347 60.088,73.304L60.088,50.743C60.088,50.596 59.97,50.478 59.823,50.478L57.458,50.478C57.311,50.478 57.193,50.596 57.193,50.743L57.193,73.32C57.193,73.361 57.202,73.402 57.22,73.439L58.376,75.754C58.421,75.843 58.512,75.9 58.612,75.9C58.712,75.901 58.804,75.846 58.85,75.757L60.059,73.426Z" style="fill-rule:nonzero;"/>
            </g>
            <g transform="matrix(7.33823,0,0,7.33823,3597.46,7393.8)">
                <path d="M64.923,35.426C64.923,36.363 64.168,37.119 63.23,37.119L36.773,37.119C35.836,37.119 35.081,36.364 35.081,35.426L35.081,16.906C35.081,15.969 35.836,15.213 36.773,15.213L63.23,15.213C64.168,15.213 64.923,15.969 64.923,16.906L64.923,35.426ZM61.538,33.733L61.538,18.599L38.466,18.599L38.466,33.733L61.538,33.733Z" style="fill-rule:nonzero;"/>
            </g>
            <g transform="matrix(7.33823,0,0,7.33823,3597.46,7393.8)">
                <path d="M18.656,68.207L23.234,68.207C24.57,68.184 24.57,66.195 23.234,66.176L18.656,66.176C17.32,66.199 17.32,68.188 18.656,68.207Z" style="fill-rule:nonzero;"/>
            </g>
            <g transform="matrix(7.33823,0,0,7.33823,3597.46,7393.8)">
                <path d="M18.656,82.723L23.234,82.723C24.57,82.7 24.57,80.711 23.234,80.692L18.656,80.692C17.32,80.715 17.32,82.704 18.656,82.723Z" style="fill-rule:nonzero;"/>
            </g>
            <g transform="matrix(7.33823,0,0,7.33823,3597.46,7393.8)">
                <path d="M28.922,75.465C30.258,75.442 30.258,73.453 28.922,73.434L24.344,73.434C23.781,73.434 23.328,73.887 23.328,74.449C23.328,75.012 23.781,75.465 24.344,75.465L28.922,75.465Z" style="fill-rule:nonzero;"/>
            </g>
            <g transform="matrix(7.33823,0,0,7.33823,3597.46,7393.8)">
                <path d="M81.344,66.172L76.766,66.172C75.43,66.195 75.43,68.184 76.766,68.203L81.344,68.203C82.68,68.18 82.68,66.191 81.344,66.172Z" style="fill-rule:nonzero;"/>
            </g>
            <g transform="matrix(7.33823,0,0,7.33823,3597.46,7393.8)">
                <path d="M81.344,80.691L76.766,80.691C75.43,80.714 75.43,82.703 76.766,82.722L81.344,82.722C82.68,82.699 82.68,80.711 81.344,80.691Z" style="fill-rule:nonzero;"/>
            </g>
            <g transform="matrix(7.33823,0,0,7.33823,3597.46,7393.8)">
                <path d="M71.078,73.43C69.742,73.453 69.742,75.442 71.078,75.461L75.656,75.461C76.219,75.461 76.672,75.008 76.672,74.446C76.672,73.883 76.219,73.43 75.656,73.43L71.078,73.43Z" style="fill-rule:nonzero;"/>
            </g>
            <g transform="matrix(7.33823,0,0,7.33823,3597.46,7393.8)">
                <path d="M47.711,80.691C46.375,80.714 46.375,82.703 47.711,82.722L52.289,82.722C52.852,82.722 53.305,82.269 53.305,81.707C53.305,81.144 52.852,80.691 52.289,80.691L47.711,80.691Z" style="fill-rule:nonzero;"/>
            </g>
            <g transform="matrix(7.33823,0,0,7.33823,3597.46,7393.8)">
                <path d="M53.161,38.979C55.26,39.01 55.253,42.14 53.16,42.17L45.472,42.17C43.372,42.14 43.378,39.01 45.471,38.979L53.161,38.979Z" style="fill-rule:nonzero;"/>
            </g>
            <g transform="matrix(7.33823,0,0,7.33823,3597.46,7393.8)">
                <path d="M53.161,43.162C55.26,43.193 55.253,46.323 53.16,46.353L45.472,46.353C43.372,46.323 43.378,43.193 45.471,43.162L53.161,43.162Z" style="fill-rule:nonzero;"/>
            </g>
        </g>
    </g>
</svg>
