<?xml version="1.0" encoding="UTF-8" standalone="no"?>
<!DOCTYPE svg PUBLIC "-//W3C//DTD SVG 1.1//EN" "http://www.w3.org/Graphics/SVG/1.1/DTD/svg11.dtd">
<svg width="100%" height="100%" viewBox="0 0 827 827" version="1.1" xmlns="http://www.w3.org/2000/svg" xmlns:xlink="http://www.w3.org/1999/xlink" xml:space="preserve" xmlns:serif="http://www.serif.com/" style="fill-rule:evenodd;clip-rule:evenodd;stroke-linejoin:round;stroke-miterlimit:2;">
    <g transform="matrix(1,0,0,1,-5414,-7318.16)">
        <g transform="matrix(0.959371,0,0,1.08238,2007.27,-602.9)">
            <rect x="3551" y="7318.16" width="861.785" height="763.843" style="fill:rgb(235,235,235);fill-opacity:0;"/>
        </g>
        <g transform="matrix(7.06823,0,0,7.06823,5473.91,7379.2)">
            <path d="M48.815,90.987C48.815,90.987 48.814,90.986 48.814,90.986C48.857,90.941 48.893,90.888 48.918,90.828C48.975,90.692 48.967,90.54 48.904,90.412C48.968,90.54 48.976,90.692 48.919,90.829C48.894,90.889 48.859,90.943 48.815,90.987ZM37.728,52.818C37.727,52.819 37.727,52.819 37.727,52.819L37.528,52.321C36.3,53.484 34.232,54.903 31.323,55L31.323,55C28.27,55.097 25.928,53.646 24.571,52.402L24.57,52.401C24.207,52.067 23.753,51.876 23.298,51.876L16.354,51.875C16.118,51.875 15.914,52.04 15.865,52.271C15.535,53.825 14.149,55.001 12.501,55.001L7.813,55.001C5.923,55.001 4.375,53.454 4.375,51.563L4.375,35.938C4.375,34.047 5.923,32.5 7.813,32.5L12.501,32.5C14.149,32.5 15.535,33.676 15.865,35.229C15.914,35.46 16.118,35.625 16.354,35.625L22.625,35.625C22.901,35.625 23.125,35.401 23.125,35.125L23.125,34.376C23.125,32.728 24.302,31.342 25.854,31.012C26.085,30.963 26.25,30.759 26.25,30.523L26.25,28.939C26.25,28.663 26.026,28.439 25.75,28.439L25.001,28.439C22.251,28.439 20,26.188 20,23.438C20,20.688 22.251,18.438 25.001,18.438L37.501,18.438C40.251,18.438 42.501,20.688 42.501,23.438C42.501,26.188 40.251,28.439 37.501,28.439L36.751,28.439C36.475,28.439 36.251,28.662 36.251,28.939L36.25,30.523C36.25,30.759 36.415,30.963 36.646,31.012C38.2,31.342 39.376,32.728 39.376,34.376L39.376,35.125C39.376,35.401 39.6,35.625 39.876,35.625L42.188,35.625C50.11,35.625 56.563,42.078 56.563,50L56.562,56.258C56.562,56.414 56.635,56.561 56.759,56.656C57.581,57.282 58.126,58.256 58.126,59.375L58.126,62.5C58.126,63.619 57.581,64.594 56.76,65.22C56.635,65.315 56.563,65.462 56.563,65.618L56.563,71.875C56.563,73.523 55.387,74.909 53.834,75.239C53.603,75.288 53.438,75.492 53.438,75.728L53.438,77.344C53.438,81.906 57.157,85.625 61.719,85.625C63.931,85.625 66.009,84.767 67.593,83.201L67.597,83.197C69.144,81.631 70,79.54 70,77.344L70,45.382C70,45.156 69.849,44.958 69.631,44.899C60.864,42.528 54.375,34.506 54.375,25C54.375,13.625 63.625,4.375 75,4.375C86.306,4.375 95.513,13.513 95.624,24.794L94.997,25.42L95.007,25.444L94.975,25.475L95.236,26.105L94.886,25.59L94.865,25.642L95.329,26.329C95.428,26.329 95.524,26.3 95.605,26.246C95.075,35.222 88.773,42.646 80.386,44.915C80.168,44.974 80.017,45.172 80.017,45.398L80.017,77.36C80.017,87.438 71.813,95.642 61.735,95.642C56.863,95.642 52.291,93.756 48.828,90.301C48.822,90.295 48.817,90.289 48.811,90.283C45.362,86.819 43.454,82.24 43.454,77.36L43.455,75.744C43.455,75.508 43.29,75.304 43.059,75.255C41.505,74.925 40.329,73.539 40.329,71.891L40.33,65.634C40.33,65.478 40.257,65.331 40.133,65.236C39.311,64.609 38.766,63.635 38.766,62.516L38.766,59.391C38.766,58.272 39.311,57.298 40.132,56.672C40.257,56.577 40.329,56.43 40.329,56.274L40.329,52.392C40.329,52.116 40.105,51.892 39.829,51.892L38.704,51.892C38.242,51.892 37.833,52.031 37.529,52.319L37.728,52.818ZM31.323,55C31.052,55.009 30.838,55.232 30.84,55.503C30.839,55.503 30.839,55.503 30.839,55.503C30.837,55.232 31.052,55.009 31.323,55ZM24.61,53.1C24.609,53.1 24.608,53.099 24.608,53.098C24.645,53.056 24.676,53.006 24.697,52.951C24.77,52.765 24.725,52.555 24.585,52.415C24.726,52.555 24.772,52.766 24.699,52.952C24.678,53.008 24.647,53.057 24.61,53.1ZM37.706,52.838C37.652,52.888 37.596,52.937 37.539,52.987C37.406,52.868 37.309,52.692 37.425,52.458C37.461,52.388 37.594,52.619 37.706,52.838ZM58.875,23.125L58.875,23.066L59.301,22.698C59.303,22.687 59.304,22.675 59.306,22.664C59.328,22.669 59.35,22.673 59.373,22.678C59.346,22.929 59.134,23.125 58.875,23.125C59.907,23.125 60.751,23.969 60.751,25C60.751,26.031 59.907,26.876 58.875,26.876L58.875,27.376L58.874,27.376L58.873,26.876L58.807,26.876L58.806,27.376L58.805,27.376C58.805,27.378 58.806,27.38 58.806,27.381L58.805,27.876C58.557,27.876 58.346,27.694 58.31,27.448C59.479,35.438 66.249,41.627 74.5,41.868L74.5,42.188L74.501,42.188L74.501,42.189C74.501,42.465 74.725,42.688 75.001,42.688C75.278,42.688 75.501,42.464 75.501,42.188L75.501,41.868C83.752,41.627 90.522,35.438 91.691,27.448C91.712,27.305 91.67,27.159 91.575,27.049C91.479,26.939 91.341,26.876 91.196,26.876L91.125,26.876C90.094,26.876 89.25,26.031 89.25,25C89.25,23.969 90.094,23.125 91.125,23.125L91.195,23.125C91.34,23.125 91.479,23.062 91.574,22.952C91.669,22.842 91.711,22.696 91.69,22.552C91.276,19.73 90.166,17.132 88.532,14.938C88.446,14.822 88.312,14.749 88.167,14.738C88.022,14.727 87.88,14.78 87.777,14.883L87.727,14.933C87.355,15.285 86.889,15.469 86.407,15.469C85.919,15.469 85.452,15.299 85.076,14.924C84.346,14.194 84.345,13.014 85.073,12.282C84.979,12.374 84.853,12.425 84.722,12.425C84.605,12.425 84.494,12.385 84.407,12.314C84.418,12.297 84.429,12.281 84.44,12.265C84.449,12.271 84.457,12.277 84.466,12.284C84.536,12.336 84.618,12.369 84.703,12.38L84.722,12.425L84.838,12.378C84.814,12.382 84.79,12.383 84.765,12.383L85.113,12.242C85.17,12.187 85.214,12.119 85.24,12.041C85.308,11.836 85.237,11.611 85.064,11.482C82.878,9.85 80.272,8.74 77.449,8.326C77.697,8.362 77.878,8.576 77.876,8.823L77.809,8.89C77.665,8.865 77.521,8.842 77.376,8.821L77.376,8.891C77.376,9.026 77.365,9.159 77.343,9.288L76.876,8.823L76.876,8.889L77.332,9.347L76.876,8.891C76.876,9.922 76.032,10.766 75,10.766C73.969,10.766 73.125,9.922 73.125,8.891L72.669,9.347L73.125,8.889L73.125,8.823L72.658,9.288C72.636,9.159 72.625,9.026 72.625,8.891L72.625,8.821C72.48,8.842 72.336,8.865 72.192,8.89L72.125,8.823C72.123,8.576 72.304,8.362 72.552,8.326C69.73,8.74 67.132,9.85 64.938,11.484C64.765,11.612 64.694,11.838 64.762,12.042C64.787,12.119 64.83,12.186 64.884,12.24L64.922,12.278L64.933,12.282C65.001,12.334 65.082,12.369 65.17,12.381L65.277,12.425L65.302,12.364L65.536,12.286C65.544,12.28 65.553,12.274 65.561,12.267C65.572,12.283 65.582,12.298 65.592,12.314C65.505,12.384 65.394,12.425 65.277,12.425C65.144,12.425 65.017,12.373 64.923,12.279C65.655,13.01 65.655,14.193 64.923,14.924L65.126,15.413C65.126,15.413 65.126,15.414 65.126,15.414L64.923,14.925L64.914,14.934C64.542,15.285 64.076,15.469 63.594,15.469C63.107,15.469 62.638,15.299 62.265,14.925L62.061,15.417C62.061,15.416 62.061,15.416 62.06,15.416L62.264,14.923L62.223,14.882L62.017,15.378C61.981,15.346 61.946,15.313 61.911,15.278L61.868,15.235C61.773,15.362 61.68,15.49 61.589,15.62L61.515,15.59C61.478,15.552 61.445,15.508 61.421,15.459C61.336,15.29 61.354,15.087 61.467,14.935C59.834,17.121 58.725,19.728 58.311,22.552C58.29,22.696 58.332,22.842 58.427,22.952C58.522,23.062 58.661,23.125 58.806,23.125L58.875,23.125ZM85.113,12.242C85.097,12.258 85.079,12.273 85.06,12.287L85.073,12.282L85.113,12.242ZM61.576,15.639C61.576,15.639 61.576,15.639 61.576,15.639L61.57,15.637L61.569,15.636L61.576,15.639ZM72.136,8.9C72.135,8.9 72.135,8.901 72.134,8.901L72.13,8.897L72.13,8.895L72.136,8.9ZM77.867,8.901C77.866,8.901 77.866,8.9 77.865,8.9L77.871,8.895L77.871,8.897L77.867,8.901ZM84.838,12.378C84.919,12.366 84.995,12.334 85.06,12.287L84.838,12.378ZM76.641,20.29C76.824,20.357 77.028,20.311 77.166,20.174L79.921,17.42C80.651,16.688 81.832,16.688 82.565,17.42C83.296,18.151 83.296,19.332 82.565,20.064L79.808,22.82C79.671,22.957 79.626,23.161 79.691,23.344C79.88,23.867 79.985,24.419 79.985,25C79.985,27.75 77.735,30 74.984,30C72.234,30 69.984,27.75 69.984,25C69.984,22.25 72.234,19.999 74.984,19.999C75.574,19.999 76.127,20.104 76.641,20.29ZM75,26.249C75.687,26.249 76.25,25.687 76.25,25C76.25,24.313 75.687,23.75 75,23.75C74.313,23.75 73.751,24.313 73.751,25C73.751,25.687 74.313,26.249 75,26.249ZM81.563,34.375C81.563,35.406 80.719,36.25 79.688,36.25L70.313,36.25C69.281,36.25 68.437,35.406 68.437,34.375C68.437,33.344 69.281,32.499 70.313,32.499L79.688,32.499C80.719,32.499 81.563,33.344 81.563,34.375ZM27.439,49.778L27.442,49.778L27.44,49.779L27.444,49.78L27.445,49.778C27.593,49.777 27.73,49.712 27.822,49.603C27.823,49.604 27.824,49.604 27.825,49.605C27.731,49.714 27.593,49.78 27.444,49.78C27.436,49.78 27.429,49.78 27.421,49.78C27.43,49.78 27.437,49.779 27.44,49.779L27.439,49.778C27.316,49.778 27.197,49.731 27.106,49.648C27.936,50.419 29.341,51.309 31.177,51.251L31.178,51.251C32.911,51.191 34.169,50.314 34.909,49.603L34.562,49.742L34.555,49.726C34.512,49.7 34.383,49.618 34.272,49.504C34.321,49.462 34.369,49.42 34.415,49.378L34.555,49.726L34.558,49.728L34.542,49.663L34.426,49.369C34.435,49.361 34.444,49.352 34.453,49.344C34.49,49.468 34.523,49.588 34.542,49.663L34.57,49.734L34.558,49.728L34.562,49.742L34.924,49.588L34.916,49.595C35.921,48.659 37.236,48.131 38.667,48.126L38.698,48.125L40.61,48.125C42.501,48.125 44.048,49.672 44.048,51.563L44.048,55.438C44.048,55.714 44.272,55.938 44.548,55.938L52.297,55.938C52.573,55.938 52.797,55.714 52.797,55.438L52.797,50.001C52.797,44.141 48.031,39.376 42.172,39.376L37.484,39.376C36.453,39.376 35.609,38.531 35.609,37.5L35.609,35.188C35.609,34.912 35.385,34.688 35.109,34.688L27.36,34.688C27.084,34.688 26.86,34.912 26.86,35.188L26.86,37.5C26.86,38.531 26.016,39.376 24.984,39.376L16.422,39.376C16.146,39.376 15.922,39.6 15.922,39.876L15.922,47.625C15.922,47.901 16.146,48.125 16.422,48.125L23.281,48.125C24.687,48.125 26.044,48.669 27.103,49.646L27.088,49.632L27.439,49.778ZM38.676,47.626L38.688,47.625L38.688,48.125L38.676,47.626ZM8.126,50.75C8.126,51.026 8.35,51.25 8.626,51.25L11.687,51.25C11.963,51.25 12.187,51.026 12.187,50.75L12.187,36.751C12.187,36.475 11.963,36.251 11.687,36.251L8.626,36.251C8.35,36.251 8.126,36.475 8.126,36.751L8.126,50.75ZM23.751,23.437C23.751,24.124 24.313,24.686 25,24.686L37.5,24.686C38.187,24.686 38.75,24.124 38.75,23.437C38.75,22.75 38.187,22.187 37.5,22.187L25,22.187C24.313,22.187 23.751,22.75 23.751,23.437ZM30.501,28.437C30.225,28.437 30.001,28.661 30.001,28.937L30.001,30.436C30.001,30.712 30.225,30.936 30.501,30.936L32,30.936C32.276,30.936 32.5,30.712 32.5,30.436L32.5,28.937C32.5,28.661 32.276,28.437 32,28.437L30.501,28.437ZM43.001,59.688C42.725,59.688 42.501,59.912 42.501,60.188L42.501,61.687C42.501,61.963 42.725,62.187 43.001,62.187L53.875,62.187C54.151,62.187 54.375,61.963 54.375,61.687L54.375,60.188C54.375,59.912 54.151,59.688 53.875,59.688L43.001,59.688ZM44.063,71.062C44.063,71.338 44.287,71.562 44.563,71.562L52.312,71.562C52.588,71.562 52.812,71.338 52.812,71.062L52.812,66.438C52.812,66.162 52.588,65.938 52.312,65.938L44.563,65.938C44.287,65.938 44.063,66.162 44.063,66.438L44.063,71.062Z" style="fill-rule:nonzero;"/>
        </g>
        <g transform="matrix(7.33823,0,0,7.33823,5550.590499,7073.565394)">
            <path d="M75.549,46.43C74.038,46.408 74.037,44.159 75.548,44.133C79.762,44.045 83.502,47.782 83.414,51.999C83.392,53.509 81.139,53.504 81.117,51.998L81.117,51.993C81.178,49.015 78.532,46.369 75.554,46.43L75.549,46.43Z" style="fill-rule:nonzero;"/>
        </g>
        <g transform="matrix(7.33823,0,0,7.33823,5550.590499,7073.565394)">
            <path d="M75.577,40.709C73.386,40.549 73.438,37.241 75.702,37.201C83.593,37.06 90.475,43.947 90.339,51.834C90.309,54.148 86.865,54.138 86.826,51.842L86.826,51.816C86.928,45.828 81.716,40.616 75.728,40.718L75.715,40.718C75.698,40.718 75.682,40.718 75.665,40.717C75.686,40.717 75.7,40.716 75.707,40.715L75.705,40.714L75.696,40.714C75.666,40.714 75.637,40.713 75.609,40.711C75.467,40.691 75.339,40.63 75.235,40.542C75.362,40.652 75.487,40.694 75.577,40.709ZM75.665,40.717C75.643,40.717 75.613,40.715 75.577,40.709L75.609,40.711C75.627,40.714 75.646,40.716 75.665,40.717Z" style="fill-rule:nonzero;"/>
        </g>
    </g>
</svg>
